<svg xmlns="http://www.w3.org/2000/svg" xmlns:xlink="http://www.w3.org/1999/xlink" xmlns:lucid="lucid" width="1840" height="1820"><g transform="translate(-1.4210854715202004e-14 0)" lucid:page-tab-id="0_0"><path d="M0 0h1870.4v2582.4H0z" fill="#fff"/><path d="M167.6 60c0 22.1-17.9 40-40 40s-40-17.9-40-40 17.9-40 40-40 40 17.9 40 40z" stroke="#000" stroke-width="2" fill="#a3d977"/><use xlink:href="#a" transform="matrix(1,0,0,1,92.59999999997673,25) translate(16.025 38.4625)"/><path d="M52 180h183.2l-32 120H20z" stroke="#000" stroke-width="2" fill="#fff"/><use xlink:href="#b" transform="matrix(1,0,0,1,25.000000000000014,185) translate(40.78 38.4625)"/><use xlink:href="#c" transform="matrix(1,0,0,1,25.000000000000014,185) translate(87.28 38.4625)"/><use xlink:href="#d" transform="matrix(1,0,0,1,25.000000000000014,185) translate(117.28 38.4625)"/><use xlink:href="#e" transform="matrix(1,0,0,1,25.000000000000014,185) translate(77.53 60.0625)"/><use xlink:href="#f" transform="matrix(1,0,0,1,25.000000000000014,185) translate(96.50500000000001 81.66250000000001)"/><path d="M127.6 102v58.5" stroke="#000" stroke-width="2" fill="none"/><path d="M127.6 101l1-.03v1.06h-2v-1.1z"/><path d="M127.6 175.76l-4.64-14.26h9.28z" stroke="#000" stroke-width="2"/><path d="M400 320l80 60-80 60-80-60z" stroke="#000" stroke-width="2" fill="#fff"/><use xlink:href="#g" transform="matrix(1,0,0,1,325,325) translate(25.32999999999999 59.0875)"/><use xlink:href="#h" transform="matrix(1,0,0,1,325,325) translate(99.18 59.0875)"/><use xlink:href="#i" transform="matrix(1,0,0,1,325,325) translate(114.68 59.0875)"/><path d="M127.6 302v78h172.23" stroke="#000" stroke-width="2" fill="none"/><path d="M128.6 302.03h-2V301h2z"/><path d="M315.1 380l-14.27 4.64v-9.28z" stroke="#000" stroke-width="2"/><path d="M400 720l80 60-80 60-80-60z" stroke="#000" stroke-width="2" fill="#fff"/><use xlink:href="#g" transform="matrix(1,0,0,1,325,725) translate(25.32999999999999 59.0875)"/><use xlink:href="#h" transform="matrix(1,0,0,1,325,725) translate(99.18 59.0875)"/><use xlink:href="#j" transform="matrix(1,0,0,1,325,725) translate(114.68 59.0875)"/><path d="M400 930l80 60-80 60-80-60z" stroke="#000" stroke-width="2" fill="#fff"/><use xlink:href="#g" transform="matrix(1,0,0,1,325,934.9999999999999) translate(25.82999999999999 59.0875)"/><use xlink:href="#h" transform="matrix(1,0,0,1,325,934.9999999999999) translate(99.68 59.0875)"/><use xlink:href="#k" transform="matrix(1,0,0,1,325,934.9999999999999) translate(115.18 59.0875)"/><path d="M580 320h160v120H580z" stroke="#000" stroke-width="2" fill="#fff"/><use xlink:href="#l" transform="matrix(1,0,0,1,585,325) translate(31.549999999999997 59.0875)"/><use xlink:href="#m" transform="matrix(1,0,0,1,585,325) translate(80.55 59.0875)"/><use xlink:href="#n" transform="matrix(1,0,0,1,585,325) translate(95.55 59.0875)"/><path d="M401 910.25h-2V895.8h2zm0-36.05h-2v-31.95h2z"/><path d="M401 842.28h-2v-1.78l1 .75 1-.75zM400 925.5l-4.64-14.25h9.28z"/><path d="M400 928.75l-6-18.5h12zm-3.26-16.5l3.26 10.03 3.26-10.03z"/><use xlink:href="#o" transform="matrix(1,0,0,1,381.025,874.2) translate(0 14.4)"/><path d="M514.86 381h-32.2v-2h32.2zm45.64 0h-14.7v-2h14.7z"/><path d="M482.7 381h-2.37l1.34-1-1.34-1h2.36zM575.76 380l-14.26 4.64v-9.28z"/><path d="M579 380l-18.5 6v-12zm-16.5 3.26l10.03-3.26-10.03-3.26z"/><use xlink:href="#p" transform="matrix(1,0,0,1,514.8583333333332,369.2) translate(0 14.4)"/><path d="M560 720h160v120H560z" stroke="#000" stroke-width="2" fill="#fff"/><use xlink:href="#q" transform="matrix(1,0,0,1,565,725) translate(38.574999999999996 59.0875)"/><path d="M504.86 781h-22.2v-2h22.2zm35.64 0h-4.7v-2h4.7z"/><path d="M482.7 781h-2.37l1.34-1-1.34-1h2.36zM555.76 780l-14.26 4.64v-9.28z"/><path d="M559 780l-18.5 6v-12zm-16.5 3.26l10.03-3.26-10.03-3.26z"/><use xlink:href="#p" transform="matrix(1,0,0,1,504.85833333333323,769.2) translate(0 14.4)"/><path d="M560 930h160v120H560z" stroke="#000" stroke-width="2" fill="#fff"/><use xlink:href="#r" transform="matrix(1,0,0,1,565,934.9999999999999) translate(36.05 59.0875)"/><path d="M504.86 991h-22.2v-2h22.2zm35.64 0h-4.7v-2h4.7z"/><path d="M482.7 991h-2.37l1.34-1-1.34-1h2.36zM555.76 990l-14.26 4.64v-9.28z"/><path d="M559 990l-18.5 6v-12zm-16.5 3.26l10.03-3.26-10.03-3.26z"/><use xlink:href="#p" transform="matrix(1,0,0,1,504.85833333333323,979.1999999999999) translate(0 14.4)"/><path d="M401 1120.25h-2v-14.45h2zm0-36.05h-2v-31.95h2z"/><path d="M401 1052.28h-2v-1.78l1 .75 1-.75zM400 1135.5l-4.64-14.25h9.28z"/><path d="M400 1138.75l-6-18.5h12zm-3.26-16.5l3.26 10.03 3.26-10.03z"/><use xlink:href="#o" transform="matrix(1,0,0,1,381.025,1084.2) translate(0 14.4)"/><path d="M400 1140l80 60-80 60-80-60z" stroke="#000" stroke-width="2" fill="#fff"/><use xlink:href="#g" transform="matrix(1,0,0,1,325,1145) translate(25.32999999999999 59.0875)"/><use xlink:href="#h" transform="matrix(1,0,0,1,325,1145) translate(99.18 59.0875)"/><use xlink:href="#s" transform="matrix(1,0,0,1,325,1145) translate(114.68 59.0875)"/><path d="M504.86 1201h-22.2v-2h22.2zm35.64 0h-4.7v-2h4.7z"/><path d="M482.7 1201h-2.37l1.34-1-1.34-1h2.36zM555.76 1200l-14.26 4.64v-9.28z"/><path d="M559 1200l-18.5 6v-12zm-16.5 3.26l10.03-3.26-10.03-3.26z"/><use xlink:href="#p" transform="matrix(1,0,0,1,504.85833333333323,1189.2) translate(0 14.4)"/><path d="M560 1140h160v120H560z" stroke="#000" stroke-width="2" fill="#fff"/><use xlink:href="#t" transform="matrix(1,0,0,1,565,1145) translate(40.55 59.0875)"/><use xlink:href="#n" transform="matrix(1,0,0,1,565,1145) translate(86.55 59.0875)"/><path d="M400 510l80 60-80 60-80-60z" stroke="#000" stroke-width="2" fill="#fff"/><use xlink:href="#g" transform="matrix(1,0,0,1,325,515) translate(25.32999999999999 59.0875)"/><use xlink:href="#h" transform="matrix(1,0,0,1,325,515) translate(99.18 59.0875)"/><use xlink:href="#u" transform="matrix(1,0,0,1,325,515) translate(114.68 59.0875)"/><path d="M592 510h168l-32 120H560z" stroke="#000" stroke-width="2" fill="#fff"/><use xlink:href="#b" transform="matrix(1,0,0,1,565,515) translate(24.755000000000003 59.0875)"/><use xlink:href="#v" transform="matrix(1,0,0,1,565,515) translate(71.255 59.0875)"/><use xlink:href="#w" transform="matrix(1,0,0,1,565,515) translate(106.255 59.0875)"/><path d="M512.84 571h-30.17v-2h30.17zm43.62 0H543.8v-2h12.66z"/><path d="M482.7 571h-2.37l1.34-1-1.34-1h2.36zM571.73 570l-14.27 4.64v-9.28z"/><path d="M574.97 570l-18.5 6v-12zm-16.5 3.26l10.02-3.26-10.04-3.26z"/><use xlink:href="#p" transform="matrix(1,0,0,1,512.840860843458,559.2) translate(0 14.4)"/><path d="M401 490.25h-2v-4.45h2zm0-26.05h-2v-21.95h2z"/><path d="M401 442.28h-2v-1.78l1 .75 1-.75zM400 505.5l-4.64-14.25h9.28z"/><path d="M400 508.75l-6-18.5h12zm-3.26-16.5l3.26 10.03 3.26-10.03z"/><use xlink:href="#o" transform="matrix(1,0,0,1,381.025,464.2) translate(0 14.4)"/><path d="M401 700.25h-2V685.8h2zm0-36.05h-2v-31.95h2z"/><path d="M401 632.28h-2v-1.78l1 .75 1-.75zM400 715.5l-4.64-14.25h9.28z"/><path d="M400 718.75l-6-18.5h12zm-3.26-16.5l3.26 10.03 3.26-10.03z"/><use xlink:href="#o" transform="matrix(1,0,0,1,381.025,664.2000000000176) translate(0 14.4)"/><path d="M746.03 570h211.5v-.67H1169" stroke="#000" stroke-width="2" fill="none"/><path d="M746.06 571h-1.3l.54-2h.76z"/><path d="M1168.97 569.33h1.03M742 380h427" stroke="#000" stroke-width="2" fill="none"/><path d="M742.03 381H741v-2h1.03z"/><path d="M1168.97 380h1.03" stroke="#000" stroke-width="2" fill="none"/><path d="M400 1350l80 60-80 60-80-60z" stroke="#000" stroke-width="2" fill="#fff"/><use xlink:href="#g" transform="matrix(1,0,0,1,325,1355) translate(25.32999999999999 59.0875)"/><use xlink:href="#h" transform="matrix(1,0,0,1,325,1355) translate(99.18 59.0875)"/><use xlink:href="#x" transform="matrix(1,0,0,1,325,1355) translate(114.68 59.0875)"/><path d="M401 1330.25h-2v-14.45h2zm0-36.05h-2v-31.95h2z"/><path d="M401 1262.28h-2v-1.78l1 .75 1-.75zM400 1345.5l-4.64-14.25h9.28z"/><path d="M400 1348.75l-6-18.5h12zm-3.26-16.5l3.26 10.03 3.26-10.03z"/><use xlink:href="#o" transform="matrix(1,0,0,1,381.025,1294.2) translate(0 14.4)"/><path d="M401 1520.5h-2v-4.58h2zm0-26.17h-2v-22.08h2z"/><path d="M401 1472.28h-2v-1.78l1 .75 1-.75zM400 1535.76l-4.64-14.26h9.28z"/><path d="M400 1539l-6-18.5h12zm-3.26-16.5l3.26 10.03 3.26-10.03z"/><use xlink:href="#p" transform="matrix(1,0,0,1,384.525,1494.325) translate(0 14.4)"/><path d="M352 1540h128l-32 120H320z" stroke="#000" stroke-width="2" fill="#fff"/><use xlink:href="#b" transform="matrix(1,0,0,1,325,1545) translate(41.754999999999995 48.775)"/><use xlink:href="#y" transform="matrix(1,0,0,1,325,1545) translate(88.255 48.775)"/><use xlink:href="#z" transform="matrix(1,0,0,1,325,1545) translate(26.654999999999994 70.375)"/><use xlink:href="#A" transform="matrix(1,0,0,1,325,1545) translate(82.005 70.375)"/><path d="M499.34 1411h-16.67v-2h16.67z"/><path d="M482.7 1411h-2.37l1.34-1-1.34-1h2.36zM551.73 1410l-14.27 4.64v-9.28z"/><path d="M554.97 1410l-17.68 5.74v-11.48zm-16.5 3.26l10.02-3.26-10.04-3.26z"/><g><use xlink:href="#o" transform="matrix(1,0,0,1,499.340860843458,1399.2) translate(0 14.4)"/></g><path d="M572 1350h168l-32 120H540z" stroke="#000" stroke-width="2" fill="#fff"/><g><use xlink:href="#B" transform="matrix(1,0,0,1,545,1355) translate(16.955000000000005 59.0875)"/><use xlink:href="#C" transform="matrix(1,0,0,1,545,1355) translate(58.855000000000004 59.0875)"/><use xlink:href="#D" transform="matrix(1,0,0,1,545,1355) translate(70.205 59.0875)"/><use xlink:href="#E" transform="matrix(1,0,0,1,545,1355) translate(127.755 59.0875)"/></g><path d="M1171 1411H726.03v-2H1169V241H238.74v-2H1171z"/><path d="M726.06 1411h-1.3l.54-2h.76zM237.74 244.64L223.47 240l14.27-4.64z"/><path d="M238.74 246l-18.5-6 18.5-6zm-12.03-6l10.04 3.26v-6.52z"/><path d="M400 1662v38.5" stroke="#000" stroke-width="2" fill="none"/><path d="M401 1662.03h-2V1661h2z"/><path d="M400 1715.76l-4.64-14.26h9.28z" stroke="#000" stroke-width="2"/><path d="M440 1760c0 22.1-17.9 40-40 40s-40-17.9-40-40 17.9-40 40-40 40 17.9 40 40z" stroke="#000" stroke-width="2" fill="#ff8f80"/><g><use xlink:href="#F" transform="matrix(1,0,0,1,365,1725) translate(19 38.4625)"/></g><path d="M722 780h223.5v-.27H1169" stroke="#000" stroke-width="2" fill="none"/><path d="M722.03 781H721v-2h1.03z"/><path d="M1168.97 779.73h1.03M722 990h223.5v.4H1169" stroke="#000" stroke-width="2" fill="none"/><path d="M722.03 991H721v-2h1.03z"/><path d="M1168.97 990.4h1.03M722 1200h426v-.53h21" stroke="#000" stroke-width="2" fill="none"/><path d="M722.03 1201H721v-2h1.03z"/><path d="M1168.97 1199.47h1.03" stroke="#000" stroke-width="2" fill="none"/><path d="M1360 40h460v160h-460z" stroke="#000" stroke-width="2" fill="#99d2f2"/><g><use xlink:href="#G" transform="matrix(1,0,0,1,1365,45) translate(113.33333333333334 82.27083333333334)"/><use xlink:href="#H" transform="matrix(1,0,0,1,1365,45) translate(215.4074074074074 82.27083333333334)"/><use xlink:href="#I" transform="matrix(1,0,0,1,1365,45) translate(270.0740740740741 82.27083333333334)"/></g><defs><path d="M185-189c-5-48-123-54-124 2 14 75 158 14 163 119 3 78-121 87-175 55-17-10-28-26-33-46l33-7c5 56 141 63 141-1 0-78-155-14-162-118-5-82 145-84 179-34 5 7 8 16 11 25" id="J"/><path d="M59-47c-2 24 18 29 38 22v24C64 9 27 4 27-40v-127H5v-23h24l9-43h21v43h35v23H59v120" id="K"/><path d="M141-36C126-15 110 5 73 4 37 3 15-17 15-53c-1-64 63-63 125-63 3-35-9-54-41-54-24 1-41 7-42 31l-33-3c5-37 33-52 76-52 45 0 72 20 72 64v82c-1 20 7 32 28 27v20c-31 9-61-2-59-35zM48-53c0 20 12 33 32 33 41-3 63-29 60-74-43 2-92-5-92 41" id="L"/><path d="M114-163C36-179 61-72 57 0H25l-1-190h30c1 12-1 29 2 39 6-27 23-49 58-41v29" id="M"/><g id="a"><use transform="matrix(0.05,0,0,0.05,0,0)" xlink:href="#J"/><use transform="matrix(0.05,0,0,0.05,12,0)" xlink:href="#K"/><use transform="matrix(0.05,0,0,0.05,17,0)" xlink:href="#L"/><use transform="matrix(0.05,0,0,0.05,27,0)" xlink:href="#M"/><use transform="matrix(0.05,0,0,0.05,32.95,0)" xlink:href="#K"/></g><path d="M266 0h-40l-56-210L115 0H75L2-248h35L96-30l15-64 43-154h32l59 218 59-218h35" id="N"/><path d="M24-231v-30h32v30H24zM24 0v-190h32V0H24" id="O"/><path d="M100-194c63 0 86 42 84 106H49c0 40 14 67 53 68 26 1 43-12 49-29l28 8c-11 28-37 45-77 45C44 4 14-33 15-96c1-61 26-98 85-98zm52 81c6-60-76-77-97-28-3 7-6 17-6 28h103" id="P"/><g id="b"><use transform="matrix(0.05,0,0,0.05,0,0)" xlink:href="#N"/><use transform="matrix(0.05,0,0,0.05,16.599999999999998,0)" xlink:href="#M"/><use transform="matrix(0.05,0,0,0.05,22.549999999999997,0)" xlink:href="#O"/><use transform="matrix(0.05,0,0,0.05,26.499999999999996,0)" xlink:href="#K"/><use transform="matrix(0.05,0,0,0.05,31.499999999999996,0)" xlink:href="#P"/></g><path d="M100-194c62-1 85 37 85 99 1 63-27 99-86 99S16-35 15-95c0-66 28-99 85-99zM99-20c44 1 53-31 53-75 0-43-8-75-51-75s-53 32-53 75 10 74 51 75" id="Q"/><path d="M84 4C-5 8 30-112 23-190h32v120c0 31 7 50 39 49 72-2 45-101 50-169h31l1 190h-30c-1-10 1-25-2-33-11 22-28 36-60 37" id="R"/><g id="c"><use transform="matrix(0.05,0,0,0.05,0,0)" xlink:href="#Q"/><use transform="matrix(0.05,0,0,0.05,10,0)" xlink:href="#R"/><use transform="matrix(0.05,0,0,0.05,20,0)" xlink:href="#K"/></g><path d="M115-194c55 1 70 41 70 98S169 2 115 4C84 4 66-9 55-30l1 105H24l-1-265h31l2 30c10-21 28-34 59-34zm-8 174c40 0 45-34 45-75s-6-73-45-74c-42 0-51 32-51 76 0 43 10 73 51 73" id="S"/><path d="M117-194c89-4 53 116 60 194h-32v-121c0-31-8-49-39-48C34-167 62-67 57 0H25l-1-190h30c1 10-1 24 2 32 11-22 29-35 61-36" id="T"/><path d="M135-143c-3-34-86-38-87 0 15 53 115 12 119 90S17 21 10-45l28-5c4 36 97 45 98 0-10-56-113-15-118-90-4-57 82-63 122-42 12 7 21 19 24 35" id="U"/><g id="d"><use transform="matrix(0.05,0,0,0.05,0,0)" xlink:href="#Q"/><use transform="matrix(0.05,0,0,0.05,10,0)" xlink:href="#S"/><use transform="matrix(0.05,0,0,0.05,20,0)" xlink:href="#K"/><use transform="matrix(0.05,0,0,0.05,25,0)" xlink:href="#O"/><use transform="matrix(0.05,0,0,0.05,28.950000000000003,0)" xlink:href="#Q"/><use transform="matrix(0.05,0,0,0.05,38.95,0)" xlink:href="#T"/><use transform="matrix(0.05,0,0,0.05,48.95,0)" xlink:href="#U"/></g><path d="M210-169c-67 3-38 105-44 169h-31v-121c0-29-5-50-35-48C34-165 62-65 56 0H25l-1-190h30c1 10-1 24 2 32 10-44 99-50 107 0 11-21 27-35 58-36 85-2 47 119 55 194h-31v-121c0-29-5-49-35-48" id="V"/><path d="M33 0v-38h34V0H33" id="W"/><g id="e"><use transform="matrix(0.05,0,0,0.05,0,0)" xlink:href="#V"/><use transform="matrix(0.05,0,0,0.05,14.950000000000001,0)" xlink:href="#P"/><use transform="matrix(0.05,0,0,0.05,24.950000000000003,0)" xlink:href="#T"/><use transform="matrix(0.05,0,0,0.05,34.95,0)" xlink:href="#R"/><use transform="matrix(0.05,0,0,0.05,44.95,0)" xlink:href="#W"/></g><path d="M30-248c118-7 216 8 213 122C240-48 200 0 122 0H30v-248zM63-27c89 8 146-16 146-99s-60-101-146-95v194" id="X"/><path d="M96-169c-40 0-48 33-48 73s9 75 48 75c24 0 41-14 43-38l32 2c-6 37-31 61-74 61-59 0-76-41-82-99-10-93 101-131 147-64 4 7 5 14 7 22l-32 3c-4-21-16-35-41-35" id="Y"/><g id="g"><use transform="matrix(0.05,0,0,0.05,0,0)" xlink:href="#X"/><use transform="matrix(0.05,0,0,0.05,12.950000000000001,0)" xlink:href="#P"/><use transform="matrix(0.05,0,0,0.05,22.950000000000003,0)" xlink:href="#Y"/><use transform="matrix(0.05,0,0,0.05,31.950000000000003,0)" xlink:href="#O"/><use transform="matrix(0.05,0,0,0.05,35.900000000000006,0)" xlink:href="#U"/><use transform="matrix(0.05,0,0,0.05,44.900000000000006,0)" xlink:href="#O"/><use transform="matrix(0.05,0,0,0.05,48.85000000000001,0)" xlink:href="#Q"/><use transform="matrix(0.05,0,0,0.05,58.85,0)" xlink:href="#T"/></g><path d="M18-150v-26h174v26H18zm0 90v-26h174v26H18" id="Z"/><use transform="matrix(0.05,0,0,0.05,0,0)" xlink:href="#Z" id="h"/><use transform="matrix(0.05,0,0,0.05,0,0)" xlink:href="#Q" id="i"/><path d="M115-194c53 0 69 39 70 98 0 66-23 100-70 100C84 3 66-7 56-30L54 0H23l1-261h32v101c10-23 28-34 59-34zm-8 174c40 0 45-34 45-75 0-40-5-75-45-74-42 0-51 32-51 76 0 43 10 73 51 73" id="aa"/><use transform="matrix(0.05,0,0,0.05,0,0)" xlink:href="#aa" id="j"/><use transform="matrix(0.05,0,0,0.05,0,0)" xlink:href="#Y" id="k"/><path d="M140-251c81 0 123 46 123 126C263-46 219 4 140 4 59 4 17-45 17-125s42-126 123-126zm0 227c63 0 89-41 89-101s-29-99-89-99c-61 0-89 39-89 99S79-25 140-24" id="ab"/><g id="l"><use transform="matrix(0.05,0,0,0.05,0,0)" xlink:href="#ab"/><use transform="matrix(0.05,0,0,0.05,14,0)" xlink:href="#S"/><use transform="matrix(0.05,0,0,0.05,24,0)" xlink:href="#P"/><use transform="matrix(0.05,0,0,0.05,34,0)" xlink:href="#T"/></g><use transform="matrix(0.05,0,0,0.05,0,0)" xlink:href="#L" id="m"/><path d="M101-234c-31-9-42 10-38 44h38v23H63V0H32v-167H5v-23h27c-7-52 17-82 69-68v24" id="ac"/><path d="M24 0v-261h32V0H24" id="ad"/><g id="n"><use transform="matrix(0.05,0,0,0.05,0,0)" xlink:href="#ac"/><use transform="matrix(0.05,0,0,0.05,5,0)" xlink:href="#O"/><use transform="matrix(0.05,0,0,0.05,8.95,0)" xlink:href="#ad"/><use transform="matrix(0.05,0,0,0.05,12.899999999999999,0)" xlink:href="#P"/></g><g id="o"><use transform="matrix(0.05,0,0,0.05,0,0)" xlink:href="#ac"/><use transform="matrix(0.05,0,0,0.05,5,0)" xlink:href="#L"/><use transform="matrix(0.05,0,0,0.05,15,0)" xlink:href="#ad"/><use transform="matrix(0.05,0,0,0.05,18.95,0)" xlink:href="#U"/><use transform="matrix(0.05,0,0,0.05,27.950000000000003,0)" xlink:href="#P"/></g><g id="p"><use transform="matrix(0.05,0,0,0.05,0,0)" xlink:href="#K"/><use transform="matrix(0.05,0,0,0.05,5,0)" xlink:href="#M"/><use transform="matrix(0.05,0,0,0.05,10.95,0)" xlink:href="#R"/><use transform="matrix(0.05,0,0,0.05,20.95,0)" xlink:href="#P"/></g><path d="M177-190C167-65 218 103 67 71c-23-6-38-20-44-43l32-5c15 47 100 32 89-28v-30C133-14 115 1 83 1 29 1 15-40 15-95c0-56 16-97 71-98 29-1 48 16 59 35 1-10 0-23 2-32h30zM94-22c36 0 50-32 50-73 0-42-14-75-50-75-39 0-46 34-46 75s6 73 46 73" id="ae"/><g id="q"><use transform="matrix(0.05,0,0,0.05,0,0)" xlink:href="#J"/><use transform="matrix(0.05,0,0,0.05,12,0)" xlink:href="#Q"/><use transform="matrix(0.05,0,0,0.05,22,0)" xlink:href="#M"/><use transform="matrix(0.05,0,0,0.05,27.950000000000003,0)" xlink:href="#K"/><use transform="matrix(0.05,0,0,0.05,32.95,0)" xlink:href="#P"/><use transform="matrix(0.05,0,0,0.05,42.95,0)" xlink:href="#M"/><use transform="matrix(0.05,0,0,0.05,48.900000000000006,0)" xlink:href="#O"/><use transform="matrix(0.05,0,0,0.05,52.85,0)" xlink:href="#T"/><use transform="matrix(0.05,0,0,0.05,62.85,0)" xlink:href="#ae"/></g><path d="M106-169C34-169 62-67 57 0H25v-261h32l-1 103c12-21 28-36 61-36 89 0 53 116 60 194h-32v-121c2-32-8-49-39-48" id="af"/><g id="r"><use transform="matrix(0.05,0,0,0.05,0,0)" xlink:href="#U"/><use transform="matrix(0.05,0,0,0.05,9,0)" xlink:href="#P"/><use transform="matrix(0.05,0,0,0.05,19,0)" xlink:href="#L"/><use transform="matrix(0.05,0,0,0.05,29,0)" xlink:href="#M"/><use transform="matrix(0.05,0,0,0.05,34.95,0)" xlink:href="#Y"/><use transform="matrix(0.05,0,0,0.05,43.95,0)" xlink:href="#af"/><use transform="matrix(0.05,0,0,0.05,53.95,0)" xlink:href="#O"/><use transform="matrix(0.05,0,0,0.05,57.900000000000006,0)" xlink:href="#T"/><use transform="matrix(0.05,0,0,0.05,67.9,0)" xlink:href="#ae"/></g><path d="M85-194c31 0 48 13 60 33l-1-100h32l1 261h-30c-2-10 0-23-3-31C134-8 116 4 85 4 32 4 16-35 15-94c0-66 23-100 70-100zm9 24c-40 0-46 34-46 75 0 40 6 74 45 74 42 0 51-32 51-76 0-42-9-74-50-73" id="ag"/><use transform="matrix(0.05,0,0,0.05,0,0)" xlink:href="#ag" id="s"/><path d="M108 0H70L1-190h34L89-25l56-165h34" id="ah"/><g id="t"><use transform="matrix(0.05,0,0,0.05,0,0)" xlink:href="#J"/><use transform="matrix(0.05,0,0,0.05,12,0)" xlink:href="#L"/><use transform="matrix(0.05,0,0,0.05,22,0)" xlink:href="#ah"/><use transform="matrix(0.05,0,0,0.05,31,0)" xlink:href="#P"/></g><use transform="matrix(0.05,0,0,0.05,0,0)" xlink:href="#L" id="u"/><g id="v"><use transform="matrix(0.05,0,0,0.05,0,0)" xlink:href="#Q"/><use transform="matrix(0.05,0,0,0.05,10,0)" xlink:href="#R"/><use transform="matrix(0.05,0,0,0.05,20,0)" xlink:href="#K"/></g><g id="w"><use transform="matrix(0.05,0,0,0.05,0,0)" xlink:href="#Y"/><use transform="matrix(0.05,0,0,0.05,9,0)" xlink:href="#Q"/><use transform="matrix(0.05,0,0,0.05,19,0)" xlink:href="#T"/><use transform="matrix(0.05,0,0,0.05,29,0)" xlink:href="#K"/><use transform="matrix(0.05,0,0,0.05,34,0)" xlink:href="#P"/><use transform="matrix(0.05,0,0,0.05,44,0)" xlink:href="#T"/><use transform="matrix(0.05,0,0,0.05,54,0)" xlink:href="#K"/></g><use transform="matrix(0.05,0,0,0.05,0,0)" xlink:href="#P" id="x"/><g id="y"><use transform="matrix(0.05,0,0,0.05,0,0)" xlink:href="#Q"/><use transform="matrix(0.05,0,0,0.05,10,0)" xlink:href="#R"/><use transform="matrix(0.05,0,0,0.05,20,0)" xlink:href="#K"/></g><path d="M109-170H84l-4-78h32zm-65 0H19l-4-78h33" id="ai"/><path d="M143 4C61 4 22-44 18-125c-5-107 100-154 193-111 17 8 29 25 37 43l-32 9c-13-25-37-40-76-40-61 0-88 39-88 99 0 61 29 100 91 101 35 0 62-11 79-27v-45h-74v-28h105v86C228-13 192 4 143 4" id="aj"/><g id="z"><use transform="matrix(0.05,0,0,0.05,0,0)" xlink:href="#ai"/><use transform="matrix(0.05,0,0,0.05,6.3500000000000005,0)" xlink:href="#aj"/><use transform="matrix(0.05,0,0,0.05,20.35,0)" xlink:href="#Q"/><use transform="matrix(0.05,0,0,0.05,30.35,0)" xlink:href="#Q"/><use transform="matrix(0.05,0,0,0.05,40.35,0)" xlink:href="#ag"/></g><path d="M179-190L93 31C79 59 56 82 12 73V49c39 6 53-20 64-50L1-190h34L92-34l54-156h33" id="ak"/><g id="A"><use transform="matrix(0.05,0,0,0.05,0,0)" xlink:href="#aa"/><use transform="matrix(0.05,0,0,0.05,10,0)" xlink:href="#ak"/><use transform="matrix(0.05,0,0,0.05,19,0)" xlink:href="#P"/><use transform="matrix(0.05,0,0,0.05,29,0)" xlink:href="#ai"/></g><path d="M30-248c87 1 191-15 191 75 0 78-77 80-158 76V0H30v-248zm33 125c57 0 124 11 124-50 0-59-68-47-124-48v98" id="al"/><g id="B"><use transform="matrix(0.05,0,0,0.05,0,0)" xlink:href="#al"/><use transform="matrix(0.05,0,0,0.05,12,0)" xlink:href="#M"/><use transform="matrix(0.05,0,0,0.05,17.95,0)" xlink:href="#O"/><use transform="matrix(0.05,0,0,0.05,21.9,0)" xlink:href="#T"/><use transform="matrix(0.05,0,0,0.05,31.899999999999995,0)" xlink:href="#K"/></g><use transform="matrix(0.05,0,0,0.05,0,0)" xlink:href="#ai" id="C"/><g id="D"><use transform="matrix(0.05,0,0,0.05,0,0)" xlink:href="#N"/><use transform="matrix(0.05,0,0,0.05,16.599999999999998,0)" xlink:href="#M"/><use transform="matrix(0.05,0,0,0.05,22.549999999999997,0)" xlink:href="#Q"/><use transform="matrix(0.05,0,0,0.05,32.55,0)" xlink:href="#T"/><use transform="matrix(0.05,0,0,0.05,42.55,0)" xlink:href="#ae"/></g><g id="E"><use transform="matrix(0.05,0,0,0.05,0,0)" xlink:href="#O"/><use transform="matrix(0.05,0,0,0.05,3.95,0)" xlink:href="#T"/><use transform="matrix(0.05,0,0,0.05,13.949999999999998,0)" xlink:href="#S"/><use transform="matrix(0.05,0,0,0.05,23.95,0)" xlink:href="#R"/><use transform="matrix(0.05,0,0,0.05,33.95,0)" xlink:href="#K"/><use transform="matrix(0.05,0,0,0.05,38.95,0)" xlink:href="#ai"/></g><path d="M30 0v-248h187v28H63v79h144v27H63v87h162V0H30" id="am"/><g id="F"><use transform="matrix(0.05,0,0,0.05,0,0)" xlink:href="#am"/><use transform="matrix(0.05,0,0,0.05,12,0)" xlink:href="#T"/><use transform="matrix(0.05,0,0,0.05,22,0)" xlink:href="#ag"/></g><g id="G"><use transform="matrix(0.07407407407407408,0,0,0.07407407407407408,0,0)" xlink:href="#aj"/><use transform="matrix(0.07407407407407408,0,0,0.07407407407407408,20.740740740740744,0)" xlink:href="#P"/><use transform="matrix(0.07407407407407408,0,0,0.07407407407407408,35.55555555555556,0)" xlink:href="#T"/><use transform="matrix(0.07407407407407408,0,0,0.07407407407407408,50.370370370370374,0)" xlink:href="#P"/><use transform="matrix(0.07407407407407408,0,0,0.07407407407407408,65.18518518518519,0)" xlink:href="#M"/><use transform="matrix(0.07407407407407408,0,0,0.07407407407407408,74,0)" xlink:href="#L"/><use transform="matrix(0.07407407407407408,0,0,0.07407407407407408,88.81481481481481,0)" xlink:href="#ad"/></g><path d="M206 0h-36l-40-164L89 0H53L-1-190h32L70-26l43-164h34l41 164 42-164h31" id="an"/><g id="H"><use transform="matrix(0.07407407407407408,0,0,0.07407407407407408,0,0)" xlink:href="#ac"/><use transform="matrix(0.07407407407407408,0,0,0.07407407407407408,7.407407407407408,0)" xlink:href="#ad"/><use transform="matrix(0.07407407407407408,0,0,0.07407407407407408,13.259259259259261,0)" xlink:href="#Q"/><use transform="matrix(0.07407407407407408,0,0,0.07407407407407408,28.074074074074076,0)" xlink:href="#an"/></g><g id="I"><use transform="matrix(0.07407407407407408,0,0,0.07407407407407408,0,0)" xlink:href="#Y"/><use transform="matrix(0.07407407407407408,0,0,0.07407407407407408,13.333333333333336,0)" xlink:href="#af"/><use transform="matrix(0.07407407407407408,0,0,0.07407407407407408,28.148148148148152,0)" xlink:href="#L"/><use transform="matrix(0.07407407407407408,0,0,0.07407407407407408,42.96296296296297,0)" xlink:href="#M"/><use transform="matrix(0.07407407407407408,0,0,0.07407407407407408,51.777777777777786,0)" xlink:href="#K"/><use transform="matrix(0.07407407407407408,0,0,0.07407407407407408,59.18518518518519,0)" xlink:href="#W"/></g></defs></g></svg>