<svg xmlns="http://www.w3.org/2000/svg" xmlns:xlink="http://www.w3.org/1999/xlink" xmlns:lucid="lucid" width="1758.4" height="1206"><g transform="translate(-100 -12)" lucid:page-tab-id="8q9JwswaDnW0"><path d="M0 0h1870.4v1323.2H0z" fill="#fff"/><path d="M120 493.5h320v392H120z" stroke="#000" stroke-width="2" fill="#fff"/><path d="M120 531.1h320M120 643.3h320" stroke="#000" stroke-width="2" fill="none"/><use xlink:href="#a" transform="matrix(1,0,0,1,128,501.5) translate(107.55 14.6)"/><use xlink:href="#b" transform="matrix(1,0,0,1,132,539.1) translate(0 41.3)"/><use xlink:href="#c" transform="matrix(1,0,0,1,132,539.1) translate(0 62.9)"/><use xlink:href="#d" transform="matrix(1,0,0,1,132,539.1) translate(47.849999999999994 62.9)"/><use xlink:href="#e" transform="matrix(1,0,0,1,132,651.3000000000001) translate(0 41.00000000000001)"/><use xlink:href="#f" transform="matrix(1,0,0,1,132,651.3000000000001) translate(0 62.60000000000001)"/><use xlink:href="#g" transform="matrix(1,0,0,1,132,651.3000000000001) translate(0 84.20000000000002)"/><use xlink:href="#h" transform="matrix(1,0,0,1,132,651.3000000000001) translate(0 105.80000000000003)"/><use xlink:href="#i" transform="matrix(1,0,0,1,132,651.3000000000001) translate(0 127.40000000000002)"/><use xlink:href="#j" transform="matrix(1,0,0,1,132,651.3000000000001) translate(0 149.00000000000003)"/><use xlink:href="#k" transform="matrix(1,0,0,1,132,651.3000000000001) translate(178.64999999999998 149.00000000000003)"/><use xlink:href="#l" transform="matrix(1,0,0,1,132,651.3000000000001) translate(0 170.6)"/><use xlink:href="#m" transform="matrix(1,0,0,1,132,651.3000000000001) translate(0 192.20000000000002)"/><path d="M810 60h360v286H810z" stroke="#000" stroke-width="2" fill="#fff"/><path d="M810 97.6h360m-360 80.8h360" stroke="#000" stroke-width="2" fill="none"/><use xlink:href="#n" transform="matrix(1,0,0,1,818,68) translate(141.1 14.6)"/><use xlink:href="#o" transform="matrix(1,0,0,1,822,105.6) translate(0 14.500000000000002)"/><use xlink:href="#p" transform="matrix(1,0,0,1,822,105.6) translate(10.95 14.500000000000002)"/><use xlink:href="#q" transform="matrix(1,0,0,1,822,105.6) translate(65.9 14.500000000000002)"/><use xlink:href="#r" transform="matrix(1,0,0,1,822,105.6) translate(75.9 14.500000000000002)"/><use xlink:href="#o" transform="matrix(1,0,0,1,822,105.6) translate(0 36.1)"/><use xlink:href="#s" transform="matrix(1,0,0,1,822,105.6) translate(10.95 36.1)"/><use xlink:href="#q" transform="matrix(1,0,0,1,822,105.6) translate(60.900000000000006 36.1)"/><use xlink:href="#t" transform="matrix(1,0,0,1,822,105.6) translate(70.9 36.1)"/><use xlink:href="#o" transform="matrix(1,0,0,1,822,105.6) translate(0 57.7)"/><use xlink:href="#u" transform="matrix(1,0,0,1,822,105.6) translate(10.95 57.7)"/><use xlink:href="#q" transform="matrix(1,0,0,1,822,105.6) translate(74.95 57.7)"/><use xlink:href="#v" transform="matrix(1,0,0,1,822,105.6) translate(84.95 57.7)"/><use xlink:href="#w" transform="matrix(1,0,0,1,822,186.39999999999998) translate(0 14.800000000000006)"/><use xlink:href="#x" transform="matrix(1,0,0,1,822,186.39999999999998) translate(0 36.400000000000006)"/><use xlink:href="#y" transform="matrix(1,0,0,1,822,186.39999999999998) translate(0 58.00000000000001)"/><use xlink:href="#z" transform="matrix(1,0,0,1,822,186.39999999999998) translate(0 79.60000000000002)"/><use xlink:href="#A" transform="matrix(1,0,0,1,822,186.39999999999998) translate(0 101.20000000000002)"/><use xlink:href="#B" transform="matrix(1,0,0,1,822,186.39999999999998) translate(0 122.80000000000001)"/><use xlink:href="#C" transform="matrix(1,0,0,1,822,186.39999999999998) translate(0 144.4)"/><path d="M752.5 558h475v263h-475z" stroke="#000" stroke-width="2" fill="#fff"/><path d="M752.5 617.2h475" stroke="#000" stroke-width="2" fill="none"/><use xlink:href="#D" transform="matrix(1,0,0,1,760.5,566) translate(171.075 14.799999999999999)"/><use xlink:href="#E" transform="matrix(1,0,0,1,760.5,566) translate(211.55 36.4)"/><use xlink:href="#F" transform="matrix(1,0,0,1,764.5,625.2) translate(0 65.19999999999999)"/><use xlink:href="#G" transform="matrix(1,0,0,1,764.5,625.2) translate(0 86.8)"/><use xlink:href="#H" transform="matrix(1,0,0,1,764.5,625.2) translate(0 108.4)"/><use xlink:href="#I" transform="matrix(1,0,0,1,764.5,625.2) translate(0 130)"/><use xlink:href="#J" transform="matrix(1,0,0,1,764.5,625.2) translate(252.99999999999997 130)"/><path d="M1398.4 615.5H1780v170h-381.6z" stroke="#000" stroke-width="2" fill="#fff"/><path d="M1398.4 674.7H1780" stroke="#000" stroke-width="2" fill="none"/><g><use xlink:href="#D" transform="matrix(1,0,0,1,1406.3999999999999,623.5) translate(124.57499999999999 14.799999999999999)"/><use xlink:href="#K" transform="matrix(1,0,0,1,1406.3999999999999,623.5) translate(153.025 36.4)"/></g><g><use xlink:href="#L" transform="matrix(1,0,0,1,1410.3999999999999,682.7) translate(0 40.3)"/><use xlink:href="#M" transform="matrix(1,0,0,1,1410.3999999999999,682.7) translate(15.5 40.3)"/><use xlink:href="#N" transform="matrix(1,0,0,1,1410.3999999999999,682.7) translate(74.45 40.3)"/><use xlink:href="#O" transform="matrix(1,0,0,1,1410.3999999999999,682.7) translate(0 61.9)"/><use xlink:href="#P" transform="matrix(1,0,0,1,1410.3999999999999,682.7) translate(69.45 61.9)"/></g><path d="M990 348v10.58m0 10.6v21.15m0 10.6v21.15m0 10.6v21.15m0 10.6v21.15m0 10.6v21.15m0 10.58v10.6" stroke="#000" stroke-width="2" fill="none"/><path d="M991 348.03h-2V347h2z"/><path d="M990 553.76l-4.64-14.26h9.28z" stroke="#000" stroke-width="2"/><path d="M990 348v10.1m0 10.07v20.17m0 10.1v20.16m0 10.1v20.16m0 10.08v20.17m8.45 1.65h20.17m10.1 0h20.16m10.08 0h20.18m10.08 0h20.17m10.08 0h20.17m10.1 0h20.16m10.1 0h20.16m10.1 0h20.16m10.1 0h20.16m10.08 0h20.17m10.1 0h20.16m10.08 0h20.17m10.08 0h20.18m10.1 0h20.16m10.1 0h20.16m10.1 0h20.16m10.08 0h20.17m10.1 0h20.16m10.08 0h20.17m10.08 0h15.87v4.3m0 10.1v20.16m0 10.1v20.17m0 10.1v20.16m0 10.08V596" stroke="#000" stroke-width="2" fill="none"/><path d="M991 348.03h-2V347h2z"/><path d="M1589.2 611.26l-4.64-14.26h9.28z" stroke="#000" stroke-width="2"/><path d="M442 689.5h9.7m9.7 0h19.4m9.7 0h19.4m9.7 0H539m9.7 0h19.4m9.7 0h19.4m9.7 0h19.4m9.7 0h19.4m9.7 0h19.4m9.7 0h19.4m9.7 0h9.7" stroke="#000" stroke-width="2" fill="none"/><path d="M442.03 690.5H441v-2h1.03z"/><path d="M748.26 689.5L734 694.14v-9.28z" stroke="#000" stroke-width="2"/><path d="M808 203H280v288.5" stroke="#000" stroke-width="2" fill="none"/><path d="M809 204h-1.03v-2H809zM281 492.5h-2v-1.03h2z"/><g><use xlink:href="#Q" transform="matrix(1,0,0,1,782.5,177.39999999999998) translate(0 14.4)"/></g><g><use xlink:href="#R" transform="matrix(1,0,0,1,288,471.6999999999997) translate(0 14.4)"/></g><path d="M752.5 940h475v258h-475z" stroke="#000" stroke-width="2" fill="#fff"/><path d="M752.5 999.2h475" stroke="#000" stroke-width="2" fill="none"/><g><use xlink:href="#D" transform="matrix(1,0,0,1,760.5,948) translate(171.075 14.799999999999999)"/><use xlink:href="#S" transform="matrix(1,0,0,1,760.5,948) translate(197.075 36.4)"/></g><g><use xlink:href="#T" transform="matrix(1,0,0,1,764.5,1007.2) translate(0 73.5)"/><use xlink:href="#U" transform="matrix(1,0,0,1,764.5,1007.2) translate(159.29999999999998 73.5)"/><use xlink:href="#V" transform="matrix(1,0,0,1,764.5,1007.2) translate(181.29999999999998 73.5)"/><use xlink:href="#W" transform="matrix(1,0,0,1,764.5,1007.2) translate(233.2 73.5)"/><use xlink:href="#X" transform="matrix(1,0,0,1,764.5,1007.2) translate(0 95.10000000000001)"/><use xlink:href="#Y" transform="matrix(1,0,0,1,764.5,1007.2) translate(0 116.70000000000002)"/></g><path d="M990 823v97.5" stroke="#000" stroke-width="2" fill="none"/><path d="M991 823.03h-2V822h2z"/><path d="M990 935.76l-4.64-14.26h9.28z" stroke="#000" stroke-width="2"/><path d="M1589.2 787.5V1069H1247" stroke="#000" stroke-width="2" fill="none"/><path d="M1590.2 787.53h-2v-1.03h2z"/><path d="M1231.74 1069l14.26-4.64v9.28z" stroke="#000" stroke-width="2"/><path d="M1378.4 32h460v160h-460z" stroke="#000" stroke-width="2" fill="#99d2f2"/><g><use xlink:href="#Z" transform="matrix(1,0,0,1,1383.3999999999999,37) translate(141.96296296296293 82.27083333333334)"/><use xlink:href="#aa" transform="matrix(1,0,0,1,1383.3999999999999,37) translate(204.55555555555554 82.27083333333334)"/></g><defs><path d="M127-220V0H93v-220H8v-28h204v28h-85" id="ab"/><path d="M100-194c63 0 86 42 84 106H49c0 40 14 67 53 68 26 1 43-12 49-29l28 8c-11 28-37 45-77 45C44 4 14-33 15-96c1-61 26-98 85-98zm52 81c6-60-76-77-97-28-3 7-6 17-6 28h103" id="ac"/><path d="M141 0L90-78 38 0H4l68-98-65-92h35l48 74 47-74h35l-64 92 68 98h-35" id="ad"/><path d="M59-47c-2 24 18 29 38 22v24C64 9 27 4 27-40v-127H5v-23h24l9-43h21v43h35v23H59v120" id="ae"/><path d="M30 0v-248h187v28H63v79h144v27H63v87h162V0H30" id="af"/><path d="M117-194c89-4 53 116 60 194h-32v-121c0-31-8-49-39-48C34-167 62-67 57 0H25l-1-190h30c1 10-1 24 2 32 11-22 29-35 61-36" id="ag"/><path d="M177-190C167-65 218 103 67 71c-23-6-38-20-44-43l32-5c15 47 100 32 89-28v-30C133-14 115 1 83 1 29 1 15-40 15-95c0-56 16-97 71-98 29-1 48 16 59 35 1-10 0-23 2-32h30zM94-22c36 0 50-32 50-73 0-42-14-75-50-75-39 0-46 34-46 75s6 73 46 73" id="ah"/><path d="M24-231v-30h32v30H24zM24 0v-190h32V0H24" id="ai"/><g id="a"><use transform="matrix(0.05,0,0,0.05,0,0)" xlink:href="#ab"/><use transform="matrix(0.05,0,0,0.05,8.950000000000001,0)" xlink:href="#ac"/><use transform="matrix(0.05,0,0,0.05,18.950000000000003,0)" xlink:href="#ad"/><use transform="matrix(0.05,0,0,0.05,27.950000000000003,0)" xlink:href="#ae"/><use transform="matrix(0.05,0,0,0.05,32.95,0)" xlink:href="#af"/><use transform="matrix(0.05,0,0,0.05,44.95,0)" xlink:href="#ag"/><use transform="matrix(0.05,0,0,0.05,54.95,0)" xlink:href="#ah"/><use transform="matrix(0.05,0,0,0.05,64.95,0)" xlink:href="#ai"/><use transform="matrix(0.05,0,0,0.05,68.9,0)" xlink:href="#ag"/><use transform="matrix(0.05,0,0,0.05,78.9,0)" xlink:href="#ac"/></g><path d="M16-82v-28h88v28H16" id="aj"/><path d="M135-143c-3-34-86-38-87 0 15 53 115 12 119 90S17 21 10-45l28-5c4 36 97 45 98 0-10-56-113-15-118-90-4-57 82-63 122-42 12 7 21 19 24 35" id="ak"/><path d="M141-36C126-15 110 5 73 4 37 3 15-17 15-53c-1-64 63-63 125-63 3-35-9-54-41-54-24 1-41 7-42 31l-33-3c5-37 33-52 76-52 45 0 72 20 72 64v82c-1 20 7 32 28 27v20c-31 9-61-2-59-35zM48-53c0 20 12 33 32 33 41-3 63-29 60-74-43 2-92-5-92 41" id="al"/><path d="M96-169c-40 0-48 33-48 73s9 75 48 75c24 0 41-14 43-38l32 2c-6 37-31 61-74 61-59 0-76-41-82-99-10-93 101-131 147-64 4 7 5 14 7 22l-32 3c-4-21-16-35-41-35" id="am"/><path d="M33-154v-36h34v36H33zM33 0v-36h34V0H33" id="an"/><g id="b"><use transform="matrix(0.05,0,0,0.05,0,0)" xlink:href="#aj"/><use transform="matrix(0.05,0,0,0.05,5.95,0)" xlink:href="#ai"/><use transform="matrix(0.05,0,0,0.05,9.9,0)" xlink:href="#ag"/><use transform="matrix(0.05,0,0,0.05,19.9,0)" xlink:href="#ak"/><use transform="matrix(0.05,0,0,0.05,28.899999999999995,0)" xlink:href="#ae"/><use transform="matrix(0.05,0,0,0.05,33.9,0)" xlink:href="#al"/><use transform="matrix(0.05,0,0,0.05,43.9,0)" xlink:href="#ag"/><use transform="matrix(0.05,0,0,0.05,53.900000000000006,0)" xlink:href="#am"/><use transform="matrix(0.05,0,0,0.05,62.900000000000006,0)" xlink:href="#ac"/><use transform="matrix(0.05,0,0,0.05,72.9,0)" xlink:href="#an"/><use transform="matrix(0.05,0,0,0.05,77.9,0)" xlink:href="#ab"/><use transform="matrix(0.05,0,0,0.05,86.85000000000001,0)" xlink:href="#ac"/><use transform="matrix(0.05,0,0,0.05,96.85000000000001,0)" xlink:href="#ad"/><use transform="matrix(0.05,0,0,0.05,105.85000000000001,0)" xlink:href="#ae"/><use transform="matrix(0.05,0,0,0.05,110.85000000000001,0)" xlink:href="#af"/><use transform="matrix(0.05,0,0,0.05,122.85000000000001,0)" xlink:href="#ag"/><use transform="matrix(0.05,0,0,0.05,132.85000000000002,0)" xlink:href="#ah"/><use transform="matrix(0.05,0,0,0.05,142.85000000000002,0)" xlink:href="#ai"/><use transform="matrix(0.05,0,0,0.05,146.8,0)" xlink:href="#ag"/><use transform="matrix(0.05,0,0,0.05,156.8,0)" xlink:href="#ac"/><path d="M-.9 1.25h168.6v1.32H-.9z"/></g><path d="M101-234c-31-9-42 10-38 44h38v23H63V0H32v-167H5v-23h27c-7-52 17-82 69-68v24" id="ao"/><path d="M24 0v-261h32V0H24" id="ap"/><g id="c"><use transform="matrix(0.05,0,0,0.05,0,0)" xlink:href="#aj"/><use transform="matrix(0.05,0,0,0.05,5.95,0)" xlink:href="#ao"/><use transform="matrix(0.05,0,0,0.05,10.95,0)" xlink:href="#ai"/><use transform="matrix(0.05,0,0,0.05,14.899999999999999,0)" xlink:href="#ap"/><use transform="matrix(0.05,0,0,0.05,18.849999999999998,0)" xlink:href="#ac"/><use transform="matrix(0.05,0,0,0.05,28.849999999999994,0)" xlink:href="#ak"/><use transform="matrix(0.05,0,0,0.05,37.849999999999994,0)" xlink:href="#an"/></g><path d="M205 0l-28-72H64L36 0H1l101-248h38L239 0h-34zm-38-99l-47-123c-12 45-31 82-46 123h93" id="aq"/><path d="M114-163C36-179 61-72 57 0H25l-1-190h30c1 12-1 29 2 39 6-27 23-49 58-41v29" id="ar"/><path d="M179-190L93 31C79 59 56 82 12 73V49c39 6 53-20 64-50L1-190h34L92-34l54-156h33" id="as"/><path d="M30 0v-248h33v221h125V0H30" id="at"/><path d="M18-100v-36l175-74v27L42-118l151 64v27" id="au"/><path d="M63-220v92h138v28H63V0H30v-248h175v28H63" id="av"/><path d="M18-27v-27l151-64-151-65v-27l175 74v36" id="aw"/><g id="d"><use transform="matrix(0.05,0,0,0.05,0,0)" xlink:href="#aq"/><use transform="matrix(0.05,0,0,0.05,12,0)" xlink:href="#ar"/><use transform="matrix(0.05,0,0,0.05,17.95,0)" xlink:href="#ar"/><use transform="matrix(0.05,0,0,0.05,23.9,0)" xlink:href="#al"/><use transform="matrix(0.05,0,0,0.05,33.9,0)" xlink:href="#as"/><use transform="matrix(0.05,0,0,0.05,42.9,0)" xlink:href="#at"/><use transform="matrix(0.05,0,0,0.05,52.900000000000006,0)" xlink:href="#ai"/><use transform="matrix(0.05,0,0,0.05,56.85,0)" xlink:href="#ak"/><use transform="matrix(0.05,0,0,0.05,65.85,0)" xlink:href="#ae"/><use transform="matrix(0.05,0,0,0.05,70.85,0)" xlink:href="#au"/><use transform="matrix(0.05,0,0,0.05,81.35,0)" xlink:href="#ab"/><use transform="matrix(0.05,0,0,0.05,90.3,0)" xlink:href="#ac"/><use transform="matrix(0.05,0,0,0.05,100.3,0)" xlink:href="#ad"/><use transform="matrix(0.05,0,0,0.05,109.30000000000001,0)" xlink:href="#ae"/><use transform="matrix(0.05,0,0,0.05,114.30000000000001,0)" xlink:href="#av"/><use transform="matrix(0.05,0,0,0.05,125.25,0)" xlink:href="#ai"/><use transform="matrix(0.05,0,0,0.05,129.2,0)" xlink:href="#ap"/><use transform="matrix(0.05,0,0,0.05,133.14999999999998,0)" xlink:href="#ac"/><use transform="matrix(0.05,0,0,0.05,143.14999999999998,0)" xlink:href="#aw"/></g><path d="M118-107v75H92v-75H18v-26h74v-75h26v75h74v26h-74" id="ax"/><path d="M33 0v-248h34V0H33" id="ay"/><path d="M87 75C49 33 22-17 22-94c0-76 28-126 65-167h31c-38 41-64 92-64 168S80 34 118 75H87" id="az"/><path d="M33-261c38 41 65 92 65 168S71 34 33 75H2C39 34 66-17 66-93S39-220 2-261h31" id="aA"/><g id="e"><use transform="matrix(0.05,0,0,0.05,0,0)" xlink:href="#ax"/><use transform="matrix(0.05,0,0,0.05,10.5,0)" xlink:href="#ah"/><use transform="matrix(0.05,0,0,0.05,20.5,0)" xlink:href="#ac"/><use transform="matrix(0.05,0,0,0.05,30.5,0)" xlink:href="#ae"/><use transform="matrix(0.05,0,0,0.05,35.5,0)" xlink:href="#ay"/><use transform="matrix(0.05,0,0,0.05,40.5,0)" xlink:href="#ag"/><use transform="matrix(0.05,0,0,0.05,50.5,0)" xlink:href="#ak"/><use transform="matrix(0.05,0,0,0.05,59.5,0)" xlink:href="#ae"/><use transform="matrix(0.05,0,0,0.05,64.5,0)" xlink:href="#al"/><use transform="matrix(0.05,0,0,0.05,74.5,0)" xlink:href="#ag"/><use transform="matrix(0.05,0,0,0.05,84.5,0)" xlink:href="#am"/><use transform="matrix(0.05,0,0,0.05,93.5,0)" xlink:href="#ac"/><use transform="matrix(0.05,0,0,0.05,103.5,0)" xlink:href="#az"/><use transform="matrix(0.05,0,0,0.05,109.45,0)" xlink:href="#aA"/><use transform="matrix(0.05,0,0,0.05,115.4,0)" xlink:href="#an"/><use transform="matrix(0.05,0,0,0.05,120.4,0)" xlink:href="#ab"/><use transform="matrix(0.05,0,0,0.05,129.35,0)" xlink:href="#ac"/><use transform="matrix(0.05,0,0,0.05,139.35,0)" xlink:href="#ad"/><use transform="matrix(0.05,0,0,0.05,148.35,0)" xlink:href="#ae"/><use transform="matrix(0.05,0,0,0.05,153.35,0)" xlink:href="#af"/><use transform="matrix(0.05,0,0,0.05,165.35,0)" xlink:href="#ag"/><use transform="matrix(0.05,0,0,0.05,175.35,0)" xlink:href="#ah"/><use transform="matrix(0.05,0,0,0.05,185.35,0)" xlink:href="#ai"/><use transform="matrix(0.05,0,0,0.05,189.29999999999998,0)" xlink:href="#ag"/><use transform="matrix(0.05,0,0,0.05,199.29999999999998,0)" xlink:href="#ac"/><path d="M-.9 1.25h211.1v1.32H-.9z"/></g><path d="M108 0H70L1-190h34L89-25l56-165h34" id="aB"/><path d="M100-194c62-1 85 37 85 99 1 63-27 99-86 99S16-35 15-95c0-66 28-99 85-99zM99-20c44 1 53-31 53-75 0-43-8-75-51-75s-53 32-53 75 10 74 51 75" id="aC"/><path d="M85-194c31 0 48 13 60 33l-1-100h32l1 261h-30c-2-10 0-23-3-31C134-8 116 4 85 4 32 4 16-35 15-94c0-66 23-100 70-100zm9 24c-40 0-46 34-46 75 0 40 6 74 45 74 42 0 51-32 51-76 0-42-9-74-50-73" id="aD"/><g id="f"><use transform="matrix(0.05,0,0,0.05,0,0)" xlink:href="#ax"/><use transform="matrix(0.05,0,0,0.05,10.5,0)" xlink:href="#ak"/><use transform="matrix(0.05,0,0,0.05,19.5,0)" xlink:href="#ae"/><use transform="matrix(0.05,0,0,0.05,24.5,0)" xlink:href="#al"/><use transform="matrix(0.05,0,0,0.05,34.5,0)" xlink:href="#ar"/><use transform="matrix(0.05,0,0,0.05,40.45,0)" xlink:href="#ae"/><use transform="matrix(0.05,0,0,0.05,45.45,0)" xlink:href="#az"/><use transform="matrix(0.05,0,0,0.05,51.400000000000006,0)" xlink:href="#aA"/><use transform="matrix(0.05,0,0,0.05,57.35,0)" xlink:href="#an"/><use transform="matrix(0.05,0,0,0.05,62.35,0)" xlink:href="#aB"/><use transform="matrix(0.05,0,0,0.05,71.35000000000001,0)" xlink:href="#aC"/><use transform="matrix(0.05,0,0,0.05,81.35000000000001,0)" xlink:href="#ai"/><use transform="matrix(0.05,0,0,0.05,85.30000000000001,0)" xlink:href="#aD"/></g><path d="M115-194c55 1 70 41 70 98S169 2 115 4C84 4 66-9 55-30l1 105H24l-1-265h31l2 30c10-21 28-34 59-34zm-8 174c40 0 45-34 45-75s-6-73-45-74c-42 0-51 32-51 76 0 43 10 73 51 73" id="aE"/><path d="M185-189c-5-48-123-54-124 2 14 75 158 14 163 119 3 78-121 87-175 55-17-10-28-26-33-46l33-7c5 56 141 63 141-1 0-78-155-14-162-118-5-82 145-84 179-34 5 7 8 16 11 25" id="aF"/><g id="g"><use transform="matrix(0.05,0,0,0.05,0,0)" xlink:href="#aj"/><use transform="matrix(0.05,0,0,0.05,5.95,0)" xlink:href="#aC"/><use transform="matrix(0.05,0,0,0.05,15.949999999999998,0)" xlink:href="#aE"/><use transform="matrix(0.05,0,0,0.05,25.950000000000003,0)" xlink:href="#ac"/><use transform="matrix(0.05,0,0,0.05,35.95,0)" xlink:href="#ag"/><use transform="matrix(0.05,0,0,0.05,45.95,0)" xlink:href="#az"/><use transform="matrix(0.05,0,0,0.05,51.900000000000006,0)" xlink:href="#aF"/><use transform="matrix(0.05,0,0,0.05,63.900000000000006,0)" xlink:href="#ae"/><use transform="matrix(0.05,0,0,0.05,68.9,0)" xlink:href="#ar"/><use transform="matrix(0.05,0,0,0.05,74.85000000000001,0)" xlink:href="#ai"/><use transform="matrix(0.05,0,0,0.05,78.80000000000001,0)" xlink:href="#ag"/><use transform="matrix(0.05,0,0,0.05,88.80000000000001,0)" xlink:href="#ah"/><use transform="matrix(0.05,0,0,0.05,98.80000000000001,0)" xlink:href="#aA"/><use transform="matrix(0.05,0,0,0.05,104.75,0)" xlink:href="#an"/><use transform="matrix(0.05,0,0,0.05,109.75,0)" xlink:href="#aB"/><use transform="matrix(0.05,0,0,0.05,118.75,0)" xlink:href="#aC"/><use transform="matrix(0.05,0,0,0.05,128.75,0)" xlink:href="#ai"/><use transform="matrix(0.05,0,0,0.05,132.7,0)" xlink:href="#aD"/></g><path d="M212-179c-10-28-35-45-73-45-59 0-87 40-87 99 0 60 29 101 89 101 43 0 62-24 78-52l27 14C228-24 195 4 139 4 59 4 22-46 18-125c-6-104 99-153 187-111 19 9 31 26 39 46" id="aG"/><g id="h"><use transform="matrix(0.05,0,0,0.05,0,0)" xlink:href="#aj"/><use transform="matrix(0.05,0,0,0.05,5.95,0)" xlink:href="#ak"/><use transform="matrix(0.05,0,0,0.05,14.949999999999998,0)" xlink:href="#aC"/><use transform="matrix(0.05,0,0,0.05,24.95,0)" xlink:href="#ar"/><use transform="matrix(0.05,0,0,0.05,30.899999999999995,0)" xlink:href="#ae"/><use transform="matrix(0.05,0,0,0.05,35.9,0)" xlink:href="#av"/><use transform="matrix(0.05,0,0,0.05,46.85,0)" xlink:href="#ai"/><use transform="matrix(0.05,0,0,0.05,50.800000000000004,0)" xlink:href="#ap"/><use transform="matrix(0.05,0,0,0.05,54.75,0)" xlink:href="#ac"/><use transform="matrix(0.05,0,0,0.05,64.75,0)" xlink:href="#ak"/><use transform="matrix(0.05,0,0,0.05,73.75,0)" xlink:href="#aG"/><use transform="matrix(0.05,0,0,0.05,86.7,0)" xlink:href="#aC"/><use transform="matrix(0.05,0,0,0.05,96.7,0)" xlink:href="#ag"/><use transform="matrix(0.05,0,0,0.05,106.7,0)" xlink:href="#ae"/><use transform="matrix(0.05,0,0,0.05,111.7,0)" xlink:href="#ac"/><use transform="matrix(0.05,0,0,0.05,121.7,0)" xlink:href="#ag"/><use transform="matrix(0.05,0,0,0.05,131.7,0)" xlink:href="#ae"/><use transform="matrix(0.05,0,0,0.05,136.7,0)" xlink:href="#ak"/><use transform="matrix(0.05,0,0,0.05,145.7,0)" xlink:href="#az"/><use transform="matrix(0.05,0,0,0.05,151.64999999999998,0)" xlink:href="#aA"/><use transform="matrix(0.05,0,0,0.05,157.59999999999997,0)" xlink:href="#an"/><use transform="matrix(0.05,0,0,0.05,162.59999999999997,0)" xlink:href="#aB"/><use transform="matrix(0.05,0,0,0.05,171.59999999999997,0)" xlink:href="#aC"/><use transform="matrix(0.05,0,0,0.05,181.59999999999997,0)" xlink:href="#ai"/><use transform="matrix(0.05,0,0,0.05,185.54999999999995,0)" xlink:href="#aD"/></g><path d="M106-169C34-169 62-67 57 0H25v-261h32l-1 103c12-21 28-36 61-36 89 0 53 116 60 194h-32v-121c2-32-8-49-39-48" id="aH"/><g id="i"><use transform="matrix(0.05,0,0,0.05,0,0)" xlink:href="#aj"/><use transform="matrix(0.05,0,0,0.05,5.95,0)" xlink:href="#ak"/><use transform="matrix(0.05,0,0,0.05,14.949999999999998,0)" xlink:href="#ac"/><use transform="matrix(0.05,0,0,0.05,24.95,0)" xlink:href="#al"/><use transform="matrix(0.05,0,0,0.05,34.95,0)" xlink:href="#ar"/><use transform="matrix(0.05,0,0,0.05,40.900000000000006,0)" xlink:href="#am"/><use transform="matrix(0.05,0,0,0.05,49.900000000000006,0)" xlink:href="#aH"/><use transform="matrix(0.05,0,0,0.05,59.900000000000006,0)" xlink:href="#ay"/><use transform="matrix(0.05,0,0,0.05,64.9,0)" xlink:href="#ag"/><use transform="matrix(0.05,0,0,0.05,74.9,0)" xlink:href="#av"/><use transform="matrix(0.05,0,0,0.05,85.85000000000001,0)" xlink:href="#ai"/><use transform="matrix(0.05,0,0,0.05,89.80000000000001,0)" xlink:href="#ap"/><use transform="matrix(0.05,0,0,0.05,93.75000000000001,0)" xlink:href="#ac"/><use transform="matrix(0.05,0,0,0.05,103.75,0)" xlink:href="#ak"/><use transform="matrix(0.05,0,0,0.05,112.75,0)" xlink:href="#az"/><use transform="matrix(0.05,0,0,0.05,118.7,0)" xlink:href="#aA"/><use transform="matrix(0.05,0,0,0.05,124.65000000000003,0)" xlink:href="#an"/><use transform="matrix(0.05,0,0,0.05,129.65000000000003,0)" xlink:href="#aB"/><use transform="matrix(0.05,0,0,0.05,138.65000000000003,0)" xlink:href="#aC"/><use transform="matrix(0.05,0,0,0.05,148.65000000000003,0)" xlink:href="#ai"/><use transform="matrix(0.05,0,0,0.05,152.60000000000002,0)" xlink:href="#aD"/></g><path d="M233-177c-1 41-23 64-60 70L243 0h-38l-65-103H63V0H30v-248c88 3 205-21 203 71zM63-129c60-2 137 13 137-47 0-61-80-42-137-45v92" id="aI"/><path d="M84 4C-5 8 30-112 23-190h32v120c0 31 7 50 39 49 72-2 45-101 50-169h31l1 190h-30c-1-10 1-25-2-33-11 22-28 36-60 37" id="aJ"/><path d="M26 75v-336h71v23H56V52h41v23H26" id="aK"/><g id="j"><use transform="matrix(0.05,0,0,0.05,0,0)" xlink:href="#aj"/><use transform="matrix(0.05,0,0,0.05,5.95,0)" xlink:href="#ak"/><use transform="matrix(0.05,0,0,0.05,14.949999999999998,0)" xlink:href="#aC"/><use transform="matrix(0.05,0,0,0.05,24.95,0)" xlink:href="#ar"/><use transform="matrix(0.05,0,0,0.05,30.899999999999995,0)" xlink:href="#ae"/><use transform="matrix(0.05,0,0,0.05,35.9,0)" xlink:href="#aF"/><use transform="matrix(0.05,0,0,0.05,47.9,0)" xlink:href="#ac"/><use transform="matrix(0.05,0,0,0.05,57.900000000000006,0)" xlink:href="#al"/><use transform="matrix(0.05,0,0,0.05,67.9,0)" xlink:href="#ar"/><use transform="matrix(0.05,0,0,0.05,73.85000000000001,0)" xlink:href="#am"/><use transform="matrix(0.05,0,0,0.05,82.85000000000001,0)" xlink:href="#aH"/><use transform="matrix(0.05,0,0,0.05,92.85000000000001,0)" xlink:href="#aI"/><use transform="matrix(0.05,0,0,0.05,105.80000000000001,0)" xlink:href="#ac"/><use transform="matrix(0.05,0,0,0.05,115.80000000000001,0)" xlink:href="#ak"/><use transform="matrix(0.05,0,0,0.05,124.80000000000001,0)" xlink:href="#aJ"/><use transform="matrix(0.05,0,0,0.05,134.8,0)" xlink:href="#ap"/><use transform="matrix(0.05,0,0,0.05,138.75,0)" xlink:href="#ae"/><use transform="matrix(0.05,0,0,0.05,143.75,0)" xlink:href="#az"/><use transform="matrix(0.05,0,0,0.05,149.7,0)" xlink:href="#ai"/><use transform="matrix(0.05,0,0,0.05,153.64999999999998,0)" xlink:href="#ag"/><use transform="matrix(0.05,0,0,0.05,163.64999999999998,0)" xlink:href="#ae"/><use transform="matrix(0.05,0,0,0.05,168.64999999999998,0)" xlink:href="#aK"/></g><path d="M3 75V52h41v-290H3v-23h71V75H3" id="aL"/><g id="k"><use transform="matrix(0.05,0,0,0.05,0,0)" xlink:href="#aL"/><use transform="matrix(0.05,0,0,0.05,5,0)" xlink:href="#aA"/><use transform="matrix(0.05,0,0,0.05,10.95,0)" xlink:href="#an"/><use transform="matrix(0.05,0,0,0.05,15.949999999999998,0)" xlink:href="#aF"/><use transform="matrix(0.05,0,0,0.05,27.950000000000003,0)" xlink:href="#ae"/><use transform="matrix(0.05,0,0,0.05,32.95,0)" xlink:href="#ar"/><use transform="matrix(0.05,0,0,0.05,38.900000000000006,0)" xlink:href="#ai"/><use transform="matrix(0.05,0,0,0.05,42.85000000000001,0)" xlink:href="#ag"/><use transform="matrix(0.05,0,0,0.05,52.85,0)" xlink:href="#ah"/></g><g id="l"><use transform="matrix(0.05,0,0,0.05,0,0)" xlink:href="#aj"/><use transform="matrix(0.05,0,0,0.05,5.95,0)" xlink:href="#ah"/><use transform="matrix(0.05,0,0,0.05,15.949999999999998,0)" xlink:href="#ac"/><use transform="matrix(0.05,0,0,0.05,25.950000000000003,0)" xlink:href="#ae"/><use transform="matrix(0.05,0,0,0.05,30.950000000000003,0)" xlink:href="#aG"/><use transform="matrix(0.05,0,0,0.05,43.9,0)" xlink:href="#aC"/><use transform="matrix(0.05,0,0,0.05,53.900000000000006,0)" xlink:href="#ag"/><use transform="matrix(0.05,0,0,0.05,63.900000000000006,0)" xlink:href="#ae"/><use transform="matrix(0.05,0,0,0.05,68.9,0)" xlink:href="#ac"/><use transform="matrix(0.05,0,0,0.05,78.9,0)" xlink:href="#ag"/><use transform="matrix(0.05,0,0,0.05,88.9,0)" xlink:href="#ae"/><use transform="matrix(0.05,0,0,0.05,93.9,0)" xlink:href="#ak"/><use transform="matrix(0.05,0,0,0.05,102.9,0)" xlink:href="#az"/><use transform="matrix(0.05,0,0,0.05,108.85000000000001,0)" xlink:href="#aA"/><use transform="matrix(0.05,0,0,0.05,114.80000000000001,0)" xlink:href="#an"/><use transform="matrix(0.05,0,0,0.05,119.80000000000001,0)" xlink:href="#aF"/><use transform="matrix(0.05,0,0,0.05,131.8,0)" xlink:href="#ae"/><use transform="matrix(0.05,0,0,0.05,136.8,0)" xlink:href="#ar"/><use transform="matrix(0.05,0,0,0.05,142.75,0)" xlink:href="#ai"/><use transform="matrix(0.05,0,0,0.05,146.7,0)" xlink:href="#ag"/><use transform="matrix(0.05,0,0,0.05,156.7,0)" xlink:href="#ah"/></g><g id="m"><use transform="matrix(0.05,0,0,0.05,0,0)" xlink:href="#aj"/><use transform="matrix(0.05,0,0,0.05,5.95,0)" xlink:href="#ak"/><use transform="matrix(0.05,0,0,0.05,14.949999999999998,0)" xlink:href="#al"/><use transform="matrix(0.05,0,0,0.05,24.95,0)" xlink:href="#aB"/><use transform="matrix(0.05,0,0,0.05,33.95,0)" xlink:href="#ac"/><use transform="matrix(0.05,0,0,0.05,43.95,0)" xlink:href="#av"/><use transform="matrix(0.05,0,0,0.05,54.900000000000006,0)" xlink:href="#ai"/><use transform="matrix(0.05,0,0,0.05,58.85,0)" xlink:href="#ap"/><use transform="matrix(0.05,0,0,0.05,62.80000000000001,0)" xlink:href="#ac"/><use transform="matrix(0.05,0,0,0.05,72.80000000000001,0)" xlink:href="#ak"/><use transform="matrix(0.05,0,0,0.05,81.80000000000001,0)" xlink:href="#aG"/><use transform="matrix(0.05,0,0,0.05,94.75000000000001,0)" xlink:href="#aC"/><use transform="matrix(0.05,0,0,0.05,104.75,0)" xlink:href="#ag"/><use transform="matrix(0.05,0,0,0.05,114.75,0)" xlink:href="#ae"/><use transform="matrix(0.05,0,0,0.05,119.75,0)" xlink:href="#ac"/><use transform="matrix(0.05,0,0,0.05,129.75,0)" xlink:href="#ag"/><use transform="matrix(0.05,0,0,0.05,139.75,0)" xlink:href="#ae"/><use transform="matrix(0.05,0,0,0.05,144.75,0)" xlink:href="#ak"/><use transform="matrix(0.05,0,0,0.05,153.75,0)" xlink:href="#az"/><use transform="matrix(0.05,0,0,0.05,159.7,0)" xlink:href="#aA"/><use transform="matrix(0.05,0,0,0.05,165.64999999999998,0)" xlink:href="#an"/><use transform="matrix(0.05,0,0,0.05,170.64999999999998,0)" xlink:href="#aB"/><use transform="matrix(0.05,0,0,0.05,179.64999999999998,0)" xlink:href="#aC"/><use transform="matrix(0.05,0,0,0.05,189.64999999999998,0)" xlink:href="#ai"/><use transform="matrix(0.05,0,0,0.05,193.59999999999997,0)" xlink:href="#aD"/></g><g id="n"><use transform="matrix(0.05,0,0,0.05,0,0)" xlink:href="#ab"/><use transform="matrix(0.05,0,0,0.05,8.950000000000001,0)" xlink:href="#ac"/><use transform="matrix(0.05,0,0,0.05,18.950000000000003,0)" xlink:href="#ad"/><use transform="matrix(0.05,0,0,0.05,27.950000000000003,0)" xlink:href="#ae"/><use transform="matrix(0.05,0,0,0.05,32.95,0)" xlink:href="#av"/><use transform="matrix(0.05,0,0,0.05,43.900000000000006,0)" xlink:href="#ai"/><use transform="matrix(0.05,0,0,0.05,47.85000000000001,0)" xlink:href="#ap"/><use transform="matrix(0.05,0,0,0.05,51.80000000000001,0)" xlink:href="#ac"/></g><use transform="matrix(0.05,0,0,0.05,0,0)" xlink:href="#aj" id="o"/><g id="p"><use transform="matrix(0.05,0,0,0.05,0,0)" xlink:href="#ak"/><use transform="matrix(0.05,0,0,0.05,9,0)" xlink:href="#aC"/><use transform="matrix(0.05,0,0,0.05,19,0)" xlink:href="#ar"/><use transform="matrix(0.05,0,0,0.05,24.95,0)" xlink:href="#ae"/><use transform="matrix(0.05,0,0,0.05,29.950000000000003,0)" xlink:href="#ac"/><use transform="matrix(0.05,0,0,0.05,39.95,0)" xlink:href="#aD"/></g><use transform="matrix(0.05,0,0,0.05,0,0)" xlink:href="#an" id="q"/><path d="M115-194c53 0 69 39 70 98 0 66-23 100-70 100C84 3 66-7 56-30L54 0H23l1-261h32v101c10-23 28-34 59-34zm-8 174c40 0 45-34 45-75 0-40-5-75-45-74-42 0-51 32-51 76 0 43 10 73 51 73" id="aM"/><g id="r"><use transform="matrix(0.05,0,0,0.05,0,0)" xlink:href="#aM"/><use transform="matrix(0.05,0,0,0.05,10,0)" xlink:href="#aC"/><use transform="matrix(0.05,0,0,0.05,20,0)" xlink:href="#aC"/><use transform="matrix(0.05,0,0,0.05,30,0)" xlink:href="#ap"/><use transform="matrix(0.05,0,0,0.05,33.95,0)" xlink:href="#ac"/><use transform="matrix(0.05,0,0,0.05,43.95,0)" xlink:href="#ag"/></g><path d="M210-169c-67 3-38 105-44 169h-31v-121c0-29-5-50-35-48C34-165 62-65 56 0H25l-1-190h30c1 10-1 24 2 32 10-44 99-50 107 0 11-21 27-35 58-36 85-2 47 119 55 194h-31v-121c0-29-5-49-35-48" id="aN"/><g id="s"><use transform="matrix(0.05,0,0,0.05,0,0)" xlink:href="#ag"/><use transform="matrix(0.05,0,0,0.05,10,0)" xlink:href="#al"/><use transform="matrix(0.05,0,0,0.05,20,0)" xlink:href="#aN"/><use transform="matrix(0.05,0,0,0.05,34.95,0)" xlink:href="#ac"/></g><g id="t"><use transform="matrix(0.05,0,0,0.05,0,0)" xlink:href="#aF"/><use transform="matrix(0.05,0,0,0.05,12,0)" xlink:href="#ae"/><use transform="matrix(0.05,0,0,0.05,17,0)" xlink:href="#ar"/><use transform="matrix(0.05,0,0,0.05,22.95,0)" xlink:href="#ai"/><use transform="matrix(0.05,0,0,0.05,26.899999999999995,0)" xlink:href="#ag"/><use transform="matrix(0.05,0,0,0.05,36.9,0)" xlink:href="#ah"/></g><g id="u"><use transform="matrix(0.05,0,0,0.05,0,0)" xlink:href="#am"/><use transform="matrix(0.05,0,0,0.05,9,0)" xlink:href="#aC"/><use transform="matrix(0.05,0,0,0.05,19,0)" xlink:href="#ag"/><use transform="matrix(0.05,0,0,0.05,29,0)" xlink:href="#ae"/><use transform="matrix(0.05,0,0,0.05,34,0)" xlink:href="#ac"/><use transform="matrix(0.05,0,0,0.05,44,0)" xlink:href="#ag"/><use transform="matrix(0.05,0,0,0.05,54,0)" xlink:href="#ae"/></g><g id="v"><use transform="matrix(0.05,0,0,0.05,0,0)" xlink:href="#aq"/><use transform="matrix(0.05,0,0,0.05,12,0)" xlink:href="#ar"/><use transform="matrix(0.05,0,0,0.05,17.95,0)" xlink:href="#ar"/><use transform="matrix(0.05,0,0,0.05,23.9,0)" xlink:href="#al"/><use transform="matrix(0.05,0,0,0.05,33.9,0)" xlink:href="#as"/><use transform="matrix(0.05,0,0,0.05,42.9,0)" xlink:href="#at"/><use transform="matrix(0.05,0,0,0.05,52.900000000000006,0)" xlink:href="#ai"/><use transform="matrix(0.05,0,0,0.05,56.85,0)" xlink:href="#ak"/><use transform="matrix(0.05,0,0,0.05,65.85,0)" xlink:href="#ae"/><use transform="matrix(0.05,0,0,0.05,70.85,0)" xlink:href="#au"/><use transform="matrix(0.05,0,0,0.05,81.35,0)" xlink:href="#aF"/><use transform="matrix(0.05,0,0,0.05,93.35,0)" xlink:href="#ae"/><use transform="matrix(0.05,0,0,0.05,98.35,0)" xlink:href="#ar"/><use transform="matrix(0.05,0,0,0.05,104.30000000000001,0)" xlink:href="#ai"/><use transform="matrix(0.05,0,0,0.05,108.25,0)" xlink:href="#ag"/><use transform="matrix(0.05,0,0,0.05,118.25,0)" xlink:href="#ah"/><use transform="matrix(0.05,0,0,0.05,128.25,0)" xlink:href="#aw"/><use transform="matrix(0.05,0,0,0.05,138.75,0)" xlink:href="#az"/><use transform="matrix(0.05,0,0,0.05,144.7,0)" xlink:href="#aA"/></g><g id="w"><use transform="matrix(0.05,0,0,0.05,0,0)" xlink:href="#ax"/><use transform="matrix(0.05,0,0,0.05,10.5,0)" xlink:href="#aC"/><use transform="matrix(0.05,0,0,0.05,20.5,0)" xlink:href="#aE"/><use transform="matrix(0.05,0,0,0.05,30.5,0)" xlink:href="#ac"/><use transform="matrix(0.05,0,0,0.05,40.5,0)" xlink:href="#ag"/><use transform="matrix(0.05,0,0,0.05,50.5,0)" xlink:href="#az"/><use transform="matrix(0.05,0,0,0.05,56.45,0)" xlink:href="#aF"/><use transform="matrix(0.05,0,0,0.05,68.45,0)" xlink:href="#ae"/><use transform="matrix(0.05,0,0,0.05,73.45,0)" xlink:href="#ar"/><use transform="matrix(0.05,0,0,0.05,79.4,0)" xlink:href="#ai"/><use transform="matrix(0.05,0,0,0.05,83.35000000000001,0)" xlink:href="#ag"/><use transform="matrix(0.05,0,0,0.05,93.35000000000001,0)" xlink:href="#ah"/><use transform="matrix(0.05,0,0,0.05,103.35000000000001,0)" xlink:href="#aA"/><use transform="matrix(0.05,0,0,0.05,109.30000000000001,0)" xlink:href="#an"/><use transform="matrix(0.05,0,0,0.05,114.30000000000001,0)" xlink:href="#ab"/><use transform="matrix(0.05,0,0,0.05,123.25,0)" xlink:href="#ac"/><use transform="matrix(0.05,0,0,0.05,133.25,0)" xlink:href="#ad"/><use transform="matrix(0.05,0,0,0.05,142.25,0)" xlink:href="#ae"/><use transform="matrix(0.05,0,0,0.05,147.25,0)" xlink:href="#av"/><use transform="matrix(0.05,0,0,0.05,158.2,0)" xlink:href="#ai"/><use transform="matrix(0.05,0,0,0.05,162.14999999999998,0)" xlink:href="#ap"/><use transform="matrix(0.05,0,0,0.05,166.09999999999997,0)" xlink:href="#ac"/><path d="M-.9 1.25H177v1.32H-.9z"/></g><path d="M68-38c1 34 0 65-14 84H32c9-13 17-26 17-46H33v-38h35" id="aO"/><g id="x"><use transform="matrix(0.05,0,0,0.05,0,0)" xlink:href="#ax"/><use transform="matrix(0.05,0,0,0.05,10.5,0)" xlink:href="#ak"/><use transform="matrix(0.05,0,0,0.05,19.5,0)" xlink:href="#al"/><use transform="matrix(0.05,0,0,0.05,29.5,0)" xlink:href="#aB"/><use transform="matrix(0.05,0,0,0.05,38.5,0)" xlink:href="#ac"/><use transform="matrix(0.05,0,0,0.05,48.5,0)" xlink:href="#az"/><use transform="matrix(0.05,0,0,0.05,54.45,0)" xlink:href="#aF"/><use transform="matrix(0.05,0,0,0.05,66.45,0)" xlink:href="#ae"/><use transform="matrix(0.05,0,0,0.05,71.45,0)" xlink:href="#ar"/><use transform="matrix(0.05,0,0,0.05,77.4,0)" xlink:href="#ai"/><use transform="matrix(0.05,0,0,0.05,81.35000000000001,0)" xlink:href="#ag"/><use transform="matrix(0.05,0,0,0.05,91.35000000000001,0)" xlink:href="#ah"/><use transform="matrix(0.05,0,0,0.05,101.35000000000001,0)" xlink:href="#aO"/><use transform="matrix(0.05,0,0,0.05,106.35000000000001,0)" xlink:href="#aF"/><use transform="matrix(0.05,0,0,0.05,118.35000000000001,0)" xlink:href="#ae"/><use transform="matrix(0.05,0,0,0.05,123.35000000000001,0)" xlink:href="#ar"/><use transform="matrix(0.05,0,0,0.05,129.3,0)" xlink:href="#ae"/><use transform="matrix(0.05,0,0,0.05,134.3,0)" xlink:href="#ai"/><use transform="matrix(0.05,0,0,0.05,138.25,0)" xlink:href="#ag"/><use transform="matrix(0.05,0,0,0.05,148.25,0)" xlink:href="#ah"/><use transform="matrix(0.05,0,0,0.05,158.25,0)" xlink:href="#aA"/><use transform="matrix(0.05,0,0,0.05,164.2,0)" xlink:href="#an"/><use transform="matrix(0.05,0,0,0.05,169.2,0)" xlink:href="#aF"/><use transform="matrix(0.05,0,0,0.05,181.2,0)" xlink:href="#ae"/><use transform="matrix(0.05,0,0,0.05,186.2,0)" xlink:href="#ar"/><use transform="matrix(0.05,0,0,0.05,192.14999999999998,0)" xlink:href="#ai"/><use transform="matrix(0.05,0,0,0.05,196.09999999999997,0)" xlink:href="#ag"/><use transform="matrix(0.05,0,0,0.05,206.09999999999997,0)" xlink:href="#ah"/><path d="M-.9 1.25H217v1.32H-.9z"/></g><g id="y"><use transform="matrix(0.05,0,0,0.05,0,0)" xlink:href="#ax"/><use transform="matrix(0.05,0,0,0.05,10.5,0)" xlink:href="#ay"/><use transform="matrix(0.05,0,0,0.05,15.5,0)" xlink:href="#ak"/><use transform="matrix(0.05,0,0,0.05,24.5,0)" xlink:href="#aF"/><use transform="matrix(0.05,0,0,0.05,36.5,0)" xlink:href="#aC"/><use transform="matrix(0.05,0,0,0.05,46.5,0)" xlink:href="#ar"/><use transform="matrix(0.05,0,0,0.05,52.45,0)" xlink:href="#ae"/><use transform="matrix(0.05,0,0,0.05,57.45,0)" xlink:href="#ac"/><use transform="matrix(0.05,0,0,0.05,67.45,0)" xlink:href="#aD"/><use transform="matrix(0.05,0,0,0.05,77.45,0)" xlink:href="#az"/><use transform="matrix(0.05,0,0,0.05,83.4,0)" xlink:href="#aA"/><use transform="matrix(0.05,0,0,0.05,89.35000000000001,0)" xlink:href="#an"/><use transform="matrix(0.05,0,0,0.05,94.35000000000001,0)" xlink:href="#aM"/><use transform="matrix(0.05,0,0,0.05,104.35000000000001,0)" xlink:href="#aC"/><use transform="matrix(0.05,0,0,0.05,114.35000000000001,0)" xlink:href="#aC"/><use transform="matrix(0.05,0,0,0.05,124.35000000000001,0)" xlink:href="#ap"/><use transform="matrix(0.05,0,0,0.05,128.3,0)" xlink:href="#ac"/><use transform="matrix(0.05,0,0,0.05,138.3,0)" xlink:href="#al"/><use transform="matrix(0.05,0,0,0.05,148.3,0)" xlink:href="#ag"/></g><path d="M190 0L58-211 59 0H30v-248h39L202-35l-2-213h31V0h-41" id="aP"/><g id="z"><use transform="matrix(0.05,0,0,0.05,0,0)" xlink:href="#ax"/><use transform="matrix(0.05,0,0,0.05,10.5,0)" xlink:href="#ah"/><use transform="matrix(0.05,0,0,0.05,20.5,0)" xlink:href="#ac"/><use transform="matrix(0.05,0,0,0.05,30.5,0)" xlink:href="#ae"/><use transform="matrix(0.05,0,0,0.05,35.5,0)" xlink:href="#aP"/><use transform="matrix(0.05,0,0,0.05,48.45,0)" xlink:href="#al"/><use transform="matrix(0.05,0,0,0.05,58.45,0)" xlink:href="#aN"/><use transform="matrix(0.05,0,0,0.05,73.4,0)" xlink:href="#ac"/><use transform="matrix(0.05,0,0,0.05,83.4,0)" xlink:href="#az"/><use transform="matrix(0.05,0,0,0.05,89.35000000000001,0)" xlink:href="#aA"/><use transform="matrix(0.05,0,0,0.05,95.30000000000001,0)" xlink:href="#an"/><use transform="matrix(0.05,0,0,0.05,100.30000000000001,0)" xlink:href="#aF"/><use transform="matrix(0.05,0,0,0.05,112.30000000000001,0)" xlink:href="#ae"/><use transform="matrix(0.05,0,0,0.05,117.30000000000001,0)" xlink:href="#ar"/><use transform="matrix(0.05,0,0,0.05,123.25,0)" xlink:href="#ai"/><use transform="matrix(0.05,0,0,0.05,127.2,0)" xlink:href="#ag"/><use transform="matrix(0.05,0,0,0.05,137.20000000000002,0)" xlink:href="#ah"/></g><g id="A"><use transform="matrix(0.05,0,0,0.05,0,0)" xlink:href="#ax"/><use transform="matrix(0.05,0,0,0.05,10.5,0)" xlink:href="#ah"/><use transform="matrix(0.05,0,0,0.05,20.5,0)" xlink:href="#ac"/><use transform="matrix(0.05,0,0,0.05,30.5,0)" xlink:href="#ae"/><use transform="matrix(0.05,0,0,0.05,35.5,0)" xlink:href="#aG"/><use transform="matrix(0.05,0,0,0.05,48.45,0)" xlink:href="#aC"/><use transform="matrix(0.05,0,0,0.05,58.45,0)" xlink:href="#ag"/><use transform="matrix(0.05,0,0,0.05,68.45,0)" xlink:href="#ae"/><use transform="matrix(0.05,0,0,0.05,73.45,0)" xlink:href="#ac"/><use transform="matrix(0.05,0,0,0.05,83.45,0)" xlink:href="#ag"/><use transform="matrix(0.05,0,0,0.05,93.45,0)" xlink:href="#ae"/><use transform="matrix(0.05,0,0,0.05,98.45,0)" xlink:href="#az"/><use transform="matrix(0.05,0,0,0.05,104.4,0)" xlink:href="#aA"/><use transform="matrix(0.05,0,0,0.05,110.35000000000001,0)" xlink:href="#an"/><use transform="matrix(0.05,0,0,0.05,115.35000000000001,0)" xlink:href="#aF"/><use transform="matrix(0.05,0,0,0.05,127.35000000000001,0)" xlink:href="#ae"/><use transform="matrix(0.05,0,0,0.05,132.35000000000002,0)" xlink:href="#ar"/><use transform="matrix(0.05,0,0,0.05,138.3,0)" xlink:href="#ai"/><use transform="matrix(0.05,0,0,0.05,142.25,0)" xlink:href="#ag"/><use transform="matrix(0.05,0,0,0.05,152.25,0)" xlink:href="#ah"/></g><g id="B"><use transform="matrix(0.05,0,0,0.05,0,0)" xlink:href="#ax"/><use transform="matrix(0.05,0,0,0.05,10.5,0)" xlink:href="#ak"/><use transform="matrix(0.05,0,0,0.05,19.5,0)" xlink:href="#aC"/><use transform="matrix(0.05,0,0,0.05,29.5,0)" xlink:href="#ar"/><use transform="matrix(0.05,0,0,0.05,35.45,0)" xlink:href="#ae"/><use transform="matrix(0.05,0,0,0.05,40.45,0)" xlink:href="#aG"/><use transform="matrix(0.05,0,0,0.05,53.400000000000006,0)" xlink:href="#aC"/><use transform="matrix(0.05,0,0,0.05,63.400000000000006,0)" xlink:href="#ag"/><use transform="matrix(0.05,0,0,0.05,73.4,0)" xlink:href="#ae"/><use transform="matrix(0.05,0,0,0.05,78.4,0)" xlink:href="#ac"/><use transform="matrix(0.05,0,0,0.05,88.4,0)" xlink:href="#ag"/><use transform="matrix(0.05,0,0,0.05,98.4,0)" xlink:href="#ae"/><use transform="matrix(0.05,0,0,0.05,103.4,0)" xlink:href="#az"/><use transform="matrix(0.05,0,0,0.05,109.35000000000001,0)" xlink:href="#aA"/><use transform="matrix(0.05,0,0,0.05,115.30000000000001,0)" xlink:href="#an"/><use transform="matrix(0.05,0,0,0.05,120.30000000000001,0)" xlink:href="#aB"/><use transform="matrix(0.05,0,0,0.05,129.3,0)" xlink:href="#aC"/><use transform="matrix(0.05,0,0,0.05,139.3,0)" xlink:href="#ai"/><use transform="matrix(0.05,0,0,0.05,143.25,0)" xlink:href="#aD"/></g><g id="C"><use transform="matrix(0.05,0,0,0.05,0,0)" xlink:href="#ax"/><use transform="matrix(0.05,0,0,0.05,10.5,0)" xlink:href="#ak"/><use transform="matrix(0.05,0,0,0.05,19.5,0)" xlink:href="#ac"/><use transform="matrix(0.05,0,0,0.05,29.5,0)" xlink:href="#al"/><use transform="matrix(0.05,0,0,0.05,39.5,0)" xlink:href="#ar"/><use transform="matrix(0.05,0,0,0.05,45.45,0)" xlink:href="#am"/><use transform="matrix(0.05,0,0,0.05,54.45,0)" xlink:href="#aH"/><use transform="matrix(0.05,0,0,0.05,64.45,0)" xlink:href="#az"/><use transform="matrix(0.05,0,0,0.05,70.4,0)" xlink:href="#aF"/><use transform="matrix(0.05,0,0,0.05,82.4,0)" xlink:href="#ae"/><use transform="matrix(0.05,0,0,0.05,87.4,0)" xlink:href="#ar"/><use transform="matrix(0.05,0,0,0.05,93.35000000000001,0)" xlink:href="#ai"/><use transform="matrix(0.05,0,0,0.05,97.30000000000001,0)" xlink:href="#ag"/><use transform="matrix(0.05,0,0,0.05,107.30000000000001,0)" xlink:href="#ah"/><use transform="matrix(0.05,0,0,0.05,117.30000000000001,0)" xlink:href="#aA"/><use transform="matrix(0.05,0,0,0.05,123.25,0)" xlink:href="#an"/><use transform="matrix(0.05,0,0,0.05,128.25,0)" xlink:href="#ai"/><use transform="matrix(0.05,0,0,0.05,132.2,0)" xlink:href="#ag"/><use transform="matrix(0.05,0,0,0.05,142.2,0)" xlink:href="#ae"/></g><path d="M15-91v-56l181-69v40L49-119l147 57v40" id="aQ"/><path d="M25-224v-37h50v37H25zM25 0v-190h50V0H25" id="aR"/><path d="M135-194c87-1 58 113 63 194h-50c-7-57 23-157-34-157-59 0-34 97-39 157H25l-1-190h47c2 12-1 28 3 38 12-26 28-41 61-42" id="aS"/><path d="M115-3C79 11 28 4 28-45v-112H4v-33h27l15-45h31v45h36v33H77v99c-1 23 16 31 38 25v30" id="aT"/><path d="M185-48c-13 30-37 53-82 52C43 2 14-33 14-96s30-98 90-98c62 0 83 45 84 108H66c0 31 8 55 39 56 18 0 30-7 34-22zm-45-69c5-46-57-63-70-21-2 6-4 13-4 21h74" id="aU"/><path d="M135-150c-39-12-60 13-60 57V0H25l-1-190h47c2 13-1 29 3 40 6-28 27-53 61-41v41" id="aV"/><path d="M121-226c-27-7-43 5-38 36h38v33H83V0H34v-157H6v-33h28c-9-59 32-81 87-68v32" id="aW"/><path d="M133-34C117-15 103 5 69 4 32 3 11-16 11-54c-1-60 55-63 116-61 1-26-3-47-28-47-18 1-26 9-28 27l-52-2c7-38 36-58 82-57s74 22 75 68l1 82c-1 14 12 18 25 15v27c-30 8-71 5-69-32zm-48 3c29 0 43-24 42-57-32 0-66-3-65 30 0 17 8 27 23 27" id="aX"/><path d="M190-63c-7 42-38 67-86 67-59 0-84-38-90-98-12-110 154-137 174-36l-49 2c-2-19-15-32-35-32-30 0-35 28-38 64-6 74 65 87 74 30" id="aY"/><path d="M15-22v-40l146-57-146-57v-40l181 69v56" id="aZ"/><g id="D"><use transform="matrix(0.05,0,0,0.05,0,0)" xlink:href="#aQ"/><use transform="matrix(0.05,0,0,0.05,10.5,0)" xlink:href="#aQ"/><use transform="matrix(0.05,0,0,0.05,21,0)" xlink:href="#aR"/><use transform="matrix(0.05,0,0,0.05,26,0)" xlink:href="#aS"/><use transform="matrix(0.05,0,0,0.05,36.95,0)" xlink:href="#aT"/><use transform="matrix(0.05,0,0,0.05,42.900000000000006,0)" xlink:href="#aU"/><use transform="matrix(0.05,0,0,0.05,52.900000000000006,0)" xlink:href="#aV"/><use transform="matrix(0.05,0,0,0.05,59.900000000000006,0)" xlink:href="#aW"/><use transform="matrix(0.05,0,0,0.05,65.85000000000001,0)" xlink:href="#aX"/><use transform="matrix(0.05,0,0,0.05,75.85000000000001,0)" xlink:href="#aY"/><use transform="matrix(0.05,0,0,0.05,85.85000000000001,0)" xlink:href="#aU"/><use transform="matrix(0.05,0,0,0.05,95.85000000000001,0)" xlink:href="#aZ"/><use transform="matrix(0.05,0,0,0.05,106.35000000000001,0)" xlink:href="#aZ"/></g><path d="M169-182c-1-43-94-46-97-3 18 66 151 10 154 114 3 95-165 93-204 36-6-8-10-19-12-30l50-8c3 46 112 56 116 5-17-69-150-10-154-114-4-87 153-88 188-35 5 8 8 18 10 28" id="ba"/><path d="M110-194c64 0 96 36 96 99 0 64-35 99-97 99-61 0-95-36-95-99 0-62 34-99 96-99zm-1 164c35 0 45-28 45-65 0-40-10-65-43-65-34 0-45 26-45 65 0 36 10 65 43 65" id="bb"/><g id="E"><use transform="matrix(0.05,0,0,0.05,0,0)" xlink:href="#ba"/><use transform="matrix(0.05,0,0,0.05,12,0)" xlink:href="#bb"/><use transform="matrix(0.05,0,0,0.05,22.950000000000003,0)" xlink:href="#aV"/><use transform="matrix(0.05,0,0,0.05,29.950000000000003,0)" xlink:href="#aT"/></g><path d="M145-31C134-9 116 4 85 4 32 4 16-35 15-94c0-59 17-99 70-100 32-1 48 14 60 33 0-11-1-24 2-32h30l-1 268h-32zM93-21c41 0 51-33 51-76s-8-73-50-73c-40 0-46 35-46 75s5 74 45 74" id="bc"/><path d="M143 0L79-87 56-68V0H24v-261h32v163l83-92h37l-77 82L181 0h-38" id="bd"/><g id="F"><use transform="matrix(0.05,0,0,0.05,0,0)" xlink:href="#ax"/><use transform="matrix(0.05,0,0,0.05,10.5,0)" xlink:href="#bc"/><use transform="matrix(0.05,0,0,0.05,20.5,0)" xlink:href="#aJ"/><use transform="matrix(0.05,0,0,0.05,30.5,0)" xlink:href="#ai"/><use transform="matrix(0.05,0,0,0.05,34.45,0)" xlink:href="#am"/><use transform="matrix(0.05,0,0,0.05,43.45,0)" xlink:href="#bd"/><use transform="matrix(0.05,0,0,0.05,52.45,0)" xlink:href="#aF"/><use transform="matrix(0.05,0,0,0.05,64.45,0)" xlink:href="#aC"/><use transform="matrix(0.05,0,0,0.05,74.45,0)" xlink:href="#ar"/><use transform="matrix(0.05,0,0,0.05,80.4,0)" xlink:href="#ae"/><use transform="matrix(0.05,0,0,0.05,85.4,0)" xlink:href="#az"/><use transform="matrix(0.05,0,0,0.05,91.35000000000001,0)" xlink:href="#aq"/><use transform="matrix(0.05,0,0,0.05,103.35000000000001,0)" xlink:href="#ar"/><use transform="matrix(0.05,0,0,0.05,109.30000000000001,0)" xlink:href="#ar"/><use transform="matrix(0.05,0,0,0.05,115.25,0)" xlink:href="#al"/><use transform="matrix(0.05,0,0,0.05,125.25,0)" xlink:href="#as"/><use transform="matrix(0.05,0,0,0.05,134.25,0)" xlink:href="#at"/><use transform="matrix(0.05,0,0,0.05,144.25,0)" xlink:href="#ai"/><use transform="matrix(0.05,0,0,0.05,148.2,0)" xlink:href="#ak"/><use transform="matrix(0.05,0,0,0.05,157.2,0)" xlink:href="#ae"/><use transform="matrix(0.05,0,0,0.05,162.2,0)" xlink:href="#au"/><use transform="matrix(0.05,0,0,0.05,172.7,0)" xlink:href="#aF"/><use transform="matrix(0.05,0,0,0.05,184.7,0)" xlink:href="#ae"/><use transform="matrix(0.05,0,0,0.05,189.7,0)" xlink:href="#ar"/><use transform="matrix(0.05,0,0,0.05,195.64999999999998,0)" xlink:href="#ai"/><use transform="matrix(0.05,0,0,0.05,199.59999999999997,0)" xlink:href="#ag"/><use transform="matrix(0.05,0,0,0.05,209.59999999999997,0)" xlink:href="#ah"/><use transform="matrix(0.05,0,0,0.05,219.59999999999997,0)" xlink:href="#aw"/><use transform="matrix(0.05,0,0,0.05,230.09999999999997,0)" xlink:href="#aA"/><use transform="matrix(0.05,0,0,0.05,236.04999999999995,0)" xlink:href="#an"/><use transform="matrix(0.05,0,0,0.05,241.04999999999995,0)" xlink:href="#aq"/><use transform="matrix(0.05,0,0,0.05,253.04999999999995,0)" xlink:href="#ar"/><use transform="matrix(0.05,0,0,0.05,258.99999999999994,0)" xlink:href="#ar"/><use transform="matrix(0.05,0,0,0.05,264.94999999999993,0)" xlink:href="#al"/><use transform="matrix(0.05,0,0,0.05,274.94999999999993,0)" xlink:href="#as"/><use transform="matrix(0.05,0,0,0.05,283.94999999999993,0)" xlink:href="#at"/><use transform="matrix(0.05,0,0,0.05,293.94999999999993,0)" xlink:href="#ai"/><use transform="matrix(0.05,0,0,0.05,297.8999999999999,0)" xlink:href="#ak"/><use transform="matrix(0.05,0,0,0.05,306.8999999999999,0)" xlink:href="#ae"/><use transform="matrix(0.05,0,0,0.05,311.8999999999999,0)" xlink:href="#au"/><use transform="matrix(0.05,0,0,0.05,322.3999999999999,0)" xlink:href="#aF"/><use transform="matrix(0.05,0,0,0.05,334.3999999999999,0)" xlink:href="#ae"/><use transform="matrix(0.05,0,0,0.05,339.3999999999999,0)" xlink:href="#ar"/><use transform="matrix(0.05,0,0,0.05,345.3499999999999,0)" xlink:href="#ai"/><use transform="matrix(0.05,0,0,0.05,349.2999999999999,0)" xlink:href="#ag"/><use transform="matrix(0.05,0,0,0.05,359.2999999999999,0)" xlink:href="#ah"/><use transform="matrix(0.05,0,0,0.05,369.2999999999999,0)" xlink:href="#aw"/></g><g id="G"><use transform="matrix(0.05,0,0,0.05,0,0)" xlink:href="#ax"/><use transform="matrix(0.05,0,0,0.05,10.5,0)" xlink:href="#ai"/><use transform="matrix(0.05,0,0,0.05,14.449999999999998,0)" xlink:href="#ak"/><use transform="matrix(0.05,0,0,0.05,23.45,0)" xlink:href="#aF"/><use transform="matrix(0.05,0,0,0.05,35.45,0)" xlink:href="#aC"/><use transform="matrix(0.05,0,0,0.05,45.45,0)" xlink:href="#ar"/><use transform="matrix(0.05,0,0,0.05,51.400000000000006,0)" xlink:href="#ae"/><use transform="matrix(0.05,0,0,0.05,56.400000000000006,0)" xlink:href="#ac"/><use transform="matrix(0.05,0,0,0.05,66.4,0)" xlink:href="#aD"/><use transform="matrix(0.05,0,0,0.05,76.4,0)" xlink:href="#az"/><use transform="matrix(0.05,0,0,0.05,82.35000000000001,0)" xlink:href="#aq"/><use transform="matrix(0.05,0,0,0.05,94.35000000000001,0)" xlink:href="#ar"/><use transform="matrix(0.05,0,0,0.05,100.30000000000001,0)" xlink:href="#ar"/><use transform="matrix(0.05,0,0,0.05,106.25,0)" xlink:href="#al"/><use transform="matrix(0.05,0,0,0.05,116.25,0)" xlink:href="#as"/><use transform="matrix(0.05,0,0,0.05,125.25,0)" xlink:href="#at"/><use transform="matrix(0.05,0,0,0.05,135.25,0)" xlink:href="#ai"/><use transform="matrix(0.05,0,0,0.05,139.2,0)" xlink:href="#ak"/><use transform="matrix(0.05,0,0,0.05,148.2,0)" xlink:href="#ae"/><use transform="matrix(0.05,0,0,0.05,153.2,0)" xlink:href="#au"/><use transform="matrix(0.05,0,0,0.05,163.7,0)" xlink:href="#aF"/><use transform="matrix(0.05,0,0,0.05,175.7,0)" xlink:href="#ae"/><use transform="matrix(0.05,0,0,0.05,180.7,0)" xlink:href="#ar"/><use transform="matrix(0.05,0,0,0.05,186.64999999999998,0)" xlink:href="#ai"/><use transform="matrix(0.05,0,0,0.05,190.59999999999997,0)" xlink:href="#ag"/><use transform="matrix(0.05,0,0,0.05,200.59999999999997,0)" xlink:href="#ah"/><use transform="matrix(0.05,0,0,0.05,210.59999999999997,0)" xlink:href="#aw"/><use transform="matrix(0.05,0,0,0.05,221.09999999999997,0)" xlink:href="#aA"/><use transform="matrix(0.05,0,0,0.05,227.04999999999995,0)" xlink:href="#an"/><use transform="matrix(0.05,0,0,0.05,232.04999999999995,0)" xlink:href="#aM"/><use transform="matrix(0.05,0,0,0.05,242.04999999999995,0)" xlink:href="#aC"/><use transform="matrix(0.05,0,0,0.05,252.04999999999995,0)" xlink:href="#aC"/><use transform="matrix(0.05,0,0,0.05,262.04999999999995,0)" xlink:href="#ap"/><use transform="matrix(0.05,0,0,0.05,265.99999999999994,0)" xlink:href="#ac"/><use transform="matrix(0.05,0,0,0.05,275.99999999999994,0)" xlink:href="#al"/><use transform="matrix(0.05,0,0,0.05,285.99999999999994,0)" xlink:href="#ag"/></g><g id="H"><use transform="matrix(0.05,0,0,0.05,0,0)" xlink:href="#ax"/><use transform="matrix(0.05,0,0,0.05,10.5,0)" xlink:href="#ai"/><use transform="matrix(0.05,0,0,0.05,14.449999999999998,0)" xlink:href="#ag"/><use transform="matrix(0.05,0,0,0.05,24.45,0)" xlink:href="#ak"/><use transform="matrix(0.05,0,0,0.05,33.45,0)" xlink:href="#ac"/><use transform="matrix(0.05,0,0,0.05,43.45,0)" xlink:href="#ar"/><use transform="matrix(0.05,0,0,0.05,49.400000000000006,0)" xlink:href="#ae"/><use transform="matrix(0.05,0,0,0.05,54.400000000000006,0)" xlink:href="#ai"/><use transform="matrix(0.05,0,0,0.05,58.35,0)" xlink:href="#aC"/><use transform="matrix(0.05,0,0,0.05,68.35000000000001,0)" xlink:href="#ag"/><use transform="matrix(0.05,0,0,0.05,78.35000000000001,0)" xlink:href="#az"/><use transform="matrix(0.05,0,0,0.05,84.30000000000001,0)" xlink:href="#ai"/><use transform="matrix(0.05,0,0,0.05,88.25000000000001,0)" xlink:href="#ag"/><use transform="matrix(0.05,0,0,0.05,98.25000000000001,0)" xlink:href="#ae"/><use transform="matrix(0.05,0,0,0.05,103.25,0)" xlink:href="#aK"/><use transform="matrix(0.05,0,0,0.05,108.25,0)" xlink:href="#aL"/><use transform="matrix(0.05,0,0,0.05,113.25,0)" xlink:href="#aK"/><use transform="matrix(0.05,0,0,0.05,118.25,0)" xlink:href="#aL"/><use transform="matrix(0.05,0,0,0.05,123.25,0)" xlink:href="#aA"/><use transform="matrix(0.05,0,0,0.05,129.20000000000002,0)" xlink:href="#an"/><use transform="matrix(0.05,0,0,0.05,134.20000000000002,0)" xlink:href="#ai"/><use transform="matrix(0.05,0,0,0.05,138.15,0)" xlink:href="#ag"/><use transform="matrix(0.05,0,0,0.05,148.15,0)" xlink:href="#ae"/><use transform="matrix(0.05,0,0,0.05,153.15,0)" xlink:href="#aK"/><use transform="matrix(0.05,0,0,0.05,158.15,0)" xlink:href="#aL"/><use transform="matrix(0.05,0,0,0.05,163.15,0)" xlink:href="#aK"/><use transform="matrix(0.05,0,0,0.05,168.15,0)" xlink:href="#aL"/></g><g id="I"><use transform="matrix(0.05,0,0,0.05,0,0)" xlink:href="#ax"/><use transform="matrix(0.05,0,0,0.05,10.5,0)" xlink:href="#aE"/><use transform="matrix(0.05,0,0,0.05,20.5,0)" xlink:href="#al"/><use transform="matrix(0.05,0,0,0.05,30.5,0)" xlink:href="#ar"/><use transform="matrix(0.05,0,0,0.05,36.45,0)" xlink:href="#ae"/><use transform="matrix(0.05,0,0,0.05,41.45,0)" xlink:href="#ai"/><use transform="matrix(0.05,0,0,0.05,45.400000000000006,0)" xlink:href="#ae"/><use transform="matrix(0.05,0,0,0.05,50.400000000000006,0)" xlink:href="#ai"/><use transform="matrix(0.05,0,0,0.05,54.35,0)" xlink:href="#aC"/><use transform="matrix(0.05,0,0,0.05,64.35000000000001,0)" xlink:href="#ag"/><use transform="matrix(0.05,0,0,0.05,74.35000000000001,0)" xlink:href="#ai"/><use transform="matrix(0.05,0,0,0.05,78.30000000000001,0)" xlink:href="#ag"/><use transform="matrix(0.05,0,0,0.05,88.30000000000001,0)" xlink:href="#ah"/><use transform="matrix(0.05,0,0,0.05,98.30000000000001,0)" xlink:href="#az"/><use transform="matrix(0.05,0,0,0.05,104.25,0)" xlink:href="#aq"/><use transform="matrix(0.05,0,0,0.05,116.25,0)" xlink:href="#ar"/><use transform="matrix(0.05,0,0,0.05,122.2,0)" xlink:href="#ar"/><use transform="matrix(0.05,0,0,0.05,128.15,0)" xlink:href="#al"/><use transform="matrix(0.05,0,0,0.05,138.15,0)" xlink:href="#as"/><use transform="matrix(0.05,0,0,0.05,147.15,0)" xlink:href="#at"/><use transform="matrix(0.05,0,0,0.05,157.15,0)" xlink:href="#ai"/><use transform="matrix(0.05,0,0,0.05,161.1,0)" xlink:href="#ak"/><use transform="matrix(0.05,0,0,0.05,170.1,0)" xlink:href="#ae"/><use transform="matrix(0.05,0,0,0.05,175.1,0)" xlink:href="#au"/><use transform="matrix(0.05,0,0,0.05,185.6,0)" xlink:href="#aF"/><use transform="matrix(0.05,0,0,0.05,197.6,0)" xlink:href="#ae"/><use transform="matrix(0.05,0,0,0.05,202.6,0)" xlink:href="#ar"/><use transform="matrix(0.05,0,0,0.05,208.54999999999995,0)" xlink:href="#ai"/><use transform="matrix(0.05,0,0,0.05,212.49999999999997,0)" xlink:href="#ag"/><use transform="matrix(0.05,0,0,0.05,222.49999999999997,0)" xlink:href="#ah"/><use transform="matrix(0.05,0,0,0.05,232.49999999999997,0)" xlink:href="#aw"/><use transform="matrix(0.05,0,0,0.05,242.99999999999997,0)" xlink:href="#aO"/></g><g id="J"><use transform="matrix(0.05,0,0,0.05,0,0)" xlink:href="#ai"/><use transform="matrix(0.05,0,0,0.05,3.95,0)" xlink:href="#ag"/><use transform="matrix(0.05,0,0,0.05,13.949999999999998,0)" xlink:href="#ae"/><use transform="matrix(0.05,0,0,0.05,18.95,0)" xlink:href="#aO"/><use transform="matrix(0.05,0,0,0.05,23.95,0)" xlink:href="#ai"/><use transform="matrix(0.05,0,0,0.05,27.899999999999995,0)" xlink:href="#ag"/><use transform="matrix(0.05,0,0,0.05,37.9,0)" xlink:href="#ae"/><use transform="matrix(0.05,0,0,0.05,42.9,0)" xlink:href="#aA"/><use transform="matrix(0.05,0,0,0.05,48.85,0)" xlink:href="#an"/><use transform="matrix(0.05,0,0,0.05,53.85,0)" xlink:href="#ai"/><use transform="matrix(0.05,0,0,0.05,57.800000000000004,0)" xlink:href="#ag"/><use transform="matrix(0.05,0,0,0.05,67.80000000000001,0)" xlink:href="#ae"/></g><path d="M114-157C55-157 80-60 75 0H25v-261h50l-1 109c12-26 28-41 61-42 86-1 58 113 63 194h-50c-7-57 23-157-34-157" id="be"/><g id="K"><use transform="matrix(0.05,0,0,0.05,0,0)" xlink:href="#ba"/><use transform="matrix(0.05,0,0,0.05,12,0)" xlink:href="#aU"/><use transform="matrix(0.05,0,0,0.05,22,0)" xlink:href="#aX"/><use transform="matrix(0.05,0,0,0.05,32,0)" xlink:href="#aV"/><use transform="matrix(0.05,0,0,0.05,39,0)" xlink:href="#aY"/><use transform="matrix(0.05,0,0,0.05,49,0)" xlink:href="#be"/></g><use transform="matrix(0.05,0,0,0.05,0,0)" xlink:href="#ax" id="L"/><g id="M"><use transform="matrix(0.05,0,0,0.05,0,0)" xlink:href="#aD"/><use transform="matrix(0.05,0,0,0.05,10,0)" xlink:href="#ac"/><use transform="matrix(0.05,0,0,0.05,20,0)" xlink:href="#ao"/><use transform="matrix(0.05,0,0,0.05,25,0)" xlink:href="#al"/><use transform="matrix(0.05,0,0,0.05,35,0)" xlink:href="#ap"/><use transform="matrix(0.05,0,0,0.05,38.95,0)" xlink:href="#aJ"/><use transform="matrix(0.05,0,0,0.05,48.95,0)" xlink:href="#ae"/></g><g id="N"><use transform="matrix(0.05,0,0,0.05,0,0)" xlink:href="#ak"/><use transform="matrix(0.05,0,0,0.05,9,0)" xlink:href="#ac"/><use transform="matrix(0.05,0,0,0.05,19,0)" xlink:href="#al"/><use transform="matrix(0.05,0,0,0.05,29,0)" xlink:href="#ar"/><use transform="matrix(0.05,0,0,0.05,34.95,0)" xlink:href="#am"/><use transform="matrix(0.05,0,0,0.05,43.95,0)" xlink:href="#aH"/><use transform="matrix(0.05,0,0,0.05,53.95,0)" xlink:href="#az"/><use transform="matrix(0.05,0,0,0.05,59.900000000000006,0)" xlink:href="#aF"/><use transform="matrix(0.05,0,0,0.05,71.9,0)" xlink:href="#ae"/><use transform="matrix(0.05,0,0,0.05,76.9,0)" xlink:href="#ar"/><use transform="matrix(0.05,0,0,0.05,82.85000000000001,0)" xlink:href="#ai"/><use transform="matrix(0.05,0,0,0.05,86.80000000000001,0)" xlink:href="#ag"/><use transform="matrix(0.05,0,0,0.05,96.80000000000001,0)" xlink:href="#ah"/><use transform="matrix(0.05,0,0,0.05,106.80000000000001,0)" xlink:href="#aO"/><use transform="matrix(0.05,0,0,0.05,111.80000000000001,0)" xlink:href="#aq"/><use transform="matrix(0.05,0,0,0.05,123.80000000000001,0)" xlink:href="#ar"/><use transform="matrix(0.05,0,0,0.05,129.75,0)" xlink:href="#ar"/><use transform="matrix(0.05,0,0,0.05,135.7,0)" xlink:href="#al"/><use transform="matrix(0.05,0,0,0.05,145.7,0)" xlink:href="#as"/><use transform="matrix(0.05,0,0,0.05,154.7,0)" xlink:href="#at"/><use transform="matrix(0.05,0,0,0.05,164.7,0)" xlink:href="#ai"/><use transform="matrix(0.05,0,0,0.05,168.64999999999998,0)" xlink:href="#ak"/><use transform="matrix(0.05,0,0,0.05,177.64999999999998,0)" xlink:href="#ae"/><use transform="matrix(0.05,0,0,0.05,182.64999999999998,0)" xlink:href="#au"/><use transform="matrix(0.05,0,0,0.05,193.14999999999998,0)" xlink:href="#aF"/><use transform="matrix(0.05,0,0,0.05,205.14999999999998,0)" xlink:href="#ae"/><use transform="matrix(0.05,0,0,0.05,210.14999999999998,0)" xlink:href="#ar"/><use transform="matrix(0.05,0,0,0.05,216.09999999999997,0)" xlink:href="#ai"/><use transform="matrix(0.05,0,0,0.05,220.04999999999995,0)" xlink:href="#ag"/><use transform="matrix(0.05,0,0,0.05,230.04999999999995,0)" xlink:href="#ah"/><use transform="matrix(0.05,0,0,0.05,240.04999999999995,0)" xlink:href="#aw"/><use transform="matrix(0.05,0,0,0.05,250.54999999999995,0)" xlink:href="#aA"/><use transform="matrix(0.05,0,0,0.05,256.49999999999994,0)" xlink:href="#an"/><use transform="matrix(0.05,0,0,0.05,261.49999999999994,0)" xlink:href="#ai"/><use transform="matrix(0.05,0,0,0.05,265.44999999999993,0)" xlink:href="#ag"/><use transform="matrix(0.05,0,0,0.05,275.44999999999993,0)" xlink:href="#ae"/></g><g id="O"><use transform="matrix(0.05,0,0,0.05,0,0)" xlink:href="#ax"/><use transform="matrix(0.05,0,0,0.05,10.5,0)" xlink:href="#aD"/><use transform="matrix(0.05,0,0,0.05,20.5,0)" xlink:href="#ac"/><use transform="matrix(0.05,0,0,0.05,30.5,0)" xlink:href="#ao"/><use transform="matrix(0.05,0,0,0.05,35.5,0)" xlink:href="#al"/><use transform="matrix(0.05,0,0,0.05,45.5,0)" xlink:href="#aJ"/><use transform="matrix(0.05,0,0,0.05,55.5,0)" xlink:href="#ap"/><use transform="matrix(0.05,0,0,0.05,59.45,0)" xlink:href="#ae"/></g><g id="P"><use transform="matrix(0.05,0,0,0.05,0,0)" xlink:href="#ap"/><use transform="matrix(0.05,0,0,0.05,3.95,0)" xlink:href="#ai"/><use transform="matrix(0.05,0,0,0.05,7.9,0)" xlink:href="#ag"/><use transform="matrix(0.05,0,0,0.05,17.9,0)" xlink:href="#ac"/><use transform="matrix(0.05,0,0,0.05,27.899999999999995,0)" xlink:href="#al"/><use transform="matrix(0.05,0,0,0.05,37.9,0)" xlink:href="#ar"/><use transform="matrix(0.05,0,0,0.05,43.85,0)" xlink:href="#az"/><use transform="matrix(0.05,0,0,0.05,49.800000000000004,0)" xlink:href="#aF"/><use transform="matrix(0.05,0,0,0.05,61.800000000000004,0)" xlink:href="#ae"/><use transform="matrix(0.05,0,0,0.05,66.80000000000001,0)" xlink:href="#ar"/><use transform="matrix(0.05,0,0,0.05,72.75000000000001,0)" xlink:href="#ai"/><use transform="matrix(0.05,0,0,0.05,76.70000000000002,0)" xlink:href="#ag"/><use transform="matrix(0.05,0,0,0.05,86.70000000000002,0)" xlink:href="#ah"/><use transform="matrix(0.05,0,0,0.05,96.70000000000002,0)" xlink:href="#aO"/><use transform="matrix(0.05,0,0,0.05,101.70000000000002,0)" xlink:href="#aq"/><use transform="matrix(0.05,0,0,0.05,113.7,0)" xlink:href="#ar"/><use transform="matrix(0.05,0,0,0.05,119.65000000000003,0)" xlink:href="#ar"/><use transform="matrix(0.05,0,0,0.05,125.60000000000002,0)" xlink:href="#al"/><use transform="matrix(0.05,0,0,0.05,135.60000000000002,0)" xlink:href="#as"/><use transform="matrix(0.05,0,0,0.05,144.60000000000002,0)" xlink:href="#at"/><use transform="matrix(0.05,0,0,0.05,154.60000000000002,0)" xlink:href="#ai"/><use transform="matrix(0.05,0,0,0.05,158.55,0)" xlink:href="#ak"/><use transform="matrix(0.05,0,0,0.05,167.55,0)" xlink:href="#ae"/><use transform="matrix(0.05,0,0,0.05,172.55,0)" xlink:href="#au"/><use transform="matrix(0.05,0,0,0.05,183.05,0)" xlink:href="#aF"/><use transform="matrix(0.05,0,0,0.05,195.05,0)" xlink:href="#ae"/><use transform="matrix(0.05,0,0,0.05,200.05,0)" xlink:href="#ar"/><use transform="matrix(0.05,0,0,0.05,206,0)" xlink:href="#ai"/><use transform="matrix(0.05,0,0,0.05,209.94999999999996,0)" xlink:href="#ag"/><use transform="matrix(0.05,0,0,0.05,219.94999999999996,0)" xlink:href="#ah"/><use transform="matrix(0.05,0,0,0.05,229.94999999999996,0)" xlink:href="#aw"/><use transform="matrix(0.05,0,0,0.05,240.44999999999996,0)" xlink:href="#aA"/><use transform="matrix(0.05,0,0,0.05,246.39999999999998,0)" xlink:href="#an"/><use transform="matrix(0.05,0,0,0.05,251.39999999999998,0)" xlink:href="#ai"/><use transform="matrix(0.05,0,0,0.05,255.34999999999997,0)" xlink:href="#ag"/><use transform="matrix(0.05,0,0,0.05,265.34999999999997,0)" xlink:href="#ae"/></g><path d="M101-251c68 0 85 55 85 127S166 4 100 4C33 4 14-52 14-124c0-73 17-127 87-127zm-1 229c47 0 54-49 54-102s-4-102-53-102c-51 0-55 48-55 102 0 53 5 102 54 102" id="bf"/><path d="M33 0v-38h34V0H33" id="bg"/><path d="M80-196l47-18 7 23-49 13 32 44-20 13-27-46-27 45-21-12 33-44-49-13 8-23 47 19-2-53h23" id="bh"/><g id="Q"><use transform="matrix(0.05,0,0,0.05,0,0)" xlink:href="#bf"/><use transform="matrix(0.05,0,0,0.05,10,0)" xlink:href="#bg"/><use transform="matrix(0.05,0,0,0.05,15,0)" xlink:href="#bg"/><use transform="matrix(0.05,0,0,0.05,20,0)" xlink:href="#bh"/></g><path d="M27 0v-27h64v-190l-56 39v-29l58-41h29v221h61V0H27" id="bi"/><use transform="matrix(0.05,0,0,0.05,0,0)" xlink:href="#bi" id="R"/><path d="M238-95c0 69-44 99-111 99C63 4 22-25 22-93v-155h51v151c-1 38 19 59 55 60 90 1 49-130 58-211h52v153" id="bj"/><path d="M25 0v-261h50V0H25" id="bk"/><path d="M137-138c1-29-70-34-71-4 15 46 118 7 119 86 1 83-164 76-172 9l43-7c4 19 20 25 44 25 33 8 57-30 24-41C81-84 22-81 20-136c-2-80 154-74 161-7" id="bl"/><g id="S"><use transform="matrix(0.05,0,0,0.05,0,0)" xlink:href="#bj"/><use transform="matrix(0.05,0,0,0.05,12.950000000000001,0)" xlink:href="#aT"/><use transform="matrix(0.05,0,0,0.05,18.900000000000002,0)" xlink:href="#aR"/><use transform="matrix(0.05,0,0,0.05,23.900000000000002,0)" xlink:href="#bk"/><use transform="matrix(0.05,0,0,0.05,28.900000000000002,0)" xlink:href="#aR"/><use transform="matrix(0.05,0,0,0.05,33.900000000000006,0)" xlink:href="#aT"/><use transform="matrix(0.05,0,0,0.05,39.85000000000001,0)" xlink:href="#aR"/><use transform="matrix(0.05,0,0,0.05,44.85000000000001,0)" xlink:href="#aU"/><use transform="matrix(0.05,0,0,0.05,54.85,0)" xlink:href="#bl"/></g><path d="M195 0l-74-108L45 0H8l94-129-87-119h37l69 98 67-98h37l-84 118L233 0h-38" id="bm"/><path d="M160-131c35 5 61 23 61 61C221 17 115-2 30 0v-248c76 3 177-17 177 60 0 33-19 50-47 57zm-97-11c50-1 110 9 110-42 0-47-63-36-110-37v79zm0 115c55-2 124 14 124-45 0-56-70-42-124-44v89" id="bn"/><path d="M137-103V0h-34v-103L8-248h37l75 118 75-118h37" id="bo"/><g id="T"><use transform="matrix(0.05,0,0,0.05,0,0)" xlink:href="#ax"/><use transform="matrix(0.05,0,0,0.05,10.5,0)" xlink:href="#ay"/><use transform="matrix(0.05,0,0,0.05,15.5,0)" xlink:href="#ak"/><use transform="matrix(0.05,0,0,0.05,24.5,0)" xlink:href="#bm"/><use transform="matrix(0.05,0,0,0.05,36.5,0)" xlink:href="#bn"/><use transform="matrix(0.05,0,0,0.05,48.5,0)" xlink:href="#ac"/><use transform="matrix(0.05,0,0,0.05,58.5,0)" xlink:href="#ao"/><use transform="matrix(0.05,0,0,0.05,63.5,0)" xlink:href="#aC"/><use transform="matrix(0.05,0,0,0.05,73.5,0)" xlink:href="#ar"/><use transform="matrix(0.05,0,0,0.05,79.45,0)" xlink:href="#ac"/><use transform="matrix(0.05,0,0,0.05,89.45,0)" xlink:href="#bo"/><use transform="matrix(0.05,0,0,0.05,101.45,0)" xlink:href="#az"/><use transform="matrix(0.05,0,0,0.05,107.4,0)" xlink:href="#aF"/><use transform="matrix(0.05,0,0,0.05,119.4,0)" xlink:href="#ae"/><use transform="matrix(0.05,0,0,0.05,124.4,0)" xlink:href="#ar"/><use transform="matrix(0.05,0,0,0.05,130.35,0)" xlink:href="#ai"/><use transform="matrix(0.05,0,0,0.05,134.29999999999998,0)" xlink:href="#ag"/><use transform="matrix(0.05,0,0,0.05,144.29999999999998,0)" xlink:href="#ah"/></g><g id="U"><use transform="matrix(0.05,0,0,0.05,0,0)" xlink:href="#bm"/><use transform="matrix(0.05,0,0,0.05,12,0)" xlink:href="#aO"/></g><g id="V"><use transform="matrix(0.05,0,0,0.05,0,0)" xlink:href="#aF"/><use transform="matrix(0.05,0,0,0.05,12,0)" xlink:href="#ae"/><use transform="matrix(0.05,0,0,0.05,17,0)" xlink:href="#ar"/><use transform="matrix(0.05,0,0,0.05,22.95,0)" xlink:href="#ai"/><use transform="matrix(0.05,0,0,0.05,26.899999999999995,0)" xlink:href="#ag"/><use transform="matrix(0.05,0,0,0.05,36.9,0)" xlink:href="#ah"/></g><g id="W"><use transform="matrix(0.05,0,0,0.05,0,0)" xlink:href="#bo"/><use transform="matrix(0.05,0,0,0.05,12,0)" xlink:href="#aA"/><use transform="matrix(0.05,0,0,0.05,17.95,0)" xlink:href="#an"/><use transform="matrix(0.05,0,0,0.05,22.95,0)" xlink:href="#aM"/><use transform="matrix(0.05,0,0,0.05,32.95,0)" xlink:href="#aC"/><use transform="matrix(0.05,0,0,0.05,42.95,0)" xlink:href="#aC"/><use transform="matrix(0.05,0,0,0.05,52.95,0)" xlink:href="#ap"/><use transform="matrix(0.05,0,0,0.05,56.900000000000006,0)" xlink:href="#ac"/><use transform="matrix(0.05,0,0,0.05,66.9,0)" xlink:href="#al"/><use transform="matrix(0.05,0,0,0.05,76.9,0)" xlink:href="#ag"/></g><g id="X"><use transform="matrix(0.05,0,0,0.05,0,0)" xlink:href="#ax"/><use transform="matrix(0.05,0,0,0.05,10.5,0)" xlink:href="#ar"/><use transform="matrix(0.05,0,0,0.05,16.45,0)" xlink:href="#ac"/><use transform="matrix(0.05,0,0,0.05,26.450000000000003,0)" xlink:href="#aN"/><use transform="matrix(0.05,0,0,0.05,41.4,0)" xlink:href="#aC"/><use transform="matrix(0.05,0,0,0.05,51.400000000000006,0)" xlink:href="#aB"/><use transform="matrix(0.05,0,0,0.05,60.400000000000006,0)" xlink:href="#ac"/><use transform="matrix(0.05,0,0,0.05,70.4,0)" xlink:href="#aF"/><use transform="matrix(0.05,0,0,0.05,82.4,0)" xlink:href="#ai"/><use transform="matrix(0.05,0,0,0.05,86.35000000000001,0)" xlink:href="#ah"/><use transform="matrix(0.05,0,0,0.05,96.35000000000001,0)" xlink:href="#ag"/><use transform="matrix(0.05,0,0,0.05,106.35000000000001,0)" xlink:href="#ak"/><use transform="matrix(0.05,0,0,0.05,115.35000000000001,0)" xlink:href="#az"/><use transform="matrix(0.05,0,0,0.05,121.30000000000001,0)" xlink:href="#aF"/><use transform="matrix(0.05,0,0,0.05,133.3,0)" xlink:href="#ae"/><use transform="matrix(0.05,0,0,0.05,138.3,0)" xlink:href="#ar"/><use transform="matrix(0.05,0,0,0.05,144.25,0)" xlink:href="#ai"/><use transform="matrix(0.05,0,0,0.05,148.2,0)" xlink:href="#ag"/><use transform="matrix(0.05,0,0,0.05,158.2,0)" xlink:href="#ah"/><use transform="matrix(0.05,0,0,0.05,168.2,0)" xlink:href="#aA"/><use transform="matrix(0.05,0,0,0.05,174.14999999999998,0)" xlink:href="#an"/><use transform="matrix(0.05,0,0,0.05,179.14999999999998,0)" xlink:href="#aF"/><use transform="matrix(0.05,0,0,0.05,191.14999999999998,0)" xlink:href="#ae"/><use transform="matrix(0.05,0,0,0.05,196.14999999999998,0)" xlink:href="#ar"/><use transform="matrix(0.05,0,0,0.05,202.09999999999997,0)" xlink:href="#ai"/><use transform="matrix(0.05,0,0,0.05,206.04999999999995,0)" xlink:href="#ag"/><use transform="matrix(0.05,0,0,0.05,216.04999999999995,0)" xlink:href="#ah"/></g><path d="M266 0h-40l-56-210L115 0H75L2-248h35L96-30l15-64 43-154h32l59 218 59-218h35" id="bp"/><g id="Y"><use transform="matrix(0.05,0,0,0.05,0,0)" xlink:href="#ax"/><use transform="matrix(0.05,0,0,0.05,10.5,0)" xlink:href="#ah"/><use transform="matrix(0.05,0,0,0.05,20.5,0)" xlink:href="#ac"/><use transform="matrix(0.05,0,0,0.05,30.5,0)" xlink:href="#ae"/><use transform="matrix(0.05,0,0,0.05,35.5,0)" xlink:href="#av"/><use transform="matrix(0.05,0,0,0.05,46.45,0)" xlink:href="#ai"/><use transform="matrix(0.05,0,0,0.05,50.400000000000006,0)" xlink:href="#ar"/><use transform="matrix(0.05,0,0,0.05,56.35,0)" xlink:href="#ak"/><use transform="matrix(0.05,0,0,0.05,65.35000000000001,0)" xlink:href="#ae"/><use transform="matrix(0.05,0,0,0.05,70.35000000000001,0)" xlink:href="#bp"/><use transform="matrix(0.05,0,0,0.05,86.95000000000002,0)" xlink:href="#aC"/><use transform="matrix(0.05,0,0,0.05,96.95000000000002,0)" xlink:href="#ar"/><use transform="matrix(0.05,0,0,0.05,102.90000000000003,0)" xlink:href="#aD"/><use transform="matrix(0.05,0,0,0.05,112.90000000000003,0)" xlink:href="#az"/><use transform="matrix(0.05,0,0,0.05,118.85000000000002,0)" xlink:href="#aF"/><use transform="matrix(0.05,0,0,0.05,130.85000000000002,0)" xlink:href="#ae"/><use transform="matrix(0.05,0,0,0.05,135.85000000000002,0)" xlink:href="#ar"/><use transform="matrix(0.05,0,0,0.05,141.8,0)" xlink:href="#ai"/><use transform="matrix(0.05,0,0,0.05,145.75,0)" xlink:href="#ag"/><use transform="matrix(0.05,0,0,0.05,155.75,0)" xlink:href="#ah"/><use transform="matrix(0.05,0,0,0.05,165.75,0)" xlink:href="#bn"/><use transform="matrix(0.05,0,0,0.05,177.75,0)" xlink:href="#aJ"/><use transform="matrix(0.05,0,0,0.05,187.75,0)" xlink:href="#ao"/><use transform="matrix(0.05,0,0,0.05,192.4,0)" xlink:href="#ao"/><use transform="matrix(0.05,0,0,0.05,197.4,0)" xlink:href="#ac"/><use transform="matrix(0.05,0,0,0.05,207.4,0)" xlink:href="#ar"/><use transform="matrix(0.05,0,0,0.05,213.35000000000002,0)" xlink:href="#aA"/><use transform="matrix(0.05,0,0,0.05,219.29999999999995,0)" xlink:href="#an"/><use transform="matrix(0.05,0,0,0.05,224.29999999999995,0)" xlink:href="#aF"/><use transform="matrix(0.05,0,0,0.05,236.29999999999995,0)" xlink:href="#ae"/><use transform="matrix(0.05,0,0,0.05,241.29999999999995,0)" xlink:href="#ar"/><use transform="matrix(0.05,0,0,0.05,247.24999999999997,0)" xlink:href="#ai"/><use transform="matrix(0.05,0,0,0.05,251.19999999999996,0)" xlink:href="#ag"/><use transform="matrix(0.05,0,0,0.05,261.19999999999993,0)" xlink:href="#ah"/><use transform="matrix(0.05,0,0,0.05,271.19999999999993,0)" xlink:href="#aK"/><use transform="matrix(0.05,0,0,0.05,276.19999999999993,0)" xlink:href="#aL"/></g><path d="M232-93c-1 65-40 97-104 97C67 4 28-28 28-90v-158h33c8 89-33 224 67 224 102 0 64-133 71-224h33v155" id="bq"/><path d="M240 0l2-218c-23 76-54 145-80 218h-23L58-218 59 0H30v-248h44l77 211c21-75 51-140 76-211h43V0h-30" id="br"/><g id="Z"><use transform="matrix(0.07407407407407408,0,0,0.07407407407407408,0,0)" xlink:href="#bq"/><use transform="matrix(0.07407407407407408,0,0,0.07407407407407408,19.185185185185187,0)" xlink:href="#br"/><use transform="matrix(0.07407407407407408,0,0,0.07407407407407408,41.333333333333336,0)" xlink:href="#at"/></g><g id="aa"><use transform="matrix(0.07407407407407408,0,0,0.07407407407407408,0,0)" xlink:href="#aD"/><use transform="matrix(0.07407407407407408,0,0,0.07407407407407408,14.814814814814817,0)" xlink:href="#ai"/><use transform="matrix(0.07407407407407408,0,0,0.07407407407407408,20.666666666666668,0)" xlink:href="#al"/><use transform="matrix(0.07407407407407408,0,0,0.07407407407407408,35.48148148148149,0)" xlink:href="#ah"/><use transform="matrix(0.07407407407407408,0,0,0.07407407407407408,50.296296296296305,0)" xlink:href="#ar"/><use transform="matrix(0.07407407407407408,0,0,0.07407407407407408,59.11111111111112,0)" xlink:href="#al"/><use transform="matrix(0.07407407407407408,0,0,0.07407407407407408,73.92592592592594,0)" xlink:href="#aN"/><use transform="matrix(0.07407407407407408,0,0,0.07407407407407408,96.07407407407409,0)" xlink:href="#bg"/></g></defs></g></svg>