<svg xmlns="http://www.w3.org/2000/svg" xmlns:xlink="http://www.w3.org/1999/xlink" xmlns:lucid="lucid" width="1239.98" height="1291.2"><g transform="translate(-40 -20)" lucid:page-tab-id="0_0"><path d="M0 0h1870.4v1323.2H0z" fill="#fff"/><path d="M975.2 80c0 22.1-17.9 40-40 40s-40-17.9-40-40 17.9-40 40-40 40 17.9 40 40z" stroke="#000" stroke-width="2" fill="#a3d977"/><use xlink:href="#a" transform="matrix(1,0,0,1,900.1999999999999,45) translate(16.025 38.4625)"/><path d="M975.2 1251.2c0 22.1-17.9 40-40 40s-40-17.9-40-40 17.9-40 40-40 40 17.9 40 40z" stroke="#000" stroke-width="2" fill="#ff8f80"/><use xlink:href="#b" transform="matrix(1,0,0,1,900.1999999999999,1216.1999999999998) translate(19 38.4625)"/><path d="M935.2 300l112.4 84.3-112.4 84.3-112.4-84.3z" stroke="#000" stroke-width="2" fill="#fff"/><use xlink:href="#c" transform="matrix(1,0,0,1,827.7999999999533,305) translate(30.330000000000005 83.9625)"/><use xlink:href="#d" transform="matrix(1,0,0,1,827.7999999999533,305) translate(79.33000000000001 83.9625)"/><use xlink:href="#e" transform="matrix(1,0,0,1,827.7999999999533,305) translate(94.83 83.9625)"/><path d="M855.2 180h160v60h-160z" stroke="#000" stroke-width="2" fill="#fff"/><use xlink:href="#f" transform="matrix(1,0,0,1,860.1999999999534,185) translate(38.275 30.025)"/><use xlink:href="#g" transform="matrix(1,0,0,1,860.1999999999534,185) translate(86.225 30.025)"/><use xlink:href="#h" transform="matrix(1,0,0,1,860.1999999999534,185) translate(101.725 30.025)"/><path d="M935.2 122v38.5" stroke="#000" stroke-width="2" fill="none"/><path d="M935.2 121l1-.03v1.06h-2v-1.1z"/><path d="M935.2 175.76l-4.64-14.26h9.28z" stroke="#000" stroke-width="2"/><path d="M935.2 242v38.25" stroke="#000" stroke-width="2" fill="none"/><path d="M936.2 242.03h-2V241h2z"/><path d="M935.2 295.5l-4.64-14.25h9.28z" stroke="#000" stroke-width="2"/><path d="M1112.4 493.68V501h-2v-5.32h-71.63v-2zm-104.58 0v2H934.2v-24.83h2v22.82z"/><path d="M936.2 470.88h-2v-1.78l1 .75 1-.75zM1111.4 516.26l-4.64-14.26h9.28z"/><path d="M1111.4 519.5l-6-18.5h12zm-3.26-16.5l3.26 10.03 3.26-10.03z"/><use xlink:href="#i" transform="matrix(1,0,0,1,1007.8250000000048,483.875) translate(0 14.4)"/><path d="M935.2 682.57l100 77.06-100 77.05-100-77.05z" stroke="#000" stroke-width="2" fill="#fff"/><use xlink:href="#j" transform="matrix(1,0,0,1,840.1999999999534,687.5717656987886) translate(10.40500000000001 74.41)"/><use xlink:href="#k" transform="matrix(1,0,0,1,840.1999999999534,687.5717656987886) translate(80.005 96.01)"/><use xlink:href="#l" transform="matrix(1,0,0,1,840.1999999999534,687.5717656987886) translate(77.78 117.61000000000001)"/><use xlink:href="#m" transform="matrix(1,0,0,1,840.1999999999534,687.5717656987886) translate(86.73 117.61000000000001)"/><use xlink:href="#n" transform="matrix(1,0,0,1,840.1999999999534,687.5717656987886) translate(102.23 117.61000000000001)"/><path d="M1015.2 520.5h192.4v96.2h-192.4z" stroke="#000" stroke-width="2" fill="#fff"/><use xlink:href="#o" transform="matrix(1,0,0,1,1020.1999999999999,525.5000000000001) translate(62.8 36.15)"/><use xlink:href="#p" transform="matrix(1,0,0,1,1020.1999999999999,525.5000000000001) translate(6.375 57.75)"/><use xlink:href="#g" transform="matrix(1,0,0,1,1020.1999999999999,525.5000000000001) translate(86.275 57.75)"/><use xlink:href="#q" transform="matrix(1,0,0,1,1020.1999999999999,525.5000000000001) translate(101.775 57.75)"/><path d="M1111.4 618.7v30.8H935.2v13.3" stroke="#000" stroke-width="2" fill="none"/><path d="M1112.4 618.73h-2v-1.03h2z"/><path d="M935.2 678.07l-4.64-14.26h9.28z" stroke="#000" stroke-width="2"/><path d="M840 897.5h175.2v116.35H840z" stroke="#000" stroke-width="2" fill="#fff"/><use xlink:href="#r" transform="matrix(1,0,0,1,845,902.5063936595096) translate(5.174999999999997 47.8375)"/><use xlink:href="#s" transform="matrix(1,0,0,1,845,902.5063936595096) translate(76.075 47.8375)"/><use xlink:href="#t" transform="matrix(1,0,0,1,845,902.5063936595096) translate(126.925 47.8375)"/><use xlink:href="#l" transform="matrix(1,0,0,1,845,902.5063936595096) translate(60.825 69.4375)"/><use xlink:href="#g" transform="matrix(1,0,0,1,845,902.5063936595096) translate(69.775 69.4375)"/><use xlink:href="#u" transform="matrix(1,0,0,1,845,902.5063936595096) translate(85.275 69.4375)"/><path d="M936.2 856.43h-2v-17.5h2z"/><path d="M936.2 838.97h-2v-1.8l1 .77 1-.77zM927.6 893.27L922.96 879h9.28z"/><path d="M927.6 896.5l-6-18.47h12zm-3.26-16.5l3.26 10.03 3.26-10.03z"/><use xlink:href="#i" transform="matrix(1,0,0,1,915.9249999999766,856.4250920749344) translate(0 14.4)"/><path d="M1017.2 955.68H1140V759.63h-84.66" stroke="#000" stroke-width="2" fill="none"/><path d="M1017.23 956.68h-1.03v-2h1.03z"/><path d="M1040.07 759.63l14.27-4.64v9.26z" stroke="#000" stroke-width="2"/><path d="M855.2 1040h160v120h-160z" stroke="#000" stroke-width="2" fill="#fff"/><use xlink:href="#v" transform="matrix(1,0,0,1,860.1999999999999,1045) translate(1.125 59.0875)"/><use xlink:href="#w" transform="matrix(1,0,0,1,860.1999999999999,1045) translate(53.025 59.0875)"/><use xlink:href="#x" transform="matrix(1,0,0,1,860.1999999999999,1045) translate(107.975 59.0875)"/><path d="M935.2 1162v29.7" stroke="#000" stroke-width="2" fill="none"/><path d="M936.2 1162.03h-2V1161h2z"/><path d="M935.2 1206.96l-4.64-14.26h9.28z" stroke="#000" stroke-width="2"/><path d="M1251 1101h-216.3v-2H1249V769.48h2zm0-353.12h-2V385.3h-198.73v-2H1251z"/><path d="M1050.3 385.3h-2.37l1.34-1-1.34-1h2.36zM1033.7 1104.64l-14.26-4.64 14.26-4.64z"/><path d="M1034.7 1106l-18.5-6 18.5-6zm-12.03-6l10.03 3.26v-6.52z"/><g><use xlink:href="#y" transform="matrix(1,0,0,1,1231.025,747.88333333331) translate(0 14.4)"/></g><path d="M640 513.75h200v96.4H640z" stroke="#000" stroke-width="2" fill="#fff"/><g><use xlink:href="#z" transform="matrix(1,0,0,1,645,518.7500000000116) translate(3.625 25.275)"/><use xlink:href="#A" transform="matrix(1,0,0,1,645,518.7500000000116) translate(35.625 25.275)"/><use xlink:href="#B" transform="matrix(1,0,0,1,645,518.7500000000116) translate(115.525 25.275)"/><use xlink:href="#C" transform="matrix(1,0,0,1,645,518.7500000000116) translate(134.475 25.275)"/><use xlink:href="#D" transform="matrix(1,0,0,1,645,518.7500000000116) translate(143.42499999999998 25.275)"/><use xlink:href="#E" transform="matrix(1,0,0,1,645,518.7500000000116) translate(63.275 46.875)"/><use xlink:href="#F" transform="matrix(1,0,0,1,645,518.7500000000116) translate(95 68.47500000000001)"/></g><path d="M741 758.63h91.56v2H739v-17.66h2zm0-37.26h-2v-91.72h2z"/><path d="M833.56 759.63l1.3 1h-2.32v-2h2.32zM744.64 628.65h-9.28L740 614.4z"/><path d="M746 629.65h-12l6-18.5zm-9.26-2h6.52L740 617.62z"/><g><use xlink:href="#y" transform="matrix(1,0,0,1,721.025,721.3690998638127) translate(0 14.4)"/></g><path d="M740 511.75V384.3h62.63" stroke="#000" stroke-width="2" fill="none"/><path d="M741 512.75h-2v-1.03h2z"/><path d="M817.9 384.3l-14.27 4.64v-9.28z" stroke="#000" stroke-width="2"/><path d="M60 40h460v160H60z" stroke="#000" stroke-width="2" fill="#99d2f2"/><g><use xlink:href="#G" transform="matrix(1,0,0,1,65,45) translate(130.33333333333331 63.520833333333336)"/><use xlink:href="#H" transform="matrix(1,0,0,1,65,45) translate(239.81481481481478 63.520833333333336)"/><use xlink:href="#I" transform="matrix(1,0,0,1,65,45) translate(137.81481481481484 95.52083333333334)"/></g><defs><path d="M185-189c-5-48-123-54-124 2 14 75 158 14 163 119 3 78-121 87-175 55-17-10-28-26-33-46l33-7c5 56 141 63 141-1 0-78-155-14-162-118-5-82 145-84 179-34 5 7 8 16 11 25" id="J"/><path d="M59-47c-2 24 18 29 38 22v24C64 9 27 4 27-40v-127H5v-23h24l9-43h21v43h35v23H59v120" id="K"/><path d="M141-36C126-15 110 5 73 4 37 3 15-17 15-53c-1-64 63-63 125-63 3-35-9-54-41-54-24 1-41 7-42 31l-33-3c5-37 33-52 76-52 45 0 72 20 72 64v82c-1 20 7 32 28 27v20c-31 9-61-2-59-35zM48-53c0 20 12 33 32 33 41-3 63-29 60-74-43 2-92-5-92 41" id="L"/><path d="M114-163C36-179 61-72 57 0H25l-1-190h30c1 12-1 29 2 39 6-27 23-49 58-41v29" id="M"/><g id="a"><use transform="matrix(0.05,0,0,0.05,0,0)" xlink:href="#J"/><use transform="matrix(0.05,0,0,0.05,12,0)" xlink:href="#K"/><use transform="matrix(0.05,0,0,0.05,17,0)" xlink:href="#L"/><use transform="matrix(0.05,0,0,0.05,27,0)" xlink:href="#M"/><use transform="matrix(0.05,0,0,0.05,32.95,0)" xlink:href="#K"/></g><path d="M30 0v-248h187v28H63v79h144v27H63v87h162V0H30" id="N"/><path d="M117-194c89-4 53 116 60 194h-32v-121c0-31-8-49-39-48C34-167 62-67 57 0H25l-1-190h30c1 10-1 24 2 32 11-22 29-35 61-36" id="O"/><path d="M85-194c31 0 48 13 60 33l-1-100h32l1 261h-30c-2-10 0-23-3-31C134-8 116 4 85 4 32 4 16-35 15-94c0-66 23-100 70-100zm9 24c-40 0-46 34-46 75 0 40 6 74 45 74 42 0 51-32 51-76 0-42-9-74-50-73" id="P"/><g id="b"><use transform="matrix(0.05,0,0,0.05,0,0)" xlink:href="#N"/><use transform="matrix(0.05,0,0,0.05,12,0)" xlink:href="#O"/><use transform="matrix(0.05,0,0,0.05,22,0)" xlink:href="#P"/></g><path d="M33 0v-248h34V0H33" id="Q"/><path d="M100-194c63 0 86 42 84 106H49c0 40 14 67 53 68 26 1 43-12 49-29l28 8c-11 28-37 45-77 45C44 4 14-33 15-96c1-61 26-98 85-98zm52 81c6-60-76-77-97-28-3 7-6 17-6 28h103" id="R"/><path d="M141 0L90-78 38 0H4l68-98-65-92h35l48 74 47-74h35l-64 92 68 98h-35" id="S"/><g id="c"><use transform="matrix(0.05,0,0,0.05,0,0)" xlink:href="#Q"/><use transform="matrix(0.05,0,0,0.05,5,0)" xlink:href="#O"/><use transform="matrix(0.05,0,0,0.05,15,0)" xlink:href="#P"/><use transform="matrix(0.05,0,0,0.05,25,0)" xlink:href="#R"/><use transform="matrix(0.05,0,0,0.05,35,0)" xlink:href="#S"/></g><path d="M18-100v-36l175-74v27L42-118l151 64v27" id="T"/><use transform="matrix(0.05,0,0,0.05,0,0)" xlink:href="#T" id="d"/><path d="M179-190L93 31C79 59 56 82 12 73V49c39 6 53-20 64-50L1-190h34L92-34l54-156h33" id="U"/><path d="M24 0v-261h32V0H24" id="V"/><path d="M177-190C167-65 218 103 67 71c-23-6-38-20-44-43l32-5c15 47 100 32 89-28v-30C133-14 115 1 83 1 29 1 15-40 15-95c0-56 16-97 71-98 29-1 48 16 59 35 1-10 0-23 2-32h30zM94-22c36 0 50-32 50-73 0-42-14-75-50-75-39 0-46 34-46 75s6 73 46 73" id="W"/><path d="M106-169C34-169 62-67 57 0H25v-261h32l-1 103c12-21 28-36 61-36 89 0 53 116 60 194h-32v-121c2-32-8-49-39-48" id="X"/><g id="e"><use transform="matrix(0.05,0,0,0.05,0,0)" xlink:href="#L"/><use transform="matrix(0.05,0,0,0.05,10,0)" xlink:href="#M"/><use transform="matrix(0.05,0,0,0.05,15.949999999999998,0)" xlink:href="#M"/><use transform="matrix(0.05,0,0,0.05,21.9,0)" xlink:href="#L"/><use transform="matrix(0.05,0,0,0.05,31.899999999999995,0)" xlink:href="#U"/><use transform="matrix(0.05,0,0,0.05,40.9,0)" xlink:href="#V"/><use transform="matrix(0.05,0,0,0.05,44.85,0)" xlink:href="#R"/><use transform="matrix(0.05,0,0,0.05,54.85,0)" xlink:href="#O"/><use transform="matrix(0.05,0,0,0.05,64.85,0)" xlink:href="#W"/><use transform="matrix(0.05,0,0,0.05,74.85,0)" xlink:href="#K"/><use transform="matrix(0.05,0,0,0.05,79.85,0)" xlink:href="#X"/></g><path d="M24-231v-30h32v30H24zM24 0v-190h32V0H24" id="Y"/><g id="f"><use transform="matrix(0.05,0,0,0.05,0,0)" xlink:href="#Y"/><use transform="matrix(0.05,0,0,0.05,3.95,0)" xlink:href="#O"/><use transform="matrix(0.05,0,0,0.05,13.949999999999998,0)" xlink:href="#P"/><use transform="matrix(0.05,0,0,0.05,23.95,0)" xlink:href="#R"/><use transform="matrix(0.05,0,0,0.05,33.95,0)" xlink:href="#S"/></g><path d="M18-150v-26h174v26H18zm0 90v-26h174v26H18" id="Z"/><use transform="matrix(0.05,0,0,0.05,0,0)" xlink:href="#Z" id="g"/><path d="M27 0v-27h64v-190l-56 39v-29l58-41h29v221h61V0H27" id="aa"/><use transform="matrix(0.05,0,0,0.05,0,0)" xlink:href="#aa" id="h"/><path d="M84 4C-5 8 30-112 23-190h32v120c0 31 7 50 39 49 72-2 45-101 50-169h31l1 190h-30c-1-10 1-25-2-33-11 22-28 36-60 37" id="ab"/><g id="i"><use transform="matrix(0.05,0,0,0.05,0,0)" xlink:href="#K"/><use transform="matrix(0.05,0,0,0.05,5,0)" xlink:href="#M"/><use transform="matrix(0.05,0,0,0.05,10.95,0)" xlink:href="#ab"/><use transform="matrix(0.05,0,0,0.05,20.95,0)" xlink:href="#R"/></g><path d="M210-169c-67 3-38 105-44 169h-31v-121c0-29-5-50-35-48C34-165 62-65 56 0H25l-1-190h30c1 10-1 24 2 32 10-44 99-50 107 0 11-21 27-35 58-36 85-2 47 119 55 194h-31v-121c0-29-5-49-35-48" id="ac"/><path d="M115-194c55 1 70 41 70 98S169 2 115 4C84 4 66-9 55-30l1 105H24l-1-265h31l2 30c10-21 28-34 59-34zm-8 174c40 0 45-34 45-75s-6-73-45-74c-42 0-51 32-51 76 0 43 10 73 51 73" id="ad"/><path d="M26 75v-336h71v23H56V52h41v23H26" id="ae"/><path d="M24-231v-30h32v30H24zM-9 49c24 4 33-6 33-30v-209h32V24c2 40-23 58-65 49V49" id="af"/><path d="M16-82v-28h88v28H16" id="ag"/><path d="M3 75V52h41v-290H3v-23h71V75H3" id="ah"/><g id="j"><use transform="matrix(0.05,0,0,0.05,0,0)" xlink:href="#K"/><use transform="matrix(0.05,0,0,0.05,5,0)" xlink:href="#R"/><use transform="matrix(0.05,0,0,0.05,15,0)" xlink:href="#ac"/><use transform="matrix(0.05,0,0,0.05,29.950000000000003,0)" xlink:href="#ad"/><use transform="matrix(0.05,0,0,0.05,39.95,0)" xlink:href="#Q"/><use transform="matrix(0.05,0,0,0.05,44.95,0)" xlink:href="#K"/><use transform="matrix(0.05,0,0,0.05,49.95,0)" xlink:href="#R"/><use transform="matrix(0.05,0,0,0.05,59.95,0)" xlink:href="#ac"/><use transform="matrix(0.05,0,0,0.05,74.9,0)" xlink:href="#T"/><use transform="matrix(0.05,0,0,0.05,85.4,0)" xlink:href="#Y"/><use transform="matrix(0.05,0,0,0.05,89.35000000000001,0)" xlink:href="#K"/><use transform="matrix(0.05,0,0,0.05,94.35000000000001,0)" xlink:href="#R"/><use transform="matrix(0.05,0,0,0.05,104.35000000000001,0)" xlink:href="#ac"/><use transform="matrix(0.05,0,0,0.05,119.30000000000001,0)" xlink:href="#ae"/><use transform="matrix(0.05,0,0,0.05,124.30000000000001,0)" xlink:href="#af"/><use transform="matrix(0.05,0,0,0.05,128.25,0)" xlink:href="#ag"/><use transform="matrix(0.05,0,0,0.05,134.2,0)" xlink:href="#aa"/><use transform="matrix(0.05,0,0,0.05,144.2,0)" xlink:href="#ah"/><use transform="matrix(0.05,0,0,0.05,149.2,0)" xlink:href="#ae"/><use transform="matrix(0.05,0,0,0.05,154.2,0)" xlink:href="#aa"/><use transform="matrix(0.05,0,0,0.05,164.2,0)" xlink:href="#ah"/></g><g id="k"><use transform="matrix(0.05,0,0,0.05,0,0)" xlink:href="#L"/><use transform="matrix(0.05,0,0,0.05,10,0)" xlink:href="#O"/><use transform="matrix(0.05,0,0,0.05,20,0)" xlink:href="#P"/></g><use transform="matrix(0.05,0,0,0.05,0,0)" xlink:href="#af" id="l"/><path d="M18-27v-27l151-64-151-65v-27l175 74v36" id="ai"/><use transform="matrix(0.05,0,0,0.05,0,0)" xlink:href="#ai" id="m"/><path d="M101-251c68 0 85 55 85 127S166 4 100 4C33 4 14-52 14-124c0-73 17-127 87-127zm-1 229c47 0 54-49 54-102s-4-102-53-102c-51 0-55 48-55 102 0 53 5 102 54 102" id="aj"/><use transform="matrix(0.05,0,0,0.05,0,0)" xlink:href="#aj" id="n"/><g id="o"><use transform="matrix(0.05,0,0,0.05,0,0)" xlink:href="#af"/><use transform="matrix(0.05,0,0,0.05,3.95,0)" xlink:href="#Z"/><use transform="matrix(0.05,0,0,0.05,14.449999999999998,0)" xlink:href="#Y"/><use transform="matrix(0.05,0,0,0.05,18.4,0)" xlink:href="#O"/><use transform="matrix(0.05,0,0,0.05,28.399999999999995,0)" xlink:href="#P"/><use transform="matrix(0.05,0,0,0.05,38.4,0)" xlink:href="#R"/><use transform="matrix(0.05,0,0,0.05,48.4,0)" xlink:href="#S"/></g><g id="p"><use transform="matrix(0.05,0,0,0.05,0,0)" xlink:href="#K"/><use transform="matrix(0.05,0,0,0.05,5,0)" xlink:href="#R"/><use transform="matrix(0.05,0,0,0.05,15,0)" xlink:href="#ac"/><use transform="matrix(0.05,0,0,0.05,29.950000000000003,0)" xlink:href="#ad"/><use transform="matrix(0.05,0,0,0.05,39.95,0)" xlink:href="#Q"/><use transform="matrix(0.05,0,0,0.05,44.95,0)" xlink:href="#K"/><use transform="matrix(0.05,0,0,0.05,49.95,0)" xlink:href="#R"/><use transform="matrix(0.05,0,0,0.05,59.95,0)" xlink:href="#ac"/></g><g id="q"><use transform="matrix(0.05,0,0,0.05,0,0)" xlink:href="#L"/><use transform="matrix(0.05,0,0,0.05,10,0)" xlink:href="#M"/><use transform="matrix(0.05,0,0,0.05,15.949999999999998,0)" xlink:href="#M"/><use transform="matrix(0.05,0,0,0.05,21.9,0)" xlink:href="#L"/><use transform="matrix(0.05,0,0,0.05,31.899999999999995,0)" xlink:href="#U"/><use transform="matrix(0.05,0,0,0.05,40.9,0)" xlink:href="#ae"/><use transform="matrix(0.05,0,0,0.05,45.9,0)" xlink:href="#af"/><use transform="matrix(0.05,0,0,0.05,49.85,0)" xlink:href="#ah"/><use transform="matrix(0.05,0,0,0.05,54.85,0)" xlink:href="#ae"/><use transform="matrix(0.05,0,0,0.05,59.85,0)" xlink:href="#aa"/><use transform="matrix(0.05,0,0,0.05,69.85,0)" xlink:href="#ah"/></g><path d="M233-177c-1 41-23 64-60 70L243 0h-38l-65-103H63V0H30v-248c88 3 205-21 203 71zM63-129c60-2 137 13 137-47 0-61-80-42-137-45v92" id="ak"/><path d="M96-169c-40 0-48 33-48 73s9 75 48 75c24 0 41-14 43-38l32 2c-6 37-31 61-74 61-59 0-76-41-82-99-10-93 101-131 147-64 4 7 5 14 7 22l-32 3c-4-21-16-35-41-35" id="al"/><g id="r"><use transform="matrix(0.05,0,0,0.05,0,0)" xlink:href="#ak"/><use transform="matrix(0.05,0,0,0.05,12.950000000000001,0)" xlink:href="#R"/><use transform="matrix(0.05,0,0,0.05,22.950000000000003,0)" xlink:href="#ad"/><use transform="matrix(0.05,0,0,0.05,32.95,0)" xlink:href="#V"/><use transform="matrix(0.05,0,0,0.05,36.900000000000006,0)" xlink:href="#L"/><use transform="matrix(0.05,0,0,0.05,46.900000000000006,0)" xlink:href="#al"/><use transform="matrix(0.05,0,0,0.05,55.900000000000006,0)" xlink:href="#R"/></g><g id="s"><use transform="matrix(0.05,0,0,0.05,0,0)" xlink:href="#V"/><use transform="matrix(0.05,0,0,0.05,3.95,0)" xlink:href="#L"/><use transform="matrix(0.05,0,0,0.05,13.949999999999998,0)" xlink:href="#M"/><use transform="matrix(0.05,0,0,0.05,19.9,0)" xlink:href="#W"/><use transform="matrix(0.05,0,0,0.05,29.899999999999995,0)" xlink:href="#R"/><use transform="matrix(0.05,0,0,0.05,39.9,0)" xlink:href="#M"/></g><g id="t"><use transform="matrix(0.05,0,0,0.05,0,0)" xlink:href="#Y"/><use transform="matrix(0.05,0,0,0.05,3.95,0)" xlink:href="#K"/><use transform="matrix(0.05,0,0,0.05,8.95,0)" xlink:href="#R"/><use transform="matrix(0.05,0,0,0.05,18.95,0)" xlink:href="#ac"/></g><g id="u"><use transform="matrix(0.05,0,0,0.05,0,0)" xlink:href="#af"/><use transform="matrix(0.05,0,0,0.05,3.95,0)" xlink:href="#ag"/><use transform="matrix(0.05,0,0,0.05,9.9,0)" xlink:href="#aa"/></g><g id="v"><use transform="matrix(0.05,0,0,0.05,0,0)" xlink:href="#M"/><use transform="matrix(0.05,0,0,0.05,5.95,0)" xlink:href="#R"/><use transform="matrix(0.05,0,0,0.05,15.949999999999998,0)" xlink:href="#K"/><use transform="matrix(0.05,0,0,0.05,20.95,0)" xlink:href="#ab"/><use transform="matrix(0.05,0,0,0.05,30.950000000000003,0)" xlink:href="#M"/><use transform="matrix(0.05,0,0,0.05,36.9,0)" xlink:href="#O"/></g><path d="M135-143c-3-34-86-38-87 0 15 53 115 12 119 90S17 21 10-45l28-5c4 36 97 45 98 0-10-56-113-15-118-90-4-57 82-63 122-42 12 7 21 19 24 35" id="am"/><path d="M100-194c62-1 85 37 85 99 1 63-27 99-86 99S16-35 15-95c0-66 28-99 85-99zM99-20c44 1 53-31 53-75 0-43-8-75-51-75s-53 32-53 75 10 74 51 75" id="an"/><g id="w"><use transform="matrix(0.05,0,0,0.05,0,0)" xlink:href="#am"/><use transform="matrix(0.05,0,0,0.05,9,0)" xlink:href="#an"/><use transform="matrix(0.05,0,0,0.05,19,0)" xlink:href="#M"/><use transform="matrix(0.05,0,0,0.05,24.95,0)" xlink:href="#K"/><use transform="matrix(0.05,0,0,0.05,29.950000000000003,0)" xlink:href="#R"/><use transform="matrix(0.05,0,0,0.05,39.95,0)" xlink:href="#P"/></g><g id="x"><use transform="matrix(0.05,0,0,0.05,0,0)" xlink:href="#L"/><use transform="matrix(0.05,0,0,0.05,10,0)" xlink:href="#M"/><use transform="matrix(0.05,0,0,0.05,15.949999999999998,0)" xlink:href="#M"/><use transform="matrix(0.05,0,0,0.05,21.9,0)" xlink:href="#L"/><use transform="matrix(0.05,0,0,0.05,31.899999999999995,0)" xlink:href="#U"/></g><path d="M101-234c-31-9-42 10-38 44h38v23H63V0H32v-167H5v-23h27c-7-52 17-82 69-68v24" id="ao"/><g id="y"><use transform="matrix(0.05,0,0,0.05,0,0)" xlink:href="#ao"/><use transform="matrix(0.05,0,0,0.05,5,0)" xlink:href="#L"/><use transform="matrix(0.05,0,0,0.05,15,0)" xlink:href="#V"/><use transform="matrix(0.05,0,0,0.05,18.95,0)" xlink:href="#am"/><use transform="matrix(0.05,0,0,0.05,27.950000000000003,0)" xlink:href="#R"/></g><g id="z"><use transform="matrix(0.05,0,0,0.05,0,0)" xlink:href="#J"/><use transform="matrix(0.05,0,0,0.05,12,0)" xlink:href="#R"/><use transform="matrix(0.05,0,0,0.05,22,0)" xlink:href="#K"/></g><g id="A"><use transform="matrix(0.05,0,0,0.05,0,0)" xlink:href="#K"/><use transform="matrix(0.05,0,0,0.05,5,0)" xlink:href="#R"/><use transform="matrix(0.05,0,0,0.05,15,0)" xlink:href="#ac"/><use transform="matrix(0.05,0,0,0.05,29.950000000000003,0)" xlink:href="#ad"/><use transform="matrix(0.05,0,0,0.05,39.95,0)" xlink:href="#Q"/><use transform="matrix(0.05,0,0,0.05,44.95,0)" xlink:href="#K"/><use transform="matrix(0.05,0,0,0.05,49.95,0)" xlink:href="#R"/><use transform="matrix(0.05,0,0,0.05,59.95,0)" xlink:href="#ac"/></g><g id="B"><use transform="matrix(0.05,0,0,0.05,0,0)" xlink:href="#Y"/><use transform="matrix(0.05,0,0,0.05,3.95,0)" xlink:href="#O"/></g><use transform="matrix(0.05,0,0,0.05,0,0)" xlink:href="#af" id="C"/><g id="D"><use transform="matrix(0.05,0,0,0.05,0,0)" xlink:href="#ad"/><use transform="matrix(0.05,0,0,0.05,10,0)" xlink:href="#V"/><use transform="matrix(0.05,0,0,0.05,13.949999999999998,0)" xlink:href="#L"/><use transform="matrix(0.05,0,0,0.05,23.95,0)" xlink:href="#al"/><use transform="matrix(0.05,0,0,0.05,32.95,0)" xlink:href="#R"/></g><path d="M118-107v75H92v-75H18v-26h74v-75h26v75h74v26h-74" id="ap"/><g id="E"><use transform="matrix(0.05,0,0,0.05,0,0)" xlink:href="#Y"/><use transform="matrix(0.05,0,0,0.05,3.95,0)" xlink:href="#O"/><use transform="matrix(0.05,0,0,0.05,13.949999999999998,0)" xlink:href="#P"/><use transform="matrix(0.05,0,0,0.05,23.95,0)" xlink:href="#R"/><use transform="matrix(0.05,0,0,0.05,33.95,0)" xlink:href="#S"/><use transform="matrix(0.05,0,0,0.05,42.95,0)" xlink:href="#ap"/><use transform="matrix(0.05,0,0,0.05,53.45,0)" xlink:href="#aa"/></g><g id="G"><use transform="matrix(0.07407407407407408,0,0,0.07407407407407408,0,0)" xlink:href="#Q"/><use transform="matrix(0.07407407407407408,0,0,0.07407407407407408,7.407407407407408,0)" xlink:href="#O"/><use transform="matrix(0.07407407407407408,0,0,0.07407407407407408,22.222222222222225,0)" xlink:href="#am"/><use transform="matrix(0.07407407407407408,0,0,0.07407407407407408,35.55555555555556,0)" xlink:href="#R"/><use transform="matrix(0.07407407407407408,0,0,0.07407407407407408,50.370370370370374,0)" xlink:href="#M"/><use transform="matrix(0.07407407407407408,0,0,0.07407407407407408,59.18518518518519,0)" xlink:href="#K"/><use transform="matrix(0.07407407407407408,0,0,0.07407407407407408,66.5925925925926,0)" xlink:href="#Y"/><use transform="matrix(0.07407407407407408,0,0,0.07407407407407408,72.44444444444444,0)" xlink:href="#an"/><use transform="matrix(0.07407407407407408,0,0,0.07407407407407408,87.25925925925927,0)" xlink:href="#O"/></g><g id="H"><use transform="matrix(0.07407407407407408,0,0,0.07407407407407408,0,0)" xlink:href="#am"/><use transform="matrix(0.07407407407407408,0,0,0.07407407407407408,13.333333333333336,0)" xlink:href="#an"/><use transform="matrix(0.07407407407407408,0,0,0.07407407407407408,28.148148148148152,0)" xlink:href="#M"/><use transform="matrix(0.07407407407407408,0,0,0.07407407407407408,36.96296296296297,0)" xlink:href="#K"/><use transform="matrix(0.07407407407407408,0,0,0.07407407407407408,44.37037037037039,0)" xlink:href="#Y"/><use transform="matrix(0.07407407407407408,0,0,0.07407407407407408,50.222222222222236,0)" xlink:href="#O"/><use transform="matrix(0.07407407407407408,0,0,0.07407407407407408,65.03703703703705,0)" xlink:href="#W"/></g><path d="M33 0v-38h34V0H33" id="aq"/><path d="M87 75C49 33 22-17 22-94c0-76 28-126 65-167h31c-38 41-64 92-64 168S80 34 118 75H87" id="ar"/><path d="M33-261c38 41 65 92 65 168S71 34 33 75H2C39 34 66-17 66-93S39-220 2-261h31" id="as"/><g id="I"><use transform="matrix(0.07407407407407408,0,0,0.07407407407407408,0,0)" xlink:href="#J"/><use transform="matrix(0.07407407407407408,0,0,0.07407407407407408,17.77777777777778,0)" xlink:href="#an"/><use transform="matrix(0.07407407407407408,0,0,0.07407407407407408,32.592592592592595,0)" xlink:href="#M"/><use transform="matrix(0.07407407407407408,0,0,0.07407407407407408,41.40740740740741,0)" xlink:href="#K"/><use transform="matrix(0.07407407407407408,0,0,0.07407407407407408,48.814814814814824,0)" xlink:href="#aq"/><use transform="matrix(0.07407407407407408,0,0,0.07407407407407408,56.22222222222223,0)" xlink:href="#Y"/><use transform="matrix(0.07407407407407408,0,0,0.07407407407407408,62.07407407407408,0)" xlink:href="#O"/><use transform="matrix(0.07407407407407408,0,0,0.07407407407407408,76.8888888888889,0)" xlink:href="#am"/><use transform="matrix(0.07407407407407408,0,0,0.07407407407407408,90.22222222222223,0)" xlink:href="#R"/><use transform="matrix(0.07407407407407408,0,0,0.07407407407407408,105.03703703703704,0)" xlink:href="#M"/><use transform="matrix(0.07407407407407408,0,0,0.07407407407407408,113.85185185185185,0)" xlink:href="#K"/><use transform="matrix(0.07407407407407408,0,0,0.07407407407407408,121.25925925925925,0)" xlink:href="#Y"/><use transform="matrix(0.07407407407407408,0,0,0.07407407407407408,127.1111111111111,0)" xlink:href="#an"/><use transform="matrix(0.07407407407407408,0,0,0.07407407407407408,141.92592592592592,0)" xlink:href="#O"/><use transform="matrix(0.07407407407407408,0,0,0.07407407407407408,156.74074074074073,0)" xlink:href="#ar"/><use transform="matrix(0.07407407407407408,0,0,0.07407407407407408,165.55555555555554,0)" xlink:href="#as"/></g></defs></g></svg>