<svg xmlns="http://www.w3.org/2000/svg" xmlns:xlink="http://www.w3.org/1999/xlink" xmlns:lucid="lucid" width="1838.4" height="1300"><g transform="translate(-20 -40)" lucid:page-tab-id="kjQMAwc2qhHW"><path d="M0 0h1870.4v1323.2H0z" fill="#fff"/><path d="M1318.4 60h520v160h-520z" stroke="#000" stroke-width="2" fill="#99d2f2"/><use xlink:href="#a" transform="matrix(1,0,0,1,1323.3999999999999,65) translate(177.33333333333331 63.520833333333336)"/><use xlink:href="#b" transform="matrix(1,0,0,1,1323.3999999999999,65) translate(252.81481481481478 63.520833333333336)"/><use xlink:href="#c" transform="matrix(1,0,0,1,1323.3999999999999,65) translate(24.333333333333343 95.52083333333334)"/><path d="M900 220h160v120H900z" stroke="#000" stroke-width="2" fill="#fff"/><use xlink:href="#d" transform="matrix(1,0,0,1,905,225) translate(56.025 59.0875)"/><path d="M980 342v238.5" stroke="#000" stroke-width="2" fill="none"/><path d="M981 342.03h-2V341h2z"/><path d="M980 595.76l-4.64-14.26h9.28z" stroke="#000" stroke-width="2"/><path d="M900 600h160v120H900z" stroke="#000" stroke-width="2" fill="#fff"/><use xlink:href="#e" transform="matrix(1,0,0,1,905,605) translate(31.799999999999997 48.775)"/><use xlink:href="#f" transform="matrix(1,0,0,1,905,605) translate(107.7 48.775)"/><use xlink:href="#g" transform="matrix(1,0,0,1,905,605) translate(36.025 70.375)"/><path d="M981 820.5h-2v-35.8h2zm0-57.4h-2V722h2z"/><path d="M981 722.03h-2V721h2zM980 835.76l-4.64-14.26h9.28z"/><path d="M980 839l-6-18.5h12zm-3.26-16.5l3.26 10.03 3.26-10.03z"/><use xlink:href="#h" transform="matrix(1,0,0,1,961.875,763.093003162413) translate(0 14.4)"/><path d="M900 840h160v120H900z" stroke="#000" stroke-width="2" fill="#fff"/><use xlink:href="#i" transform="matrix(1,0,0,1,905,845) translate(3.875 59.0875)"/><use xlink:href="#j" transform="matrix(1,0,0,1,905,845) translate(27.825 59.0875)"/><use xlink:href="#k" transform="matrix(1,0,0,1,905,845) translate(42.825 59.0875)"/><use xlink:href="#l" transform="matrix(1,0,0,1,905,845) translate(58.325 59.0875)"/><path d="M40 140h240v120H40z" stroke="#000" stroke-width="2" fill="#fff"/><use xlink:href="#m" transform="matrix(1,0,0,1,45,145) translate(3.825000000000017 48.775)"/><use xlink:href="#k" transform="matrix(1,0,0,1,45,145) translate(46.77500000000002 48.775)"/><use xlink:href="#n" transform="matrix(1,0,0,1,45,145) translate(62.27500000000002 48.775)"/><use xlink:href="#o" transform="matrix(1,0,0,1,45,145) translate(59.62499999999999 70.375)"/><use xlink:href="#p" transform="matrix(1,0,0,1,45,145) translate(70.57499999999999 70.375)"/><path d="M160 262v57.25" stroke="#000" stroke-width="2" fill="none"/><path d="M161 262.03h-2V261h2z"/><path d="M160 334.5l-4.64-14.25h9.28z" stroke="#000" stroke-width="2"/><path d="M160 339l80 60-80 60-80-60z" stroke="#000" stroke-width="2" fill="#fff"/><use xlink:href="#i" transform="matrix(1,0,0,1,85,344) translate(1.6500000000000057 47.8)"/><use xlink:href="#q" transform="matrix(1,0,0,1,85,344) translate(25.600000000000005 47.8)"/><use xlink:href="#k" transform="matrix(1,0,0,1,85,344) translate(34.550000000000004 47.8)"/><use xlink:href="#r" transform="matrix(1,0,0,1,85,344) translate(50.050000000000004 47.8)"/><use xlink:href="#s" transform="matrix(1,0,0,1,85,344) translate(133.9 47.8)"/><use xlink:href="#t" transform="matrix(1,0,0,1,85,344) translate(18.549999999999997 69.4)"/><use xlink:href="#u" transform="matrix(1,0,0,1,85,344) translate(106.5 69.4)"/><path d="M161 560.5h-2v-30.08h2zm0-51.68h-2v-47.57h2z"/><path d="M161 461.28h-2v-1.78l1 .75 1-.75zM160 575.76l-4.64-14.26h9.28z"/><path d="M160 579l-6-18.5h12zm-3.26-16.5l3.26 10.03 3.26-10.03z"/><use xlink:href="#v" transform="matrix(1,0,0,1,145.325,508.825) translate(0 14.4)"/><path d="M80 580h160v120H80z" stroke="#000" stroke-width="2" fill="#fff"/><use xlink:href="#w" transform="matrix(1,0,0,1,85,585) translate(34.35 47.8)"/><use xlink:href="#x" transform="matrix(1,0,0,1,85,585) translate(105.15 47.8)"/><use xlink:href="#y" transform="matrix(1,0,0,1,85,585) translate(-9.625 69.4)"/><path d="M160 702v18.25" stroke="#000" stroke-width="2" fill="none"/><path d="M161 702.03h-2V701h2z"/><path d="M160 735.5l-4.64-14.25h9.28z" stroke="#000" stroke-width="2"/><path d="M160 740l80 60-80 60-80-60z" stroke="#000" stroke-width="2" fill="#fff"/><use xlink:href="#z" transform="matrix(1,0,0,1,85,745) translate(17.879999999999995 59.0875)"/><path d="M161 940.5h-2v-19.58h2zm0-41.17h-2v-37.08h2z"/><path d="M161 862.28h-2v-1.78l1 .75 1-.75zM160 955.76l-4.64-14.26h9.28z"/><path d="M160 959l-6-18.5h12zm-3.26-16.5l3.26 10.03 3.26-10.03z"/><use xlink:href="#v" transform="matrix(1,0,0,1,145.325,899.325) translate(0 14.4)"/><path d="M80 960h160v120H80z" stroke="#000" stroke-width="2" fill="#fff"/><use xlink:href="#A" transform="matrix(1,0,0,1,85,965) translate(15.799999999999997 38.4625)"/><use xlink:href="#B" transform="matrix(1,0,0,1,85,965) translate(50.75 38.4625)"/><use xlink:href="#C" transform="matrix(1,0,0,1,85,965) translate(26.824999999999996 60.0625)"/><use xlink:href="#D" transform="matrix(1,0,0,1,85,965) translate(5.324999999999989 81.66250000000001)"/><use xlink:href="#E" transform="matrix(1,0,0,1,85,965) translate(93.77499999999999 81.66250000000001)"/><path d="M380 520h160v120H380z" stroke="#000" stroke-width="2" fill="#fff"/><use xlink:href="#F" transform="matrix(1,0,0,1,385,525) translate(23.025 26.19999999999999)"/><use xlink:href="#G" transform="matrix(1,0,0,1,385,525) translate(-7.674999999999983 47.79999999999999)"/><use xlink:href="#H" transform="matrix(1,0,0,1,385,525) translate(-3.7249999999999943 69.39999999999999)"/><use xlink:href="#I" transform="matrix(1,0,0,1,385,525) translate(24.824999999999996 91)"/><path d="M461 500.5h-2V400h-36.7v-2H461zM242.67 400v-2h156.7v2z"/><path d="M242.7 400h-2.37l1.34-1-1.34-1h2.36zM460 515.76l-4.64-14.26h9.28z"/><path d="M460 519l-6-18.5h12zm-3.26-16.5l3.26 10.03 3.26-10.03z"/><g><use xlink:href="#J" transform="matrix(1,0,0,1,399.3583333333333,388.2) translate(0 14.4)"/></g><path d="M460 642v58.5" stroke="#000" stroke-width="2" fill="none"/><path d="M461 642.03h-2V641h2z"/><path d="M460 715.76l-4.64-14.26h9.28z" stroke="#000" stroke-width="2"/><path d="M380 720h160v120H380z" stroke="#000" stroke-width="2" fill="#fff"/><g><use xlink:href="#K" transform="matrix(1,0,0,1,385,725) translate(23.375 59.0875)"/><use xlink:href="#L" transform="matrix(1,0,0,1,385,725) translate(75.275 59.0875)"/><use xlink:href="#M" transform="matrix(1,0,0,1,385,725) translate(90.175 59.0875)"/><use xlink:href="#N" transform="matrix(1,0,0,1,385,725) translate(105.675 59.0875)"/></g><path d="M980 962v38.5" stroke="#000" stroke-width="2" fill="none"/><path d="M981 962.03h-2V961h2z"/><path d="M980 1015.76l-4.64-14.26h9.28z" stroke="#000" stroke-width="2"/><path d="M900 1020h160v120H900z" stroke="#000" stroke-width="2" fill="#fff"/><g><use xlink:href="#O" transform="matrix(1,0,0,1,905,1025) translate(19.074999999999996 48.775)"/><use xlink:href="#P" transform="matrix(1,0,0,1,905,1025) translate(32.349999999999994 70.375)"/><use xlink:href="#Q" transform="matrix(1,0,0,1,905,1025) translate(76.8 70.375)"/></g><path d="M980 1142v38.5" stroke="#000" stroke-width="2" fill="none"/><path d="M981 1142.03h-2V1141h2z"/><path d="M980 1195.76l-4.64-14.26h9.28z" stroke="#000" stroke-width="2"/><path d="M900 1200h160v120H900z" stroke="#000" stroke-width="2" fill="#fff"/><g><use xlink:href="#K" transform="matrix(1,0,0,1,905,1205) translate(26.1 59.0875)"/><use xlink:href="#R" transform="matrix(1,0,0,1,905,1205) translate(78 59.0875)"/></g><path d="M542 780h178v120h160.5" stroke="#000" stroke-width="2" fill="none"/><path d="M542.03 781H541v-2h1.03z"/><path d="M895.76 900l-14.26 4.64v-9.28z" stroke="#000" stroke-width="2"/><defs><path d="M140-251c81 0 123 46 123 126C263-53 228-8 163 1c7 30 30 48 69 40v23c-55 16-95-15-103-61C56-3 17-48 17-125c0-80 42-126 123-126zm0 227c63 0 89-41 89-101s-29-99-89-99c-61 0-89 39-89 99S79-25 140-24" id="S"/><path d="M84 4C-5 8 30-112 23-190h32v120c0 31 7 50 39 49 72-2 45-101 50-169h31l1 190h-30c-1-10 1-25-2-33-11 22-28 36-60 37" id="T"/><path d="M24-231v-30h32v30H24zM24 0v-190h32V0H24" id="U"/><path d="M96-169c-40 0-48 33-48 73s9 75 48 75c24 0 41-14 43-38l32 2c-6 37-31 61-74 61-59 0-76-41-82-99-10-93 101-131 147-64 4 7 5 14 7 22l-32 3c-4-21-16-35-41-35" id="V"/><path d="M143 0L79-87 56-68V0H24v-261h32v163l83-92h37l-77 82L181 0h-38" id="W"/><g id="a"><use transform="matrix(0.07407407407407408,0,0,0.07407407407407408,0,0)" xlink:href="#S"/><use transform="matrix(0.07407407407407408,0,0,0.07407407407407408,20.740740740740744,0)" xlink:href="#T"/><use transform="matrix(0.07407407407407408,0,0,0.07407407407407408,35.55555555555556,0)" xlink:href="#U"/><use transform="matrix(0.07407407407407408,0,0,0.07407407407407408,41.40740740740741,0)" xlink:href="#V"/><use transform="matrix(0.07407407407407408,0,0,0.07407407407407408,54.74074074074075,0)" xlink:href="#W"/></g><path d="M135-143c-3-34-86-38-87 0 15 53 115 12 119 90S17 21 10-45l28-5c4 36 97 45 98 0-10-56-113-15-118-90-4-57 82-63 122-42 12 7 21 19 24 35" id="X"/><path d="M100-194c62-1 85 37 85 99 1 63-27 99-86 99S16-35 15-95c0-66 28-99 85-99zM99-20c44 1 53-31 53-75 0-43-8-75-51-75s-53 32-53 75 10 74 51 75" id="Y"/><path d="M114-163C36-179 61-72 57 0H25l-1-190h30c1 12-1 29 2 39 6-27 23-49 58-41v29" id="Z"/><path d="M59-47c-2 24 18 29 38 22v24C64 9 27 4 27-40v-127H5v-23h24l9-43h21v43h35v23H59v120" id="aa"/><path d="M117-194c89-4 53 116 60 194h-32v-121c0-31-8-49-39-48C34-167 62-67 57 0H25l-1-190h30c1 10-1 24 2 32 11-22 29-35 61-36" id="ab"/><path d="M177-190C167-65 218 103 67 71c-23-6-38-20-44-43l32-5c15 47 100 32 89-28v-30C133-14 115 1 83 1 29 1 15-40 15-95c0-56 16-97 71-98 29-1 48 16 59 35 1-10 0-23 2-32h30zM94-22c36 0 50-32 50-73 0-42-14-75-50-75-39 0-46 34-46 75s6 73 46 73" id="ac"/><g id="b"><use transform="matrix(0.07407407407407408,0,0,0.07407407407407408,0,0)" xlink:href="#X"/><use transform="matrix(0.07407407407407408,0,0,0.07407407407407408,13.333333333333336,0)" xlink:href="#Y"/><use transform="matrix(0.07407407407407408,0,0,0.07407407407407408,28.148148148148152,0)" xlink:href="#Z"/><use transform="matrix(0.07407407407407408,0,0,0.07407407407407408,36.96296296296297,0)" xlink:href="#aa"/><use transform="matrix(0.07407407407407408,0,0,0.07407407407407408,44.37037037037039,0)" xlink:href="#U"/><use transform="matrix(0.07407407407407408,0,0,0.07407407407407408,50.222222222222236,0)" xlink:href="#ab"/><use transform="matrix(0.07407407407407408,0,0,0.07407407407407408,65.03703703703705,0)" xlink:href="#ac"/></g><path d="M185-189c-5-48-123-54-124 2 14 75 158 14 163 119 3 78-121 87-175 55-17-10-28-26-33-46l33-7c5 56 141 63 141-1 0-78-155-14-162-118-5-82 145-84 179-34 5 7 8 16 11 25" id="ad"/><path d="M33 0v-38h34V0H33" id="ae"/><path d="M145-31C134-9 116 4 85 4 32 4 16-35 15-94c0-59 17-99 70-100 32-1 48 14 60 33 0-11-1-24 2-32h30l-1 268h-32zM93-21c41 0 51-33 51-76s-8-73-50-73c-40 0-46 35-46 75s5 74 45 74" id="af"/><path d="M87 75C49 33 22-17 22-94c0-76 28-126 65-167h31c-38 41-64 92-64 168S80 34 118 75H87" id="ag"/><path d="M205 0l-28-72H64L36 0H1l101-248h38L239 0h-34zm-38-99l-47-123c-12 45-31 82-46 123h93" id="ah"/><path d="M141-36C126-15 110 5 73 4 37 3 15-17 15-53c-1-64 63-63 125-63 3-35-9-54-41-54-24 1-41 7-42 31l-33-3c5-37 33-52 76-52 45 0 72 20 72 64v82c-1 20 7 32 28 27v20c-31 9-61-2-59-35zM48-53c0 20 12 33 32 33 41-3 63-29 60-74-43 2-92-5-92 41" id="ai"/><path d="M179-190L93 31C79 59 56 82 12 73V49c39 6 53-20 64-50L1-190h34L92-34l54-156h33" id="aj"/><path d="M30 0v-248h33v221h125V0H30" id="ak"/><path d="M18-100v-36l175-74v27L42-118l151 64v27" id="al"/><path d="M18-27v-27l151-64-151-65v-27l175 74v36" id="am"/><path d="M68-38c1 34 0 65-14 84H32c9-13 17-26 17-46H33v-38h35" id="an"/><path d="M33-261c38 41 65 92 65 168S71 34 33 75H2C39 34 66-17 66-93S39-220 2-261h31" id="ao"/><g id="c"><use transform="matrix(0.07407407407407408,0,0,0.07407407407407408,0,0)" xlink:href="#ad"/><use transform="matrix(0.07407407407407408,0,0,0.07407407407407408,17.77777777777778,0)" xlink:href="#Y"/><use transform="matrix(0.07407407407407408,0,0,0.07407407407407408,32.592592592592595,0)" xlink:href="#Z"/><use transform="matrix(0.07407407407407408,0,0,0.07407407407407408,41.40740740740741,0)" xlink:href="#aa"/><use transform="matrix(0.07407407407407408,0,0,0.07407407407407408,48.814814814814824,0)" xlink:href="#ae"/><use transform="matrix(0.07407407407407408,0,0,0.07407407407407408,56.22222222222223,0)" xlink:href="#af"/><use transform="matrix(0.07407407407407408,0,0,0.07407407407407408,71.03703703703704,0)" xlink:href="#T"/><use transform="matrix(0.07407407407407408,0,0,0.07407407407407408,85.85185185185185,0)" xlink:href="#U"/><use transform="matrix(0.07407407407407408,0,0,0.07407407407407408,91.7037037037037,0)" xlink:href="#V"/><use transform="matrix(0.07407407407407408,0,0,0.07407407407407408,105.03703703703704,0)" xlink:href="#W"/><use transform="matrix(0.07407407407407408,0,0,0.07407407407407408,118.37037037037038,0)" xlink:href="#ad"/><use transform="matrix(0.07407407407407408,0,0,0.07407407407407408,136.14814814814815,0)" xlink:href="#Y"/><use transform="matrix(0.07407407407407408,0,0,0.07407407407407408,150.96296296296296,0)" xlink:href="#Z"/><use transform="matrix(0.07407407407407408,0,0,0.07407407407407408,159.77777777777777,0)" xlink:href="#aa"/><use transform="matrix(0.07407407407407408,0,0,0.07407407407407408,167.18518518518522,0)" xlink:href="#ag"/><use transform="matrix(0.07407407407407408,0,0,0.07407407407407408,176,0)" xlink:href="#ah"/><use transform="matrix(0.07407407407407408,0,0,0.07407407407407408,193.77777777777777,0)" xlink:href="#Z"/><use transform="matrix(0.07407407407407408,0,0,0.07407407407407408,202.59259259259258,0)" xlink:href="#Z"/><use transform="matrix(0.07407407407407408,0,0,0.07407407407407408,211.4074074074074,0)" xlink:href="#ai"/><use transform="matrix(0.07407407407407408,0,0,0.07407407407407408,226.22222222222217,0)" xlink:href="#aj"/><use transform="matrix(0.07407407407407408,0,0,0.07407407407407408,239.55555555555554,0)" xlink:href="#ak"/><use transform="matrix(0.07407407407407408,0,0,0.07407407407407408,254.37037037037032,0)" xlink:href="#U"/><use transform="matrix(0.07407407407407408,0,0,0.07407407407407408,260.22222222222223,0)" xlink:href="#X"/><use transform="matrix(0.07407407407407408,0,0,0.07407407407407408,273.55555555555554,0)" xlink:href="#aa"/><use transform="matrix(0.07407407407407408,0,0,0.07407407407407408,280.96296296296293,0)" xlink:href="#al"/><use transform="matrix(0.07407407407407408,0,0,0.07407407407407408,296.5185185185185,0)" xlink:href="#ad"/><use transform="matrix(0.07407407407407408,0,0,0.07407407407407408,314.29629629629625,0)" xlink:href="#aa"/><use transform="matrix(0.07407407407407408,0,0,0.07407407407407408,321.70370370370364,0)" xlink:href="#Z"/><use transform="matrix(0.07407407407407408,0,0,0.07407407407407408,330.5185185185185,0)" xlink:href="#U"/><use transform="matrix(0.07407407407407408,0,0,0.07407407407407408,336.3703703703703,0)" xlink:href="#ab"/><use transform="matrix(0.07407407407407408,0,0,0.07407407407407408,351.18518518518516,0)" xlink:href="#ac"/><use transform="matrix(0.07407407407407408,0,0,0.07407407407407408,366,0)" xlink:href="#am"/><use transform="matrix(0.07407407407407408,0,0,0.07407407407407408,381.55555555555554,0)" xlink:href="#an"/><use transform="matrix(0.07407407407407408,0,0,0.07407407407407408,388.96296296296293,0)" xlink:href="#U"/><use transform="matrix(0.07407407407407408,0,0,0.07407407407407408,394.8148148148148,0)" xlink:href="#ab"/><use transform="matrix(0.07407407407407408,0,0,0.07407407407407408,409.6296296296296,0)" xlink:href="#aa"/><use transform="matrix(0.07407407407407408,0,0,0.07407407407407408,417.037037037037,0)" xlink:href="#an"/><use transform="matrix(0.07407407407407408,0,0,0.07407407407407408,424.44444444444446,0)" xlink:href="#U"/><use transform="matrix(0.07407407407407408,0,0,0.07407407407407408,430.2962962962962,0)" xlink:href="#ab"/><use transform="matrix(0.07407407407407408,0,0,0.07407407407407408,445.1111111111111,0)" xlink:href="#aa"/><use transform="matrix(0.07407407407407408,0,0,0.07407407407407408,452.5185185185184,0)" xlink:href="#ao"/></g><g id="d"><use transform="matrix(0.05,0,0,0.05,0,0)" xlink:href="#ad"/><use transform="matrix(0.05,0,0,0.05,12,0)" xlink:href="#aa"/><use transform="matrix(0.05,0,0,0.05,17,0)" xlink:href="#ai"/><use transform="matrix(0.05,0,0,0.05,27,0)" xlink:href="#Z"/><use transform="matrix(0.05,0,0,0.05,32.95,0)" xlink:href="#aa"/></g><path d="M24 0v-261h32V0H24" id="ap"/><path d="M206 0h-36l-40-164L89 0H53L-1-190h32L70-26l43-164h34l41 164 42-164h31" id="aq"/><path d="M33 0v-248h34V0H33" id="ar"/><path d="M85-194c31 0 48 13 60 33l-1-100h32l1 261h-30c-2-10 0-23-3-31C134-8 116 4 85 4 32 4 16-35 15-94c0-66 23-100 70-100zm9 24c-40 0-46 34-46 75 0 40 6 74 45 74 42 0 51-32 51-76 0-42-9-74-50-73" id="as"/><path d="M100-194c63 0 86 42 84 106H49c0 40 14 67 53 68 26 1 43-12 49-29l28 8c-11 28-37 45-77 45C44 4 14-33 15-96c1-61 26-98 85-98zm52 81c6-60-76-77-97-28-3 7-6 17-6 28h103" id="at"/><path d="M141 0L90-78 38 0H4l68-98-65-92h35l48 74 47-74h35l-64 92 68 98h-35" id="au"/><g id="e"><use transform="matrix(0.05,0,0,0.05,0,0)" xlink:href="#ap"/><use transform="matrix(0.05,0,0,0.05,3.95,0)" xlink:href="#Y"/><use transform="matrix(0.05,0,0,0.05,13.949999999999998,0)" xlink:href="#aq"/><use transform="matrix(0.05,0,0,0.05,26.899999999999995,0)" xlink:href="#ar"/><use transform="matrix(0.05,0,0,0.05,31.899999999999995,0)" xlink:href="#ab"/><use transform="matrix(0.05,0,0,0.05,41.9,0)" xlink:href="#as"/><use transform="matrix(0.05,0,0,0.05,51.900000000000006,0)" xlink:href="#at"/><use transform="matrix(0.05,0,0,0.05,61.900000000000006,0)" xlink:href="#au"/></g><use transform="matrix(0.05,0,0,0.05,0,0)" xlink:href="#al" id="f"/><path d="M106-169C34-169 62-67 57 0H25v-261h32l-1 103c12-21 28-36 61-36 89 0 53 116 60 194h-32v-121c2-32-8-49-39-48" id="av"/><g id="g"><use transform="matrix(0.05,0,0,0.05,0,0)" xlink:href="#av"/><use transform="matrix(0.05,0,0,0.05,10,0)" xlink:href="#U"/><use transform="matrix(0.05,0,0,0.05,13.949999999999998,0)" xlink:href="#ac"/><use transform="matrix(0.05,0,0,0.05,23.95,0)" xlink:href="#av"/><use transform="matrix(0.05,0,0,0.05,33.95,0)" xlink:href="#ar"/><use transform="matrix(0.05,0,0,0.05,38.95,0)" xlink:href="#ab"/><use transform="matrix(0.05,0,0,0.05,48.95,0)" xlink:href="#as"/><use transform="matrix(0.05,0,0,0.05,58.95,0)" xlink:href="#at"/><use transform="matrix(0.05,0,0,0.05,68.95,0)" xlink:href="#au"/></g><path d="M127-220V0H93v-220H8v-28h204v28h-85" id="aw"/><g id="h"><use transform="matrix(0.05,0,0,0.05,0,0)" xlink:href="#aw"/><use transform="matrix(0.05,0,0,0.05,10.3,0)" xlink:href="#Z"/><use transform="matrix(0.05,0,0,0.05,16.25,0)" xlink:href="#T"/><use transform="matrix(0.05,0,0,0.05,26.25,0)" xlink:href="#at"/></g><g id="i"><use transform="matrix(0.05,0,0,0.05,0,0)" xlink:href="#U"/><use transform="matrix(0.05,0,0,0.05,3.95,0)" xlink:href="#ab"/><use transform="matrix(0.05,0,0,0.05,13.949999999999998,0)" xlink:href="#aa"/></g><path d="M115-194c55 1 70 41 70 98S169 2 115 4C84 4 66-9 55-30l1 105H24l-1-265h31l2 30c10-21 28-34 59-34zm-8 174c40 0 45-34 45-75s-6-73-45-74c-42 0-51 32-51 76 0 43 10 73 51 73" id="ax"/><use transform="matrix(0.05,0,0,0.05,0,0)" xlink:href="#ax" id="j"/><path d="M18-150v-26h174v26H18zm0 90v-26h174v26H18" id="ay"/><use transform="matrix(0.05,0,0,0.05,0,0)" xlink:href="#ay" id="k"/><g id="l"><use transform="matrix(0.05,0,0,0.05,0,0)" xlink:href="#ax"/><use transform="matrix(0.05,0,0,0.05,10,0)" xlink:href="#ai"/><use transform="matrix(0.05,0,0,0.05,20,0)" xlink:href="#Z"/><use transform="matrix(0.05,0,0,0.05,25.950000000000003,0)" xlink:href="#aa"/><use transform="matrix(0.05,0,0,0.05,30.950000000000003,0)" xlink:href="#U"/><use transform="matrix(0.05,0,0,0.05,34.9,0)" xlink:href="#aa"/><use transform="matrix(0.05,0,0,0.05,39.9,0)" xlink:href="#U"/><use transform="matrix(0.05,0,0,0.05,43.85,0)" xlink:href="#Y"/><use transform="matrix(0.05,0,0,0.05,53.85,0)" xlink:href="#ab"/><use transform="matrix(0.05,0,0,0.05,63.85,0)" xlink:href="#U"/><use transform="matrix(0.05,0,0,0.05,67.8,0)" xlink:href="#ab"/><use transform="matrix(0.05,0,0,0.05,77.8,0)" xlink:href="#ac"/></g><path d="M108 0H70L1-190h34L89-25l56-165h34" id="az"/><g id="m"><use transform="matrix(0.05,0,0,0.05,0,0)" xlink:href="#ax"/><use transform="matrix(0.05,0,0,0.05,10,0)" xlink:href="#U"/><use transform="matrix(0.05,0,0,0.05,13.949999999999998,0)" xlink:href="#az"/><use transform="matrix(0.05,0,0,0.05,22.95,0)" xlink:href="#Y"/><use transform="matrix(0.05,0,0,0.05,32.95,0)" xlink:href="#aa"/></g><path d="M9 0v-24l116-142H16v-24h144v24L44-24h123V0H9" id="aA"/><g id="n"><use transform="matrix(0.05,0,0,0.05,0,0)" xlink:href="#ai"/><use transform="matrix(0.05,0,0,0.05,10,0)" xlink:href="#Z"/><use transform="matrix(0.05,0,0,0.05,15.949999999999998,0)" xlink:href="#Z"/><use transform="matrix(0.05,0,0,0.05,21.9,0)" xlink:href="#ai"/><use transform="matrix(0.05,0,0,0.05,31.899999999999995,0)" xlink:href="#aj"/><use transform="matrix(0.05,0,0,0.05,39.55,0)" xlink:href="#ae"/><use transform="matrix(0.05,0,0,0.05,44.55,0)" xlink:href="#ac"/><use transform="matrix(0.05,0,0,0.05,54.54999999999999,0)" xlink:href="#at"/><use transform="matrix(0.05,0,0,0.05,64.55,0)" xlink:href="#aa"/><use transform="matrix(0.05,0,0,0.05,69.55,0)" xlink:href="#ag"/><use transform="matrix(0.05,0,0,0.05,75.5,0)" xlink:href="#ai"/><use transform="matrix(0.05,0,0,0.05,85.5,0)" xlink:href="#Z"/><use transform="matrix(0.05,0,0,0.05,91.45,0)" xlink:href="#Z"/><use transform="matrix(0.05,0,0,0.05,97.4,0)" xlink:href="#ai"/><use transform="matrix(0.05,0,0,0.05,107.4,0)" xlink:href="#aj"/><use transform="matrix(0.05,0,0,0.05,115.05000000000001,0)" xlink:href="#ae"/><use transform="matrix(0.05,0,0,0.05,120.05000000000001,0)" xlink:href="#X"/><use transform="matrix(0.05,0,0,0.05,129.05,0)" xlink:href="#U"/><use transform="matrix(0.05,0,0,0.05,133,0)" xlink:href="#aA"/><use transform="matrix(0.05,0,0,0.05,142,0)" xlink:href="#at"/><use transform="matrix(0.05,0,0,0.05,152,0)" xlink:href="#ag"/><use transform="matrix(0.05,0,0,0.05,157.95,0)" xlink:href="#ao"/></g><path d="M16-82v-28h88v28H16" id="aB"/><use transform="matrix(0.05,0,0,0.05,0,0)" xlink:href="#aB" id="o"/><path d="M27 0v-27h64v-190l-56 39v-29l58-41h29v221h61V0H27" id="aC"/><path d="M101-251c68 0 85 55 85 127S166 4 100 4C33 4 14-52 14-124c0-73 17-127 87-127zm-1 229c47 0 54-49 54-102s-4-102-53-102c-51 0-55 48-55 102 0 53 5 102 54 102" id="aD"/><path d="M68-36c1 33-1 63-14 82H32c9-13 17-26 17-46H33v-36h35zM33-154v-36h35v36H33" id="aE"/><g id="p"><use transform="matrix(0.05,0,0,0.05,0,0)" xlink:href="#aC"/><use transform="matrix(0.05,0,0,0.05,10,0)" xlink:href="#ao"/><use transform="matrix(0.05,0,0,0.05,15.949999999999998,0)" xlink:href="#ae"/><use transform="matrix(0.05,0,0,0.05,20.95,0)" xlink:href="#V"/><use transform="matrix(0.05,0,0,0.05,29.950000000000003,0)" xlink:href="#av"/><use transform="matrix(0.05,0,0,0.05,39.95,0)" xlink:href="#ai"/><use transform="matrix(0.05,0,0,0.05,49.95,0)" xlink:href="#Z"/><use transform="matrix(0.05,0,0,0.05,55.900000000000006,0)" xlink:href="#ah"/><use transform="matrix(0.05,0,0,0.05,67.9,0)" xlink:href="#aa"/><use transform="matrix(0.05,0,0,0.05,72.9,0)" xlink:href="#ag"/><use transform="matrix(0.05,0,0,0.05,78.85000000000001,0)" xlink:href="#aD"/><use transform="matrix(0.05,0,0,0.05,88.85000000000001,0)" xlink:href="#ao"/><use transform="matrix(0.05,0,0,0.05,94.80000000000001,0)" xlink:href="#aE"/></g><path d="M24-231v-30h32v30H24zM-9 49c24 4 33-6 33-30v-209h32V24c2 40-23 58-65 49V49" id="aF"/><use transform="matrix(0.05,0,0,0.05,0,0)" xlink:href="#aF" id="q"/><path d="M190 0L58-211 59 0H30v-248h39L202-35l-2-213h31V0h-41" id="aG"/><g id="r"><use transform="matrix(0.05,0,0,0.05,0,0)" xlink:href="#ap"/><use transform="matrix(0.05,0,0,0.05,3.95,0)" xlink:href="#Y"/><use transform="matrix(0.05,0,0,0.05,13.949999999999998,0)" xlink:href="#aq"/><use transform="matrix(0.05,0,0,0.05,26.899999999999995,0)" xlink:href="#ar"/><use transform="matrix(0.05,0,0,0.05,31.899999999999995,0)" xlink:href="#aG"/><use transform="matrix(0.05,0,0,0.05,44.85,0)" xlink:href="#as"/><use transform="matrix(0.05,0,0,0.05,54.85,0)" xlink:href="#at"/><use transform="matrix(0.05,0,0,0.05,64.85,0)" xlink:href="#au"/><use transform="matrix(0.05,0,0,0.05,73.85,0)" xlink:href="#aE"/></g><g id="s"><use transform="matrix(0.05,0,0,0.05,0,0)" xlink:href="#aF"/><use transform="matrix(0.05,0,0,0.05,3.95,0)" xlink:href="#al"/></g><g id="t"><use transform="matrix(0.05,0,0,0.05,0,0)" xlink:href="#av"/><use transform="matrix(0.05,0,0,0.05,10,0)" xlink:href="#U"/><use transform="matrix(0.05,0,0,0.05,13.949999999999998,0)" xlink:href="#ac"/><use transform="matrix(0.05,0,0,0.05,23.95,0)" xlink:href="#av"/><use transform="matrix(0.05,0,0,0.05,33.95,0)" xlink:href="#ar"/><use transform="matrix(0.05,0,0,0.05,38.95,0)" xlink:href="#ab"/><use transform="matrix(0.05,0,0,0.05,48.95,0)" xlink:href="#as"/><use transform="matrix(0.05,0,0,0.05,58.95,0)" xlink:href="#at"/><use transform="matrix(0.05,0,0,0.05,68.95,0)" xlink:href="#au"/><use transform="matrix(0.05,0,0,0.05,77.95,0)" xlink:href="#aE"/></g><path d="M118-107v75H92v-75H18v-26h74v-75h26v75h74v26h-74" id="aH"/><g id="u"><use transform="matrix(0.05,0,0,0.05,0,0)" xlink:href="#aF"/><use transform="matrix(0.05,0,0,0.05,3.95,0)" xlink:href="#aH"/><use transform="matrix(0.05,0,0,0.05,14.449999999999998,0)" xlink:href="#aH"/></g><path d="M137-103V0h-34v-103L8-248h37l75 118 75-118h37" id="aI"/><g id="v"><use transform="matrix(0.05,0,0,0.05,0,0)" xlink:href="#aI"/><use transform="matrix(0.05,0,0,0.05,10.35,0)" xlink:href="#at"/><use transform="matrix(0.05,0,0,0.05,20.35,0)" xlink:href="#X"/></g><path d="M212-179c-10-28-35-45-73-45-59 0-87 40-87 99 0 60 29 101 89 101 43 0 62-24 78-52l27 14C228-24 195 4 139 4 59 4 22-46 18-125c-6-104 99-153 187-111 19 9 31 26 39 46" id="aJ"/><g id="w"><use transform="matrix(0.05,0,0,0.05,0,0)" xlink:href="#ap"/><use transform="matrix(0.05,0,0,0.05,3.95,0)" xlink:href="#Y"/><use transform="matrix(0.05,0,0,0.05,13.949999999999998,0)" xlink:href="#aq"/><use transform="matrix(0.05,0,0,0.05,26.899999999999995,0)" xlink:href="#aJ"/><use transform="matrix(0.05,0,0,0.05,39.85,0)" xlink:href="#av"/><use transform="matrix(0.05,0,0,0.05,49.85,0)" xlink:href="#ai"/><use transform="matrix(0.05,0,0,0.05,59.85,0)" xlink:href="#Z"/></g><use transform="matrix(0.05,0,0,0.05,0,0)" xlink:href="#ay" id="x"/><g id="y"><use transform="matrix(0.05,0,0,0.05,0,0)" xlink:href="#ai"/><use transform="matrix(0.05,0,0,0.05,10,0)" xlink:href="#Z"/><use transform="matrix(0.05,0,0,0.05,15.949999999999998,0)" xlink:href="#Z"/><use transform="matrix(0.05,0,0,0.05,21.9,0)" xlink:href="#ai"/><use transform="matrix(0.05,0,0,0.05,31.899999999999995,0)" xlink:href="#aj"/><use transform="matrix(0.05,0,0,0.05,39.55,0)" xlink:href="#ae"/><use transform="matrix(0.05,0,0,0.05,44.55,0)" xlink:href="#ac"/><use transform="matrix(0.05,0,0,0.05,54.54999999999999,0)" xlink:href="#at"/><use transform="matrix(0.05,0,0,0.05,64.55,0)" xlink:href="#aa"/><use transform="matrix(0.05,0,0,0.05,69.55,0)" xlink:href="#ag"/><use transform="matrix(0.05,0,0,0.05,75.5,0)" xlink:href="#aF"/><use transform="matrix(0.05,0,0,0.05,79.45,0)" xlink:href="#ao"/><use transform="matrix(0.05,0,0,0.05,85.4,0)" xlink:href="#ae"/><use transform="matrix(0.05,0,0,0.05,90.4,0)" xlink:href="#V"/><use transform="matrix(0.05,0,0,0.05,99.4,0)" xlink:href="#av"/><use transform="matrix(0.05,0,0,0.05,109.4,0)" xlink:href="#ai"/><use transform="matrix(0.05,0,0,0.05,119.4,0)" xlink:href="#Z"/><use transform="matrix(0.05,0,0,0.05,125.35000000000001,0)" xlink:href="#ah"/><use transform="matrix(0.05,0,0,0.05,137.35000000000002,0)" xlink:href="#aa"/><use transform="matrix(0.05,0,0,0.05,142.35000000000002,0)" xlink:href="#ag"/><use transform="matrix(0.05,0,0,0.05,148.3,0)" xlink:href="#aD"/><use transform="matrix(0.05,0,0,0.05,158.3,0)" xlink:href="#ao"/><use transform="matrix(0.05,0,0,0.05,164.25,0)" xlink:href="#aE"/></g><g id="z"><use transform="matrix(0.05,0,0,0.05,0,0)" xlink:href="#ap"/><use transform="matrix(0.05,0,0,0.05,3.95,0)" xlink:href="#Y"/><use transform="matrix(0.05,0,0,0.05,13.949999999999998,0)" xlink:href="#aq"/><use transform="matrix(0.05,0,0,0.05,26.899999999999995,0)" xlink:href="#aJ"/><use transform="matrix(0.05,0,0,0.05,39.85,0)" xlink:href="#av"/><use transform="matrix(0.05,0,0,0.05,49.85,0)" xlink:href="#ai"/><use transform="matrix(0.05,0,0,0.05,59.85,0)" xlink:href="#Z"/><use transform="matrix(0.05,0,0,0.05,65.8,0)" xlink:href="#al"/><use transform="matrix(0.05,0,0,0.05,76.3,0)" xlink:href="#ax"/><use transform="matrix(0.05,0,0,0.05,86.3,0)" xlink:href="#U"/><use transform="matrix(0.05,0,0,0.05,90.25,0)" xlink:href="#az"/><use transform="matrix(0.05,0,0,0.05,99.25,0)" xlink:href="#Y"/><use transform="matrix(0.05,0,0,0.05,109.25,0)" xlink:href="#aa"/></g><g id="A"><use transform="matrix(0.05,0,0,0.05,0,0)" xlink:href="#U"/><use transform="matrix(0.05,0,0,0.05,3.95,0)" xlink:href="#aH"/><use transform="matrix(0.05,0,0,0.05,14.449999999999998,0)" xlink:href="#aH"/><use transform="matrix(0.05,0,0,0.05,24.95,0)" xlink:href="#aE"/></g><g id="B"><use transform="matrix(0.05,0,0,0.05,0,0)" xlink:href="#ai"/><use transform="matrix(0.05,0,0,0.05,10,0)" xlink:href="#Z"/><use transform="matrix(0.05,0,0,0.05,15.949999999999998,0)" xlink:href="#Z"/><use transform="matrix(0.05,0,0,0.05,21.9,0)" xlink:href="#ai"/><use transform="matrix(0.05,0,0,0.05,31.899999999999995,0)" xlink:href="#aj"/><use transform="matrix(0.05,0,0,0.05,39.55,0)" xlink:href="#ae"/><use transform="matrix(0.05,0,0,0.05,44.55,0)" xlink:href="#X"/><use transform="matrix(0.05,0,0,0.05,53.54999999999999,0)" xlink:href="#at"/><use transform="matrix(0.05,0,0,0.05,63.54999999999999,0)" xlink:href="#aa"/><use transform="matrix(0.05,0,0,0.05,68.55,0)" xlink:href="#ag"/><use transform="matrix(0.05,0,0,0.05,74.5,0)" xlink:href="#U"/><use transform="matrix(0.05,0,0,0.05,78.45,0)" xlink:href="#an"/></g><g id="C"><use transform="matrix(0.05,0,0,0.05,0,0)" xlink:href="#ai"/><use transform="matrix(0.05,0,0,0.05,10,0)" xlink:href="#Z"/><use transform="matrix(0.05,0,0,0.05,15.949999999999998,0)" xlink:href="#Z"/><use transform="matrix(0.05,0,0,0.05,21.9,0)" xlink:href="#ai"/><use transform="matrix(0.05,0,0,0.05,31.899999999999995,0)" xlink:href="#aj"/><use transform="matrix(0.05,0,0,0.05,39.55,0)" xlink:href="#ae"/><use transform="matrix(0.05,0,0,0.05,44.55,0)" xlink:href="#ac"/><use transform="matrix(0.05,0,0,0.05,54.54999999999999,0)" xlink:href="#at"/><use transform="matrix(0.05,0,0,0.05,64.55,0)" xlink:href="#aa"/><use transform="matrix(0.05,0,0,0.05,69.55,0)" xlink:href="#ag"/><use transform="matrix(0.05,0,0,0.05,75.5,0)" xlink:href="#aF"/><use transform="matrix(0.05,0,0,0.05,79.45,0)" xlink:href="#ao"/><use transform="matrix(0.05,0,0,0.05,85.4,0)" xlink:href="#ao"/><use transform="matrix(0.05,0,0,0.05,91.35000000000001,0)" xlink:href="#aE"/></g><g id="D"><use transform="matrix(0.05,0,0,0.05,0,0)" xlink:href="#ai"/><use transform="matrix(0.05,0,0,0.05,10,0)" xlink:href="#Z"/><use transform="matrix(0.05,0,0,0.05,15.949999999999998,0)" xlink:href="#Z"/><use transform="matrix(0.05,0,0,0.05,21.9,0)" xlink:href="#ai"/><use transform="matrix(0.05,0,0,0.05,31.899999999999995,0)" xlink:href="#aj"/><use transform="matrix(0.05,0,0,0.05,39.55,0)" xlink:href="#ae"/><use transform="matrix(0.05,0,0,0.05,44.55,0)" xlink:href="#X"/><use transform="matrix(0.05,0,0,0.05,53.54999999999999,0)" xlink:href="#at"/><use transform="matrix(0.05,0,0,0.05,63.54999999999999,0)" xlink:href="#aa"/><use transform="matrix(0.05,0,0,0.05,68.55,0)" xlink:href="#ag"/><use transform="matrix(0.05,0,0,0.05,74.5,0)" xlink:href="#aF"/><use transform="matrix(0.05,0,0,0.05,78.45,0)" xlink:href="#an"/></g><path d="M210-169c-67 3-38 105-44 169h-31v-121c0-29-5-50-35-48C34-165 62-65 56 0H25l-1-190h30c1 10-1 24 2 32 10-44 99-50 107 0 11-21 27-35 58-36 85-2 47 119 55 194h-31v-121c0-29-5-49-35-48" id="aK"/><g id="E"><use transform="matrix(0.05,0,0,0.05,0,0)" xlink:href="#aa"/><use transform="matrix(0.05,0,0,0.05,5,0)" xlink:href="#at"/><use transform="matrix(0.05,0,0,0.05,15,0)" xlink:href="#aK"/><use transform="matrix(0.05,0,0,0.05,29.950000000000003,0)" xlink:href="#ax"/><use transform="matrix(0.05,0,0,0.05,39.95,0)" xlink:href="#ao"/><use transform="matrix(0.05,0,0,0.05,45.900000000000006,0)" xlink:href="#aE"/></g><g id="F"><use transform="matrix(0.05,0,0,0.05,0,0)" xlink:href="#ai"/><use transform="matrix(0.05,0,0,0.05,10,0)" xlink:href="#Z"/><use transform="matrix(0.05,0,0,0.05,15.949999999999998,0)" xlink:href="#Z"/><use transform="matrix(0.05,0,0,0.05,21.9,0)" xlink:href="#ai"/><use transform="matrix(0.05,0,0,0.05,31.899999999999995,0)" xlink:href="#aj"/><use transform="matrix(0.05,0,0,0.05,39.55,0)" xlink:href="#ae"/><use transform="matrix(0.05,0,0,0.05,44.55,0)" xlink:href="#X"/><use transform="matrix(0.05,0,0,0.05,53.54999999999999,0)" xlink:href="#at"/><use transform="matrix(0.05,0,0,0.05,63.54999999999999,0)" xlink:href="#aa"/><use transform="matrix(0.05,0,0,0.05,68.55,0)" xlink:href="#ag"/><use transform="matrix(0.05,0,0,0.05,74.5,0)" xlink:href="#U"/><use transform="matrix(0.05,0,0,0.05,78.45,0)" xlink:href="#aH"/><use transform="matrix(0.05,0,0,0.05,88.95,0)" xlink:href="#aC"/><use transform="matrix(0.05,0,0,0.05,98.95,0)" xlink:href="#an"/></g><g id="G"><use transform="matrix(0.05,0,0,0.05,0,0)" xlink:href="#ai"/><use transform="matrix(0.05,0,0,0.05,10,0)" xlink:href="#Z"/><use transform="matrix(0.05,0,0,0.05,15.949999999999998,0)" xlink:href="#Z"/><use transform="matrix(0.05,0,0,0.05,21.9,0)" xlink:href="#ai"/><use transform="matrix(0.05,0,0,0.05,31.899999999999995,0)" xlink:href="#aj"/><use transform="matrix(0.05,0,0,0.05,39.55,0)" xlink:href="#ae"/><use transform="matrix(0.05,0,0,0.05,44.55,0)" xlink:href="#ac"/><use transform="matrix(0.05,0,0,0.05,54.54999999999999,0)" xlink:href="#at"/><use transform="matrix(0.05,0,0,0.05,64.55,0)" xlink:href="#aa"/><use transform="matrix(0.05,0,0,0.05,69.55,0)" xlink:href="#ag"/><use transform="matrix(0.05,0,0,0.05,75.5,0)" xlink:href="#av"/><use transform="matrix(0.05,0,0,0.05,85.5,0)" xlink:href="#U"/><use transform="matrix(0.05,0,0,0.05,89.45,0)" xlink:href="#ac"/><use transform="matrix(0.05,0,0,0.05,99.45,0)" xlink:href="#av"/><use transform="matrix(0.05,0,0,0.05,109.45,0)" xlink:href="#ar"/><use transform="matrix(0.05,0,0,0.05,114.45,0)" xlink:href="#ab"/><use transform="matrix(0.05,0,0,0.05,124.45,0)" xlink:href="#as"/><use transform="matrix(0.05,0,0,0.05,134.45,0)" xlink:href="#at"/><use transform="matrix(0.05,0,0,0.05,144.45,0)" xlink:href="#au"/><use transform="matrix(0.05,0,0,0.05,153.45,0)" xlink:href="#ao"/><use transform="matrix(0.05,0,0,0.05,159.39999999999998,0)" xlink:href="#ao"/></g><g id="H"><use transform="matrix(0.05,0,0,0.05,0,0)" xlink:href="#ai"/><use transform="matrix(0.05,0,0,0.05,10,0)" xlink:href="#Z"/><use transform="matrix(0.05,0,0,0.05,15.949999999999998,0)" xlink:href="#Z"/><use transform="matrix(0.05,0,0,0.05,21.9,0)" xlink:href="#ai"/><use transform="matrix(0.05,0,0,0.05,31.899999999999995,0)" xlink:href="#aj"/><use transform="matrix(0.05,0,0,0.05,39.55,0)" xlink:href="#ae"/><use transform="matrix(0.05,0,0,0.05,44.55,0)" xlink:href="#X"/><use transform="matrix(0.05,0,0,0.05,53.54999999999999,0)" xlink:href="#at"/><use transform="matrix(0.05,0,0,0.05,63.54999999999999,0)" xlink:href="#aa"/><use transform="matrix(0.05,0,0,0.05,68.55,0)" xlink:href="#ag"/><use transform="matrix(0.05,0,0,0.05,74.5,0)" xlink:href="#av"/><use transform="matrix(0.05,0,0,0.05,84.5,0)" xlink:href="#U"/><use transform="matrix(0.05,0,0,0.05,88.45,0)" xlink:href="#ac"/><use transform="matrix(0.05,0,0,0.05,98.45,0)" xlink:href="#av"/><use transform="matrix(0.05,0,0,0.05,108.45,0)" xlink:href="#ar"/><use transform="matrix(0.05,0,0,0.05,113.45,0)" xlink:href="#ab"/><use transform="matrix(0.05,0,0,0.05,123.45,0)" xlink:href="#as"/><use transform="matrix(0.05,0,0,0.05,133.45,0)" xlink:href="#at"/><use transform="matrix(0.05,0,0,0.05,143.45,0)" xlink:href="#au"/><use transform="matrix(0.05,0,0,0.05,152.45,0)" xlink:href="#an"/></g><g id="I"><use transform="matrix(0.05,0,0,0.05,0,0)" xlink:href="#aa"/><use transform="matrix(0.05,0,0,0.05,5,0)" xlink:href="#at"/><use transform="matrix(0.05,0,0,0.05,15,0)" xlink:href="#au"/><use transform="matrix(0.05,0,0,0.05,24,0)" xlink:href="#aa"/><use transform="matrix(0.05,0,0,0.05,29,0)" xlink:href="#ae"/><use transform="matrix(0.05,0,0,0.05,34,0)" xlink:href="#ac"/><use transform="matrix(0.05,0,0,0.05,44,0)" xlink:href="#at"/><use transform="matrix(0.05,0,0,0.05,54,0)" xlink:href="#aa"/><use transform="matrix(0.05,0,0,0.05,59,0)" xlink:href="#ag"/><use transform="matrix(0.05,0,0,0.05,64.95,0)" xlink:href="#U"/><use transform="matrix(0.05,0,0,0.05,68.9,0)" xlink:href="#aH"/><use transform="matrix(0.05,0,0,0.05,79.4,0)" xlink:href="#aC"/><use transform="matrix(0.05,0,0,0.05,89.4,0)" xlink:href="#ao"/><use transform="matrix(0.05,0,0,0.05,95.35000000000001,0)" xlink:href="#aE"/></g><g id="J"><use transform="matrix(0.05,0,0,0.05,0,0)" xlink:href="#aG"/><use transform="matrix(0.05,0,0,0.05,12.950000000000001,0)" xlink:href="#Y"/></g><g id="K"><use transform="matrix(0.05,0,0,0.05,0,0)" xlink:href="#Z"/><use transform="matrix(0.05,0,0,0.05,5.95,0)" xlink:href="#at"/><use transform="matrix(0.05,0,0,0.05,15.949999999999998,0)" xlink:href="#aa"/><use transform="matrix(0.05,0,0,0.05,20.95,0)" xlink:href="#T"/><use transform="matrix(0.05,0,0,0.05,30.950000000000003,0)" xlink:href="#Z"/><use transform="matrix(0.05,0,0,0.05,36.9,0)" xlink:href="#ab"/></g><g id="L"><use transform="matrix(0.05,0,0,0.05,0,0)" xlink:href="#ag"/><use transform="matrix(0.05,0,0,0.05,5.95,0)" xlink:href="#U"/></g><use transform="matrix(0.05,0,0,0.05,0,0)" xlink:href="#aH" id="M"/><g id="N"><use transform="matrix(0.05,0,0,0.05,0,0)" xlink:href="#aC"/><use transform="matrix(0.05,0,0,0.05,10,0)" xlink:href="#ao"/><use transform="matrix(0.05,0,0,0.05,15.949999999999998,0)" xlink:href="#aE"/></g><g id="O"><use transform="matrix(0.05,0,0,0.05,0,0)" xlink:href="#af"/><use transform="matrix(0.05,0,0,0.05,10,0)" xlink:href="#T"/><use transform="matrix(0.05,0,0,0.05,20,0)" xlink:href="#U"/><use transform="matrix(0.05,0,0,0.05,23.95,0)" xlink:href="#V"/><use transform="matrix(0.05,0,0,0.05,32.95,0)" xlink:href="#W"/><use transform="matrix(0.05,0,0,0.05,41.95,0)" xlink:href="#X"/><use transform="matrix(0.05,0,0,0.05,50.95,0)" xlink:href="#Y"/><use transform="matrix(0.05,0,0,0.05,60.95,0)" xlink:href="#Z"/><use transform="matrix(0.05,0,0,0.05,66.9,0)" xlink:href="#aa"/><use transform="matrix(0.05,0,0,0.05,71.9,0)" xlink:href="#ag"/><use transform="matrix(0.05,0,0,0.05,77.85000000000001,0)" xlink:href="#aa"/><use transform="matrix(0.05,0,0,0.05,82.85000000000001,0)" xlink:href="#at"/><use transform="matrix(0.05,0,0,0.05,92.85000000000001,0)" xlink:href="#au"/><use transform="matrix(0.05,0,0,0.05,101.85000000000001,0)" xlink:href="#aa"/><use transform="matrix(0.05,0,0,0.05,106.85000000000001,0)" xlink:href="#an"/></g><g id="P"><use transform="matrix(0.05,0,0,0.05,0,0)" xlink:href="#ax"/><use transform="matrix(0.05,0,0,0.05,10,0)" xlink:href="#U"/><use transform="matrix(0.05,0,0,0.05,13.949999999999998,0)" xlink:href="#aH"/><use transform="matrix(0.05,0,0,0.05,24.45,0)" xlink:href="#aC"/><use transform="matrix(0.05,0,0,0.05,34.45,0)" xlink:href="#an"/></g><g id="Q"><use transform="matrix(0.05,0,0,0.05,0,0)" xlink:href="#ax"/><use transform="matrix(0.05,0,0,0.05,10,0)" xlink:href="#U"/><use transform="matrix(0.05,0,0,0.05,13.949999999999998,0)" xlink:href="#aB"/><use transform="matrix(0.05,0,0,0.05,19.9,0)" xlink:href="#aC"/><use transform="matrix(0.05,0,0,0.05,29.899999999999995,0)" xlink:href="#ao"/><use transform="matrix(0.05,0,0,0.05,35.85,0)" xlink:href="#aE"/></g><g id="R"><use transform="matrix(0.05,0,0,0.05,0,0)" xlink:href="#ai"/><use transform="matrix(0.05,0,0,0.05,10,0)" xlink:href="#Z"/><use transform="matrix(0.05,0,0,0.05,15.949999999999998,0)" xlink:href="#Z"/><use transform="matrix(0.05,0,0,0.05,21.9,0)" xlink:href="#ai"/><use transform="matrix(0.05,0,0,0.05,31.899999999999995,0)" xlink:href="#aj"/><use transform="matrix(0.05,0,0,0.05,40.9,0)" xlink:href="#aE"/></g></defs></g></svg>