<svg xmlns="http://www.w3.org/2000/svg" xmlns:xlink="http://www.w3.org/1999/xlink" xmlns:lucid="lucid" width="1500" height="1311.2"><g transform="translate(0 0)" lucid:page-tab-id="NwPMMB0-D9fm"><path d="M0 0h1870.4v1323.2H0z" fill="#fff"/><path d="M20 40h460v160H20z" stroke="#000" stroke-width="2" fill="#99d2f2"/><use xlink:href="#a" transform="matrix(1,0,0,1,25,45) translate(26.925925925925867 82.27083333333334)"/><path d="M937.6 82.4c0 34.46-27.94 62.4-62.4 62.4-34.46 0-62.4-27.94-62.4-62.4 0-34.46 27.94-62.4 62.4-62.4 34.46 0 62.4 27.94 62.4 62.4z" stroke="#000" stroke-width="2" fill="#a3d977"/><use xlink:href="#b" transform="matrix(1,0,0,1,817.7999999999766,25) translate(38.525 61.11875)"/><path d="M937.6 1228.8c0 34.46-27.94 62.4-62.4 62.4-34.46 0-62.4-27.94-62.4-62.4 0-34.46 27.94-62.4 62.4-62.4 34.46 0 62.4 27.94 62.4 62.4z" stroke="#000" stroke-width="2" fill="#ff8f80"/><use xlink:href="#c" transform="matrix(1,0,0,1,817.7999999999765,1171.3999999999533) translate(41.5 61.11875)"/><path d="M675.2 200h400v120h-400z" stroke="#000" stroke-width="2" fill="#fff"/><use xlink:href="#d" transform="matrix(1,0,0,1,680.1999999999998,205) translate(97.475 59.0875)"/><use xlink:href="#e" transform="matrix(1,0,0,1,680.1999999999998,205) translate(127.725 59.0875)"/><use xlink:href="#f" transform="matrix(1,0,0,1,680.1999999999998,205) translate(147.725 59.0875)"/><use xlink:href="#g" transform="matrix(1,0,0,1,680.1999999999998,205) translate(202.675 59.0875)"/><use xlink:href="#h" transform="matrix(1,0,0,1,680.1999999999998,205) translate(240.625 59.0875)"/><path d="M875.2 146.8v33.7" stroke="#000" stroke-width="2" fill="none"/><path d="M875.2 145.8l1-.02v1.05h-2v-1.07z"/><path d="M875.2 195.76l-4.64-14.26h9.28z" stroke="#000" stroke-width="2"/><path d="M875.2 322v38.25" stroke="#000" stroke-width="2" fill="none"/><path d="M876.2 322.03h-2V321h2z"/><path d="M875.2 375.5l-4.64-14.25h9.28z" stroke="#000" stroke-width="2"/><path d="M875.2 380l80 60-80 60-80-60z" stroke="#000" stroke-width="2" fill="#fff"/><use xlink:href="#i" transform="matrix(1,0,0,1,800.1999999999998,385) translate(27.254999999999995 59.0875)"/><use xlink:href="#j" transform="matrix(1,0,0,1,800.1999999999998,385) translate(97.255 59.0875)"/><use xlink:href="#k" transform="matrix(1,0,0,1,800.1999999999998,385) translate(112.755 59.0875)"/><path d="M876.2 560.5h-2v-9.58h2zm0-31.17h-2v-27.08h2z"/><path d="M876.2 502.28h-2v-1.78l1 .75 1-.75zM875.2 575.76l-4.64-14.26h9.28z"/><path d="M875.2 579l-6-18.5h12zm-3.26-16.5l3.26 10.03 3.26-10.03z"/><use xlink:href="#l" transform="matrix(1,0,0,1,860.5249999999999,529.325) translate(0 14.4)"/><path d="M675.2 580h400v120h-400z" stroke="#000" stroke-width="2" fill="#fff"/><use xlink:href="#d" transform="matrix(1,0,0,1,680.1999999999998,585) translate(26.575000000000017 59.0875)"/><use xlink:href="#e" transform="matrix(1,0,0,1,680.1999999999998,585) translate(56.82500000000002 59.0875)"/><use xlink:href="#m" transform="matrix(1,0,0,1,680.1999999999998,585) translate(76.82500000000002 59.0875)"/><use xlink:href="#n" transform="matrix(1,0,0,1,680.1999999999998,585) translate(119.67500000000001 59.0875)"/><use xlink:href="#o" transform="matrix(1,0,0,1,680.1999999999998,585) translate(183.675 59.0875)"/><use xlink:href="#p" transform="matrix(1,0,0,1,680.1999999999998,585) translate(235.57500000000002 59.0875)"/><use xlink:href="#q" transform="matrix(1,0,0,1,680.1999999999998,585) translate(265.57500000000005 59.0875)"/><use xlink:href="#r" transform="matrix(1,0,0,1,680.1999999999998,585) translate(330.525 59.0875)"/><use xlink:href="#s" transform="matrix(1,0,0,1,680.1999999999998,585) translate(358.42499999999995 59.0875)"/><path d="M875.2 702v58.25" stroke="#000" stroke-width="2" fill="none"/><path d="M876.2 702.03h-2V701h2z"/><path d="M875.2 775.5l-4.64-14.25h9.28z" stroke="#000" stroke-width="2"/><path d="M875.2 780l80 60-80 60-80-60z" stroke="#000" stroke-width="2" fill="#fff"/><use xlink:href="#t" transform="matrix(1,0,0,1,800.1999999999998,785) translate(32.254999999999995 59.0875)"/><path d="M876.2 960.5h-2v-9.58h2zm0-31.17h-2v-27.08h2z"/><path d="M876.2 902.28h-2v-1.78l1 .75 1-.75zM875.2 975.76l-4.64-14.26h9.28z"/><path d="M875.2 979l-6-18.5h12zm-3.26-16.5l3.26 10.03 3.26-10.03z"/><use xlink:href="#l" transform="matrix(1,0,0,1,860.5249999999999,929.325) translate(0 14.4)"/><path d="M675.2 980h400v120h-400z" stroke="#000" stroke-width="2" fill="#fff"/><use xlink:href="#u" transform="matrix(1,0,0,1,680.1999999999998,985) translate(17.224999999999994 48.775)"/><use xlink:href="#v" transform="matrix(1,0,0,1,680.1999999999998,985) translate(76.125 48.775)"/><use xlink:href="#w" transform="matrix(1,0,0,1,680.1999999999998,985) translate(91.125 48.775)"/><use xlink:href="#x" transform="matrix(1,0,0,1,680.1999999999998,985) translate(169.07500000000002 48.775)"/><use xlink:href="#y" transform="matrix(1,0,0,1,680.1999999999998,985) translate(219.97500000000002 48.775)"/><use xlink:href="#z" transform="matrix(1,0,0,1,680.1999999999998,985) translate(266.92500000000007 48.775)"/><use xlink:href="#p" transform="matrix(1,0,0,1,680.1999999999998,985) translate(301.92500000000007 48.775)"/><use xlink:href="#r" transform="matrix(1,0,0,1,680.1999999999998,985) translate(331.92500000000007 48.775)"/><use xlink:href="#A" transform="matrix(1,0,0,1,680.1999999999998,985) translate(359.82500000000005 48.775)"/><use xlink:href="#B" transform="matrix(1,0,0,1,680.1999999999998,985) translate(118.225 70.375)"/><use xlink:href="#C" transform="matrix(1,0,0,1,680.1999999999998,985) translate(171.225 70.375)"/><path d="M875.2 1102v44.9" stroke="#000" stroke-width="2" fill="none"/><path d="M876.2 1102.03h-2V1101h2z"/><path d="M875.2 1162.16l-4.64-14.26h9.28z" stroke="#000" stroke-width="2"/><path d="M605.8 441H459.5v-2h146.3zm186.73 0h-163.8v-2h163.8z"/><path d="M793.53 440l1.34 1h-2.36v-2h2.37zM458.5 444.64L444.24 440l14.26-4.64z"/><path d="M459.5 446l-18.5-6 18.5-6zm-12.03-6l10.03 3.26v-6.52z"/><g><use xlink:href="#D" transform="matrix(1,0,0,1,605.7916666666666,429.2) translate(0 14.4)"/></g><path d="M280 380h160v120H280z" stroke="#000" stroke-width="2" fill="#fff"/><g><use xlink:href="#u" transform="matrix(1,0,0,1,285,385) translate(1.5749999999999886 38.4625)"/><use xlink:href="#v" transform="matrix(1,0,0,1,285,385) translate(60.474999999999994 38.4625)"/><use xlink:href="#E" transform="matrix(1,0,0,1,285,385) translate(75.475 38.4625)"/><use xlink:href="#z" transform="matrix(1,0,0,1,285,385) translate(21.525 60.0625)"/><use xlink:href="#y" transform="matrix(1,0,0,1,285,385) translate(56.525 60.0625)"/><use xlink:href="#F" transform="matrix(1,0,0,1,285,385) translate(103.475 60.0625)"/><use xlink:href="#G" transform="matrix(1,0,0,1,285,385) translate(40.074999999999996 81.66250000000001)"/></g><path d="M1126.46 841h-168.6v-2h168.6zm174.04 0h-151.1v-2h151.1z"/><path d="M957.9 841h-2.37l1.34-1-1.34-1h2.36zM1315.76 840l-14.26 4.64v-9.28z"/><path d="M1319 840l-18.5 6v-12zm-16.5 3.26l10.03-3.26-10.03-3.26z"/><g><use xlink:href="#D" transform="matrix(1,0,0,1,1126.4583333333333,829.2) translate(0 14.4)"/></g><path d="M1320 780h160v120h-160z" stroke="#000" stroke-width="2" fill="#fff"/><g><use xlink:href="#u" transform="matrix(1,0,0,1,1325,785) translate(1.5749999999999886 38.4625)"/><use xlink:href="#v" transform="matrix(1,0,0,1,1325,785) translate(60.474999999999994 38.4625)"/><use xlink:href="#E" transform="matrix(1,0,0,1,1325,785) translate(75.475 38.4625)"/><use xlink:href="#z" transform="matrix(1,0,0,1,1325,785) translate(21.525 60.0625)"/><use xlink:href="#y" transform="matrix(1,0,0,1,1325,785) translate(56.525 60.0625)"/><use xlink:href="#F" transform="matrix(1,0,0,1,1325,785) translate(103.475 60.0625)"/><use xlink:href="#G" transform="matrix(1,0,0,1,1325,785) translate(40.074999999999996 81.66250000000001)"/></g><path d="M1400 902v326.8H957.1" stroke="#000" stroke-width="2" fill="none"/><path d="M1401 902.03h-2V901h2z"/><path d="M941.84 1228.8l14.26-4.64v9.28z" stroke="#000" stroke-width="2"/><path d="M360 502v726.8h433.3" stroke="#000" stroke-width="2" fill="none"/><path d="M361 502.03h-2V501h2z"/><path d="M808.56 1228.8l-14.26 4.64v-9.28z" stroke="#000" stroke-width="2"/><defs><path d="M127-220V0H93v-220H8v-28h204v28h-85" id="H"/><path d="M100-194c63 0 86 42 84 106H49c0 40 14 67 53 68 26 1 43-12 49-29l28 8c-11 28-37 45-77 45C44 4 14-33 15-96c1-61 26-98 85-98zm52 81c6-60-76-77-97-28-3 7-6 17-6 28h103" id="I"/><path d="M141 0L90-78 38 0H4l68-98-65-92h35l48 74 47-74h35l-64 92 68 98h-35" id="J"/><path d="M59-47c-2 24 18 29 38 22v24C64 9 27 4 27-40v-127H5v-23h24l9-43h21v43h35v23H59v120" id="K"/><path d="M63-220v92h138v28H63V0H30v-248h175v28H63" id="L"/><path d="M24-231v-30h32v30H24zM24 0v-190h32V0H24" id="M"/><path d="M24 0v-261h32V0H24" id="N"/><path d="M33 0v-38h34V0H33" id="O"/><path d="M135-143c-3-34-86-38-87 0 15 53 115 12 119 90S17 21 10-45l28-5c4 36 97 45 98 0-10-56-113-15-118-90-4-57 82-63 122-42 12 7 21 19 24 35" id="P"/><path d="M141-36C126-15 110 5 73 4 37 3 15-17 15-53c-1-64 63-63 125-63 3-35-9-54-41-54-24 1-41 7-42 31l-33-3c5-37 33-52 76-52 45 0 72 20 72 64v82c-1 20 7 32 28 27v20c-31 9-61-2-59-35zM48-53c0 20 12 33 32 33 41-3 63-29 60-74-43 2-92-5-92 41" id="Q"/><path d="M108 0H70L1-190h34L89-25l56-165h34" id="R"/><path d="M87 75C49 33 22-17 22-94c0-76 28-126 65-167h31c-38 41-64 92-64 168S80 34 118 75H87" id="S"/><path d="M185-189c-5-48-123-54-124 2 14 75 158 14 163 119 3 78-121 87-175 55-17-10-28-26-33-46l33-7c5 56 141 63 141-1 0-78-155-14-162-118-5-82 145-84 179-34 5 7 8 16 11 25" id="T"/><path d="M114-163C36-179 61-72 57 0H25l-1-190h30c1 12-1 29 2 39 6-27 23-49 58-41v29" id="U"/><path d="M117-194c89-4 53 116 60 194h-32v-121c0-31-8-49-39-48C34-167 62-67 57 0H25l-1-190h30c1 10-1 24 2 32 11-22 29-35 61-36" id="V"/><path d="M177-190C167-65 218 103 67 71c-23-6-38-20-44-43l32-5c15 47 100 32 89-28v-30C133-14 115 1 83 1 29 1 15-40 15-95c0-56 16-97 71-98 29-1 48 16 59 35 1-10 0-23 2-32h30zM94-22c36 0 50-32 50-73 0-42-14-75-50-75-39 0-46 34-46 75s6 73 46 73" id="W"/><path d="M68-38c1 34 0 65-14 84H32c9-13 17-26 17-46H33v-38h35" id="X"/><path d="M33-261c38 41 65 92 65 168S71 34 33 75H2C39 34 66-17 66-93S39-220 2-261h31" id="Y"/><path d="M33-154v-36h34v36H33zM33 0v-36h34V0H33" id="Z"/><g id="a"><use transform="matrix(0.07407407407407408,0,0,0.07407407407407408,0,0)" xlink:href="#H"/><use transform="matrix(0.07407407407407408,0,0,0.07407407407407408,13.259259259259261,0)" xlink:href="#I"/><use transform="matrix(0.07407407407407408,0,0,0.07407407407407408,28.074074074074076,0)" xlink:href="#J"/><use transform="matrix(0.07407407407407408,0,0,0.07407407407407408,41.40740740740741,0)" xlink:href="#K"/><use transform="matrix(0.07407407407407408,0,0,0.07407407407407408,48.814814814814824,0)" xlink:href="#L"/><use transform="matrix(0.07407407407407408,0,0,0.07407407407407408,65.03703703703705,0)" xlink:href="#M"/><use transform="matrix(0.07407407407407408,0,0,0.07407407407407408,70.8888888888889,0)" xlink:href="#N"/><use transform="matrix(0.07407407407407408,0,0,0.07407407407407408,76.74074074074075,0)" xlink:href="#I"/><use transform="matrix(0.07407407407407408,0,0,0.07407407407407408,91.55555555555557,0)" xlink:href="#O"/><use transform="matrix(0.07407407407407408,0,0,0.07407407407407408,98.96296296296298,0)" xlink:href="#P"/><use transform="matrix(0.07407407407407408,0,0,0.07407407407407408,112.2962962962963,0)" xlink:href="#Q"/><use transform="matrix(0.07407407407407408,0,0,0.07407407407407408,127.11111111111111,0)" xlink:href="#R"/><use transform="matrix(0.07407407407407408,0,0,0.07407407407407408,140.44444444444446,0)" xlink:href="#I"/><use transform="matrix(0.07407407407407408,0,0,0.07407407407407408,155.25925925925927,0)" xlink:href="#S"/><use transform="matrix(0.07407407407407408,0,0,0.07407407407407408,164.07407407407408,0)" xlink:href="#T"/><use transform="matrix(0.07407407407407408,0,0,0.07407407407407408,181.85185185185185,0)" xlink:href="#K"/><use transform="matrix(0.07407407407407408,0,0,0.07407407407407408,189.25925925925924,0)" xlink:href="#U"/><use transform="matrix(0.07407407407407408,0,0,0.07407407407407408,198.07407407407408,0)" xlink:href="#M"/><use transform="matrix(0.07407407407407408,0,0,0.07407407407407408,203.92592592592592,0)" xlink:href="#V"/><use transform="matrix(0.07407407407407408,0,0,0.07407407407407408,218.74074074074073,0)" xlink:href="#W"/><use transform="matrix(0.07407407407407408,0,0,0.07407407407407408,233.55555555555554,0)" xlink:href="#X"/><use transform="matrix(0.07407407407407408,0,0,0.07407407407407408,240.96296296296296,0)" xlink:href="#T"/><use transform="matrix(0.07407407407407408,0,0,0.07407407407407408,258.74074074074076,0)" xlink:href="#K"/><use transform="matrix(0.07407407407407408,0,0,0.07407407407407408,266.14814814814815,0)" xlink:href="#U"/><use transform="matrix(0.07407407407407408,0,0,0.07407407407407408,274.962962962963,0)" xlink:href="#M"/><use transform="matrix(0.07407407407407408,0,0,0.07407407407407408,280.81481481481484,0)" xlink:href="#V"/><use transform="matrix(0.07407407407407408,0,0,0.07407407407407408,295.6296296296297,0)" xlink:href="#W"/><use transform="matrix(0.07407407407407408,0,0,0.07407407407407408,310.44444444444446,0)" xlink:href="#Y"/><use transform="matrix(0.07407407407407408,0,0,0.07407407407407408,319.25925925925935,0)" xlink:href="#Z"/><use transform="matrix(0.07407407407407408,0,0,0.07407407407407408,326.6666666666667,0)" xlink:href="#T"/><use transform="matrix(0.07407407407407408,0,0,0.07407407407407408,344.4444444444445,0)" xlink:href="#K"/><use transform="matrix(0.07407407407407408,0,0,0.07407407407407408,351.8518518518519,0)" xlink:href="#U"/><use transform="matrix(0.07407407407407408,0,0,0.07407407407407408,360.66666666666674,0)" xlink:href="#M"/><use transform="matrix(0.07407407407407408,0,0,0.07407407407407408,366.5185185185186,0)" xlink:href="#V"/><use transform="matrix(0.07407407407407408,0,0,0.07407407407407408,381.3333333333334,0)" xlink:href="#W"/></g><g id="b"><use transform="matrix(0.05,0,0,0.05,0,0)" xlink:href="#T"/><use transform="matrix(0.05,0,0,0.05,12,0)" xlink:href="#K"/><use transform="matrix(0.05,0,0,0.05,17,0)" xlink:href="#Q"/><use transform="matrix(0.05,0,0,0.05,27,0)" xlink:href="#U"/><use transform="matrix(0.05,0,0,0.05,32.95,0)" xlink:href="#K"/></g><path d="M30 0v-248h187v28H63v79h144v27H63v87h162V0H30" id="aa"/><path d="M85-194c31 0 48 13 60 33l-1-100h32l1 261h-30c-2-10 0-23-3-31C134-8 116 4 85 4 32 4 16-35 15-94c0-66 23-100 70-100zm9 24c-40 0-46 34-46 75 0 40 6 74 45 74 42 0 51-32 51-76 0-42-9-74-50-73" id="ab"/><g id="c"><use transform="matrix(0.05,0,0,0.05,0,0)" xlink:href="#aa"/><use transform="matrix(0.05,0,0,0.05,12,0)" xlink:href="#V"/><use transform="matrix(0.05,0,0,0.05,22,0)" xlink:href="#ab"/></g><path d="M179-190L93 31C79 59 56 82 12 73V49c39 6 53-20 64-50L1-190h34L92-34l54-156h33" id="ac"/><g id="d"><use transform="matrix(0.05,0,0,0.05,0,0)" xlink:href="#H"/><use transform="matrix(0.05,0,0,0.05,10.3,0)" xlink:href="#U"/><use transform="matrix(0.05,0,0,0.05,16.25,0)" xlink:href="#ac"/></g><path d="M100-194c62-1 85 37 85 99 1 63-27 99-86 99S16-35 15-95c0-66 28-99 85-99zM99-20c44 1 53-31 53-75 0-43-8-75-51-75s-53 32-53 75 10 74 51 75" id="ad"/><g id="e"><use transform="matrix(0.05,0,0,0.05,0,0)" xlink:href="#K"/><use transform="matrix(0.05,0,0,0.05,5,0)" xlink:href="#ad"/></g><path d="M96-169c-40 0-48 33-48 73s9 75 48 75c24 0 41-14 43-38l32 2c-6 37-31 61-74 61-59 0-76-41-82-99-10-93 101-131 147-64 4 7 5 14 7 22l-32 3c-4-21-16-35-41-35" id="ae"/><g id="f"><use transform="matrix(0.05,0,0,0.05,0,0)" xlink:href="#ae"/><use transform="matrix(0.05,0,0,0.05,9,0)" xlink:href="#U"/><use transform="matrix(0.05,0,0,0.05,14.949999999999998,0)" xlink:href="#I"/><use transform="matrix(0.05,0,0,0.05,24.95,0)" xlink:href="#Q"/><use transform="matrix(0.05,0,0,0.05,34.95,0)" xlink:href="#K"/><use transform="matrix(0.05,0,0,0.05,39.95,0)" xlink:href="#I"/></g><path d="M206 0h-36l-40-164L89 0H53L-1-190h32L70-26l43-164h34l41 164 42-164h31" id="af"/><g id="g"><use transform="matrix(0.05,0,0,0.05,0,0)" xlink:href="#V"/><use transform="matrix(0.05,0,0,0.05,10,0)" xlink:href="#I"/><use transform="matrix(0.05,0,0,0.05,20,0)" xlink:href="#af"/></g><path d="M101-234c-31-9-42 10-38 44h38v23H63V0H32v-167H5v-23h27c-7-52 17-82 69-68v24" id="ag"/><g id="h"><use transform="matrix(0.05,0,0,0.05,0,0)" xlink:href="#K"/><use transform="matrix(0.05,0,0,0.05,5,0)" xlink:href="#I"/><use transform="matrix(0.05,0,0,0.05,15,0)" xlink:href="#J"/><use transform="matrix(0.05,0,0,0.05,24,0)" xlink:href="#K"/><use transform="matrix(0.05,0,0,0.05,29,0)" xlink:href="#ag"/><use transform="matrix(0.05,0,0,0.05,34,0)" xlink:href="#M"/><use transform="matrix(0.05,0,0,0.05,37.95,0)" xlink:href="#N"/><use transform="matrix(0.05,0,0,0.05,41.900000000000006,0)" xlink:href="#I"/></g><path d="M84 4C-5 8 30-112 23-190h32v120c0 31 7 50 39 49 72-2 45-101 50-169h31l1 190h-30c-1-10 1-25-2-33-11 22-28 36-60 37" id="ah"/><g id="i"><use transform="matrix(0.05,0,0,0.05,0,0)" xlink:href="#P"/><use transform="matrix(0.05,0,0,0.05,9,0)" xlink:href="#ah"/><use transform="matrix(0.05,0,0,0.05,19,0)" xlink:href="#ae"/><use transform="matrix(0.05,0,0,0.05,28,0)" xlink:href="#ae"/><use transform="matrix(0.05,0,0,0.05,37,0)" xlink:href="#I"/><use transform="matrix(0.05,0,0,0.05,47,0)" xlink:href="#P"/><use transform="matrix(0.05,0,0,0.05,56,0)" xlink:href="#P"/></g><path d="M18-150v-26h174v26H18zm0 90v-26h174v26H18" id="ai"/><use transform="matrix(0.05,0,0,0.05,0,0)" xlink:href="#ai" id="j"/><path d="M103-251c84 0 111 97 45 133-19 10-37 24-39 52H78c0-63 77-55 77-114 0-30-21-42-52-43-32 0-53 17-56 46l-32-2c7-45 34-72 88-72zM77 0v-35h34V0H77" id="aj"/><use transform="matrix(0.05,0,0,0.05,0,0)" xlink:href="#aj" id="k"/><path d="M137-103V0h-34v-103L8-248h37l75 118 75-118h37" id="ak"/><g id="l"><use transform="matrix(0.05,0,0,0.05,0,0)" xlink:href="#ak"/><use transform="matrix(0.05,0,0,0.05,10.35,0)" xlink:href="#I"/><use transform="matrix(0.05,0,0,0.05,20.35,0)" xlink:href="#P"/></g><g id="m"><use transform="matrix(0.05,0,0,0.05,0,0)" xlink:href="#af"/><use transform="matrix(0.05,0,0,0.05,12.950000000000001,0)" xlink:href="#U"/><use transform="matrix(0.05,0,0,0.05,18.900000000000002,0)" xlink:href="#M"/><use transform="matrix(0.05,0,0,0.05,22.85,0)" xlink:href="#K"/><use transform="matrix(0.05,0,0,0.05,27.85,0)" xlink:href="#I"/></g><g id="n"><use transform="matrix(0.05,0,0,0.05,0,0)" xlink:href="#ae"/><use transform="matrix(0.05,0,0,0.05,9,0)" xlink:href="#ad"/><use transform="matrix(0.05,0,0,0.05,19,0)" xlink:href="#V"/><use transform="matrix(0.05,0,0,0.05,29,0)" xlink:href="#K"/><use transform="matrix(0.05,0,0,0.05,34,0)" xlink:href="#I"/><use transform="matrix(0.05,0,0,0.05,44,0)" xlink:href="#K"/><use transform="matrix(0.05,0,0,0.05,49,0)" xlink:href="#V"/></g><g id="o"><use transform="matrix(0.05,0,0,0.05,0,0)" xlink:href="#M"/><use transform="matrix(0.05,0,0,0.05,3.95,0)" xlink:href="#V"/><use transform="matrix(0.05,0,0,0.05,13.949999999999998,0)" xlink:href="#P"/><use transform="matrix(0.05,0,0,0.05,22.95,0)" xlink:href="#M"/><use transform="matrix(0.05,0,0,0.05,26.899999999999995,0)" xlink:href="#ab"/><use transform="matrix(0.05,0,0,0.05,36.9,0)" xlink:href="#I"/></g><path d="M106-169C34-169 62-67 57 0H25v-261h32l-1 103c12-21 28-36 61-36 89 0 53 116 60 194h-32v-121c2-32-8-49-39-48" id="al"/><g id="p"><use transform="matrix(0.05,0,0,0.05,0,0)" xlink:href="#K"/><use transform="matrix(0.05,0,0,0.05,5,0)" xlink:href="#al"/><use transform="matrix(0.05,0,0,0.05,15,0)" xlink:href="#I"/></g><g id="q"><use transform="matrix(0.05,0,0,0.05,0,0)" xlink:href="#ae"/><use transform="matrix(0.05,0,0,0.05,9,0)" xlink:href="#U"/><use transform="matrix(0.05,0,0,0.05,14.949999999999998,0)" xlink:href="#I"/><use transform="matrix(0.05,0,0,0.05,24.95,0)" xlink:href="#Q"/><use transform="matrix(0.05,0,0,0.05,34.95,0)" xlink:href="#K"/><use transform="matrix(0.05,0,0,0.05,39.95,0)" xlink:href="#I"/><use transform="matrix(0.05,0,0,0.05,49.95,0)" xlink:href="#ab"/></g><g id="r"><use transform="matrix(0.05,0,0,0.05,0,0)" xlink:href="#ag"/><use transform="matrix(0.05,0,0,0.05,5,0)" xlink:href="#M"/><use transform="matrix(0.05,0,0,0.05,8.95,0)" xlink:href="#N"/><use transform="matrix(0.05,0,0,0.05,12.899999999999999,0)" xlink:href="#I"/></g><use transform="matrix(0.05,0,0,0.05,0,0)" xlink:href="#O" id="s"/><g id="t"><use transform="matrix(0.05,0,0,0.05,0,0)" xlink:href="#P"/><use transform="matrix(0.05,0,0,0.05,9,0)" xlink:href="#ah"/><use transform="matrix(0.05,0,0,0.05,19,0)" xlink:href="#ae"/><use transform="matrix(0.05,0,0,0.05,28,0)" xlink:href="#ae"/><use transform="matrix(0.05,0,0,0.05,37,0)" xlink:href="#I"/><use transform="matrix(0.05,0,0,0.05,47,0)" xlink:href="#P"/><use transform="matrix(0.05,0,0,0.05,56,0)" xlink:href="#P"/><use transform="matrix(0.05,0,0,0.05,65,0)" xlink:href="#ai"/><use transform="matrix(0.05,0,0,0.05,75.5,0)" xlink:href="#aj"/></g><path d="M233-177c-1 41-23 64-60 70L243 0h-38l-65-103H63V0H30v-248c88 3 205-21 203 71zM63-129c60-2 137 13 137-47 0-61-80-42-137-45v92" id="am"/><g id="u"><use transform="matrix(0.05,0,0,0.05,0,0)" xlink:href="#am"/><use transform="matrix(0.05,0,0,0.05,12.950000000000001,0)" xlink:href="#I"/><use transform="matrix(0.05,0,0,0.05,22.950000000000003,0)" xlink:href="#K"/><use transform="matrix(0.05,0,0,0.05,27.950000000000003,0)" xlink:href="#ah"/><use transform="matrix(0.05,0,0,0.05,37.95,0)" xlink:href="#U"/><use transform="matrix(0.05,0,0,0.05,43.900000000000006,0)" xlink:href="#V"/></g><use transform="matrix(0.05,0,0,0.05,0,0)" xlink:href="#Q" id="v"/><path d="M210-169c-67 3-38 105-44 169h-31v-121c0-29-5-50-35-48C34-165 62-65 56 0H25l-1-190h30c1 10-1 24 2 32 10-44 99-50 107 0 11-21 27-35 58-36 85-2 47 119 55 194h-31v-121c0-29-5-49-35-48" id="an"/><g id="w"><use transform="matrix(0.05,0,0,0.05,0,0)" xlink:href="#an"/><use transform="matrix(0.05,0,0,0.05,14.950000000000001,0)" xlink:href="#I"/><use transform="matrix(0.05,0,0,0.05,24.950000000000003,0)" xlink:href="#P"/><use transform="matrix(0.05,0,0,0.05,33.95,0)" xlink:href="#P"/><use transform="matrix(0.05,0,0,0.05,42.95,0)" xlink:href="#Q"/><use transform="matrix(0.05,0,0,0.05,52.95,0)" xlink:href="#W"/><use transform="matrix(0.05,0,0,0.05,62.95,0)" xlink:href="#I"/></g><g id="x"><use transform="matrix(0.05,0,0,0.05,0,0)" xlink:href="#af"/><use transform="matrix(0.05,0,0,0.05,12.950000000000001,0)" xlink:href="#al"/><use transform="matrix(0.05,0,0,0.05,22.950000000000003,0)" xlink:href="#M"/><use transform="matrix(0.05,0,0,0.05,26.900000000000002,0)" xlink:href="#ae"/><use transform="matrix(0.05,0,0,0.05,35.900000000000006,0)" xlink:href="#al"/></g><g id="y"><use transform="matrix(0.05,0,0,0.05,0,0)" xlink:href="#P"/><use transform="matrix(0.05,0,0,0.05,9,0)" xlink:href="#al"/><use transform="matrix(0.05,0,0,0.05,19,0)" xlink:href="#ad"/><use transform="matrix(0.05,0,0,0.05,29,0)" xlink:href="#af"/></g><g id="z"><use transform="matrix(0.05,0,0,0.05,0,0)" xlink:href="#K"/><use transform="matrix(0.05,0,0,0.05,5,0)" xlink:href="#al"/><use transform="matrix(0.05,0,0,0.05,15,0)" xlink:href="#Q"/><use transform="matrix(0.05,0,0,0.05,25,0)" xlink:href="#K"/></g><g id="A"><use transform="matrix(0.05,0,0,0.05,0,0)" xlink:href="#M"/><use transform="matrix(0.05,0,0,0.05,3.95,0)" xlink:href="#P"/></g><g id="B"><use transform="matrix(0.05,0,0,0.05,0,0)" xlink:href="#P"/><use transform="matrix(0.05,0,0,0.05,9,0)" xlink:href="#Q"/><use transform="matrix(0.05,0,0,0.05,19,0)" xlink:href="#R"/><use transform="matrix(0.05,0,0,0.05,28,0)" xlink:href="#I"/><use transform="matrix(0.05,0,0,0.05,38,0)" xlink:href="#ab"/></g><g id="C"><use transform="matrix(0.05,0,0,0.05,0,0)" xlink:href="#P"/><use transform="matrix(0.05,0,0,0.05,9,0)" xlink:href="#ah"/><use transform="matrix(0.05,0,0,0.05,19,0)" xlink:href="#ae"/><use transform="matrix(0.05,0,0,0.05,28,0)" xlink:href="#ae"/><use transform="matrix(0.05,0,0,0.05,37,0)" xlink:href="#I"/><use transform="matrix(0.05,0,0,0.05,47,0)" xlink:href="#P"/><use transform="matrix(0.05,0,0,0.05,56,0)" xlink:href="#P"/><use transform="matrix(0.05,0,0,0.05,65,0)" xlink:href="#ag"/><use transform="matrix(0.05,0,0,0.05,70,0)" xlink:href="#ah"/><use transform="matrix(0.05,0,0,0.05,80,0)" xlink:href="#N"/><use transform="matrix(0.05,0,0,0.05,83.95,0)" xlink:href="#N"/><use transform="matrix(0.05,0,0,0.05,87.9,0)" xlink:href="#ac"/><use transform="matrix(0.05,0,0,0.05,95.55000000000001,0)" xlink:href="#O"/></g><path d="M190 0L58-211 59 0H30v-248h39L202-35l-2-213h31V0h-41" id="ao"/><g id="D"><use transform="matrix(0.05,0,0,0.05,0,0)" xlink:href="#ao"/><use transform="matrix(0.05,0,0,0.05,12.950000000000001,0)" xlink:href="#ad"/></g><g id="E"><use transform="matrix(0.05,0,0,0.05,0,0)" xlink:href="#an"/><use transform="matrix(0.05,0,0,0.05,14.950000000000001,0)" xlink:href="#I"/><use transform="matrix(0.05,0,0,0.05,24.950000000000003,0)" xlink:href="#P"/><use transform="matrix(0.05,0,0,0.05,33.95,0)" xlink:href="#P"/><use transform="matrix(0.05,0,0,0.05,42.95,0)" xlink:href="#Q"/><use transform="matrix(0.05,0,0,0.05,52.95,0)" xlink:href="#W"/><use transform="matrix(0.05,0,0,0.05,62.95,0)" xlink:href="#I"/></g><g id="F"><use transform="matrix(0.05,0,0,0.05,0,0)" xlink:href="#K"/><use transform="matrix(0.05,0,0,0.05,5,0)" xlink:href="#al"/><use transform="matrix(0.05,0,0,0.05,15,0)" xlink:href="#I"/></g><path d="M115-194c55 1 70 41 70 98S169 2 115 4C84 4 66-9 55-30l1 105H24l-1-265h31l2 30c10-21 28-34 59-34zm-8 174c40 0 45-34 45-75s-6-73-45-74c-42 0-51 32-51 76 0 43 10 73 51 73" id="ap"/><path d="M115-194c53 0 69 39 70 98 0 66-23 100-70 100C84 3 66-7 56-30L54 0H23l1-261h32v101c10-23 28-34 59-34zm-8 174c40 0 45-34 45-75 0-40-5-75-45-74-42 0-51 32-51 76 0 43 10 73 51 73" id="aq"/><g id="G"><use transform="matrix(0.05,0,0,0.05,0,0)" xlink:href="#ap"/><use transform="matrix(0.05,0,0,0.05,10,0)" xlink:href="#U"/><use transform="matrix(0.05,0,0,0.05,15.949999999999998,0)" xlink:href="#ad"/><use transform="matrix(0.05,0,0,0.05,25.950000000000003,0)" xlink:href="#aq"/><use transform="matrix(0.05,0,0,0.05,35.95,0)" xlink:href="#N"/><use transform="matrix(0.05,0,0,0.05,39.900000000000006,0)" xlink:href="#I"/><use transform="matrix(0.05,0,0,0.05,49.900000000000006,0)" xlink:href="#an"/><use transform="matrix(0.05,0,0,0.05,64.85000000000001,0)" xlink:href="#O"/></g></defs></g></svg>